<?xml version="1.0" encoding="iso-8859-1"?>
<!-- Generator: Adobe Illustrator 19.0.1, SVG Export Plug-In . SVG Version: 6.00 Build 0)  -->
<svg version="1.1" id="Layer_1" xmlns="http://www.w3.org/2000/svg" xmlns:xlink="http://www.w3.org/1999/xlink" x="0px" y="0px"
	 viewBox="0 0 400 135.71" style="enable-background:new 0 0 400 135.71;" xml:space="preserve">
<g>
	<path style="fill:#7379A0;" d="M54.743,86.605c-1.803,2.241-1.444,5.865,1.409,7.507l46.982,27.037
		c2.065,1.188,4.384,1.795,6.719,1.795c1.391,0,2.787-0.215,4.137-0.651l45.5-14.688c3.476-1.122,4.456-5.268,2.432-7.853
		c-0.575,0.715-1.369,1.289-2.37,1.612l-46.007,14.852c-1.23,0.397-2.502,0.593-3.769,0.593c-2.126,0-4.239-0.553-6.12-1.635
		L56.215,87.871C55.615,87.526,55.126,87.094,54.743,86.605"/>
	<path style="fill:#50667F;" d="M159.553,101.363l-46.007,14.852c-3.295,1.064-6.887,0.685-9.888-1.042L56.215,87.871
		c-3.744-2.155-3.194-7.72,0.9-9.099l49.084-16.534c1.38-0.465,2.893-0.307,4.148,0.432l50.213,29.6
		C164.285,94.467,163.669,100.034,159.553,101.363"/>
	<path style="fill:#395066;" d="M91.032,81.492l-17.956,6.877c-0.844,0.323-1.789,0.246-2.569-0.21l-5.559-3.25
		c-1.124-0.657-0.965-2.328,0.262-2.762l19.135-6.765c0.421-0.149,0.886-0.106,1.272,0.116l5.632,3.241
		C92.364,79.381,92.234,81.031,91.032,81.492"/>
	<path style="fill:#50667F;" d="M72.208,82.152c1.459,0.188,2.533,1.19,2.398,2.238c-0.135,1.048-1.427,1.746-2.886,1.558
		c-1.459-0.188-2.533-1.19-2.398-2.238C69.456,82.662,70.748,81.964,72.208,82.152"/>
	<path style="fill:#395066;" d="M92.991,95.143c1.459,0.188,2.531,1.205,2.393,2.271c-0.137,1.067-1.431,1.779-2.891,1.591
		c-1.459-0.188-2.531-1.205-2.393-2.271C90.238,95.667,91.532,94.955,92.991,95.143"/>
	<path style="fill:#395066;" d="M119.886,99.529c1.459,0.188,2.531,1.205,2.393,2.271c-0.137,1.067-1.431,1.779-2.891,1.591
		c-1.459-0.188-2.531-1.205-2.393-2.271C117.132,100.054,118.427,99.341,119.886,99.529"/>

		<ellipse transform="matrix(0.1277 -0.9918 0.9918 0.1277 21.0643 225.104)" style="fill:#395066;" cx="138.503" cy="100.577" rx="1.947" ry="2.664"/>
	<path style="fill:#F9886C;" d="M92.991,93.986c1.459,0.188,2.531,1.205,2.393,2.271c-0.137,1.067-1.431,1.779-2.891,1.591
		c-1.459-0.188-2.531-1.205-2.393-2.271C90.238,94.511,91.532,93.798,92.991,93.986"/>
	<path style="fill:#8A8BCB;" d="M119.886,98.373c1.459,0.188,2.531,1.205,2.393,2.271c-0.137,1.067-1.431,1.779-2.891,1.591
		c-1.459-0.188-2.531-1.205-2.393-2.271C117.132,98.897,118.427,98.185,119.886,98.373"/>

		<ellipse transform="matrix(0.1277 -0.9918 0.9918 0.1277 22.2114 224.0951)" style="fill:#F1EF75;" cx="138.503" cy="99.42" rx="1.947" ry="2.664"/>
	<path style="fill:#7379A0;" d="M162.682,79.272c-0.584,0.826-1.44,1.492-2.55,1.851l-11.942,3.855l7.879,4.645l5.055-1.632
		C165.023,86.732,165.781,81.669,162.682,79.272 M56.195,67.231c-1.595,2.252-1.165,5.683,1.59,7.268l4.436,2.553l6.903-2.325
		l-12.33-7.096C56.58,67.508,56.381,67.375,56.195,67.231"/>
	<path style="fill:#445971;" d="M84.936,83.826l-6.57,2.516l13.385,7.702c0.244-0.058,0.505-0.089,0.776-0.089
		c0.152,0,0.308,0.01,0.465,0.03c1.407,0.181,2.453,1.133,2.403,2.156l9.771,5.623c1.906,1.097,4.046,1.657,6.201,1.657
		c1.283,0,2.572-0.199,3.819-0.601l2.055-0.663c-0.199-0.32-0.292-0.676-0.245-1.037c0.017-0.136,0.054-0.266,0.107-0.389
		c-0.101-0.245-0.14-0.505-0.107-0.768c0.123-0.951,1.166-1.621,2.425-1.621c0.152,0,0.308,0.01,0.465,0.03
		c1.406,0.181,2.452,1.132,2.404,2.155l33.779-10.905l-7.879-4.645l-34.074,11c-1.228,0.396-2.497,0.592-3.761,0.592
		c-2.122,0-4.231-0.552-6.108-1.632L84.936,83.826 M69.123,74.727l-6.903,2.325l6.621,3.81l6.779-2.397L69.123,74.727"/>
	<path style="fill:#30455B;" d="M75.62,78.466l-6.779,2.397l2.282,1.313c0.195-0.035,0.4-0.054,0.612-0.054
		c0.155,0,0.313,0.01,0.473,0.031c1.364,0.176,2.39,1.062,2.409,2.033l3.749,2.157l6.57-2.516L75.62,78.466"/>
	<path style="fill:#445971;" d="M71.735,82.121c-0.211,0-0.416,0.019-0.612,0.054l3.493,2.01c-0.018-0.971-1.045-1.858-2.409-2.033
		C72.048,82.131,71.89,82.121,71.735,82.121"/>
	<path style="fill:#30455B;" d="M117.102,100.732c-0.053,0.123-0.089,0.253-0.107,0.389c-0.047,0.362,0.046,0.717,0.245,1.037
		l0.943-0.304C117.67,101.575,117.285,101.178,117.102,100.732"/>
	<path style="fill:#D37660;" d="M92.526,93.956c-0.271,0-0.532,0.031-0.776,0.089l3.645,2.097c0.05-1.024-0.997-1.975-2.403-2.156
		C92.834,93.966,92.678,93.956,92.526,93.956"/>
	<path style="fill:#7579B5;" d="M119.42,98.343c-1.26,0-2.303,0.67-2.425,1.621c-0.034,0.263,0.006,0.523,0.107,0.768
		c0.183,0.446,0.568,0.843,1.082,1.121l4.106-1.325c0.048-1.023-0.998-1.974-2.404-2.155
		C119.728,98.352,119.573,98.343,119.42,98.343"/>
	<path style="fill:#41AFA5;" d="M160.132,81.123l-46.016,14.855c-3.289,1.062-6.874,0.684-9.869-1.04L56.793,67.631
		c-3.744-2.155-3.194-7.72,0.9-9.099l49.084-16.534c1.38-0.465,2.893-0.307,4.148,0.432l50.213,29.6
		C164.864,74.227,164.248,79.794,160.132,81.123"/>
	<path style="fill:#FFFFFF;" d="M99.901,60.254c1.459,0.188,2.49,1.523,2.302,2.982c-0.188,1.459-1.523,2.49-2.982,2.302
		c-1.459-0.188-2.49-1.523-2.302-2.982C97.107,61.096,98.442,60.066,99.901,60.254"/>
	<path d="M99.901,60.254l-0.035,0.269c1.207,0.155,2.088,1.185,2.088,2.37c0,0.102-0.007,0.205-0.02,0.309
		c-0.155,1.207-1.185,2.087-2.37,2.087c-0.102,0-0.205-0.007-0.309-0.02c-1.207-0.155-2.088-1.186-2.087-2.37
		c0-0.102,0.007-0.205,0.02-0.309c0.155-1.207,1.185-2.088,2.37-2.088c0.102,0,0.205,0.006,0.309,0.02L99.901,60.254l0.035-0.269
		c-0.127-0.016-0.253-0.024-0.378-0.024c-1.455,0-2.716,1.08-2.907,2.56c-0.016,0.127-0.024,0.253-0.024,0.378
		c0,1.455,1.08,2.716,2.56,2.907c0.127,0.016,0.253,0.024,0.378,0.024c1.455,0,2.716-1.08,2.907-2.56
		c0.016-0.127,0.024-0.253,0.024-0.378c0-1.455-1.08-2.716-2.56-2.907L99.901,60.254"/>
	<path style="fill:#FFFFFF;" d="M115.443,62.254c1.459,0.188,2.49,1.523,2.302,2.982c-0.188,1.459-1.523,2.49-2.982,2.302
		c-1.459-0.188-2.49-1.523-2.302-2.982C112.648,63.097,113.983,62.067,115.443,62.254"/>
	<path d="M115.443,62.254l-0.035,0.269c1.207,0.155,2.088,1.185,2.087,2.37c0,0.102-0.006,0.205-0.02,0.309
		c-0.155,1.207-1.185,2.087-2.37,2.087c-0.102,0-0.205-0.006-0.309-0.02c-1.207-0.155-2.087-1.185-2.087-2.37
		c0-0.102,0.006-0.205,0.02-0.309c0.155-1.207,1.185-2.088,2.37-2.088c0.102,0,0.205,0.006,0.309,0.02L115.443,62.254l0.035-0.269
		c-0.127-0.016-0.253-0.024-0.378-0.024c-1.455,0-2.716,1.08-2.907,2.56c-0.016,0.127-0.024,0.253-0.024,0.378
		c0,1.455,1.08,2.716,2.56,2.907c0.127,0.016,0.253,0.024,0.378,0.024c1.455,0,2.716-1.08,2.907-2.56
		c0.016-0.127,0.024-0.253,0.024-0.378c0-1.455-1.08-2.716-2.56-2.907L115.443,62.254"/>
	<path style="fill:#379388;" d="M95.934,78.81l4.399-8.214c0.099-0.185,0.158-0.387,0.173-0.596l1.011-13.511l12.081,1.555
		l-6.049,15.798c-0.222,0.579-0.066,1.232,0.394,1.648l10.687,9.671c0.584,0.528,1.479,0.515,2.046-0.031l13.115-12.615
		c0.597-0.574,0.615-1.524,0.041-2.121c-0.574-0.597-1.524-0.616-2.121-0.041l-12.106,11.645l-8.888-8.043l6.363-16.619
		c0.165-0.43,0.123-0.91-0.113-1.306c-0.236-0.396-0.639-0.66-1.096-0.718l-15.541-2.001c-0.409-0.053-0.82,0.065-1.14,0.325
		c-0.319,0.26-0.517,0.64-0.548,1.051L97.539,69.46l-4.249,7.934c-0.391,0.73-0.116,1.639,0.614,2.03
		C94.634,79.815,95.543,79.54,95.934,78.81"/>
	<path style="fill:#379388;" d="M92.054,62.083l-17.754,6.8c-0.946,0.362-2.005,0.276-2.88-0.236l-5.371-3.141
		c-1.139-0.666-0.978-2.359,0.266-2.799l19.084-6.747c0.426-0.151,0.897-0.108,1.289,0.118l5.585,3.214
		C93.404,59.944,93.273,61.616,92.054,62.083"/>
	<path style="fill:#41AFA5;" d="M76.08,65.873h-5.205c-0.639,0-1.157-0.361-1.157-1s0.518-1,1.157-1h5.205
		c0.639,0,1.157,0.361,1.157,1S76.719,65.873,76.08,65.873z"/>
	<path style="fill:#7379A0;" d="M110.113,25.812c-0.539,0-1.079,0.087-1.601,0.262L59.428,42.608
		c-4.094,1.379-4.645,6.944-0.9,9.099l7.172,4.127l41.077-13.837c0.521-0.176,1.062-0.262,1.601-0.262
		c0.886,0,1.767,0.235,2.547,0.695l42.983,25.338l7.958-2.569c4.116-1.329,4.732-6.896,1.006-9.092l-50.213-29.6
		C111.88,26.047,110.999,25.812,110.113,25.812"/>
	<path style="fill:#379893;" d="M108.378,41.735c-0.538,0-1.079,0.087-1.601,0.262L65.7,55.835l7.631,4.391l12.066-4.266
		c0.168-0.059,0.342-0.089,0.516-0.089c0.268,0,0.535,0.07,0.773,0.207l5.585,3.214c1.131,0.651,1,2.324-0.219,2.79l-9.304,3.563
		l12.866,7.404l1.923-3.591l0.313-4.179c-0.751-0.539-1.225-1.418-1.225-2.382c0-0.125,0.008-0.251,0.024-0.378
		c0.129-0.997,0.743-1.812,1.575-2.239l0.419-5.595c0.031-0.411,0.229-0.79,0.548-1.051c0.269-0.22,0.604-0.338,0.947-0.338
		c0.064,0,0.128,0.004,0.192,0.012l15.541,2.001c0.457,0.059,0.86,0.323,1.096,0.718c0.236,0.395,0.278,0.875,0.113,1.306
		l-1.773,4.632c0.056,0.004,0.113,0.01,0.169,0.017v0c1.48,0.191,2.56,1.452,2.56,2.907c0,0.125-0.008,0.251-0.024,0.378
		c-0.191,1.48-1.452,2.56-2.907,2.56c-0.125,0-0.251-0.008-0.378-0.024c-0.54-0.07-1.027-0.282-1.428-0.594l-2.582,6.743
		l6.317,5.716l7.511-2.425l7.167-6.894c0.291-0.28,0.665-0.419,1.04-0.419c0.394,0,0.787,0.154,1.081,0.46
		c0.574,0.597,0.556,1.546-0.041,2.121l-2.733,2.629l22.849-7.376L110.925,42.43C110.145,41.97,109.264,41.735,108.378,41.735"/>
	<path style="fill:#D9DDE3;" d="M98.176,60.945c-0.525,0.373-0.899,0.956-0.988,1.645c-0.013,0.104-0.02,0.207-0.02,0.309
		c0,0.664,0.277,1.28,0.733,1.72L98.176,60.945"/>
	<path d="M98.225,60.282c-0.832,0.426-1.446,1.242-1.575,2.239c-0.016,0.127-0.024,0.253-0.024,0.378
		c0,0.964,0.474,1.843,1.225,2.382l0.05-0.662c-0.456-0.44-0.733-1.056-0.733-1.72c0-0.102,0.007-0.205,0.02-0.309
		c0.088-0.689,0.462-1.272,0.988-1.645L98.225,60.282"/>
	<path style="fill:#379893;" d="M101.517,56.489l-0.298,3.984c0.781,0.535,1.277,1.432,1.277,2.419c0,0.125-0.008,0.251-0.024,0.378
		c-0.132,1.02-0.771,1.849-1.632,2.267L100.507,70c-0.016,0.209-0.075,0.411-0.173,0.596l-2.116,3.951l7.736,4.452
		c1.888,1.087,4.009,1.641,6.144,1.641c0.481,0,0.963-0.028,1.443-0.085l-5.596-5.064c-0.46-0.416-0.616-1.069-0.394-1.648
		l6.049-15.798L101.517,56.489"/>
	<path style="fill:#D9DDE3;" d="M101.171,61.124l-0.281,3.762c0.555-0.371,0.954-0.971,1.045-1.685
		c0.013-0.104,0.02-0.207,0.02-0.309C101.954,62.204,101.657,61.567,101.171,61.124"/>
	<path d="M101.219,60.473l-0.049,0.651c0.486,0.443,0.784,1.079,0.784,1.768c0,0.102-0.007,0.205-0.02,0.309
		c-0.092,0.714-0.49,1.314-1.045,1.685l-0.049,0.651c0.861-0.418,1.5-1.247,1.632-2.267c0.016-0.127,0.024-0.253,0.024-0.378
		C102.496,61.906,102,61.009,101.219,60.473"/>
	<path style="fill:#D9DDE3;" d="M115.443,62.254l-0.035,0.269c-0.102-0.013-0.204-0.02-0.305-0.02l-1.599,4.175
		c0.348,0.313,0.792,0.527,1.292,0.591c0.104,0.013,0.207,0.02,0.309,0.02c1.184,0,2.215-0.881,2.37-2.087
		c0.013-0.104,0.02-0.207,0.02-0.309c0-1.184-0.881-2.215-2.087-2.37L115.443,62.254L115.443,62.254"/>
	<path d="M115.308,61.969l-0.205,0.534c0.1,0,0.202,0.007,0.305,0.02l0.035-0.269l-0.035,0.269c1.207,0.155,2.088,1.185,2.087,2.37
		c0,0.102-0.006,0.205-0.02,0.309c-0.155,1.207-1.185,2.087-2.37,2.087c-0.102,0-0.205-0.006-0.309-0.02
		c-0.5-0.064-0.943-0.278-1.292-0.591l-0.205,0.535c0.401,0.312,0.887,0.524,1.428,0.594c0.127,0.016,0.253,0.024,0.378,0.024
		c1.455,0,2.716-1.08,2.907-2.56c0.016-0.127,0.024-0.253,0.024-0.378c0-1.455-1.08-2.716-2.56-2.907h0
		C115.421,61.978,115.364,61.973,115.308,61.969"/>
	<path style="fill:#2F8079;" d="M132.751,69.935c-0.374,0-0.749,0.139-1.04,0.419l-7.167,6.894l6.513-2.103l2.733-2.629
		c0.597-0.574,0.615-1.524,0.041-2.121C133.538,70.089,133.145,69.935,132.751,69.935 M100.139,53.3
		c-0.343,0-0.678,0.118-0.947,0.338c-0.319,0.26-0.517,0.64-0.548,1.051l-0.419,5.595l-0.05,0.663l-0.275,3.674l-0.05,0.662
		l-0.313,4.179l-1.923,3.591l2.601,1.497l2.116-3.951c0.099-0.185,0.158-0.387,0.173-0.596l0.334-4.463l0.049-0.651l0.281-3.762
		l0.049-0.651l0.298-3.984l12.081,1.555l-6.049,15.798c-0.222,0.579-0.066,1.232,0.394,1.648l5.596,5.064
		c0.789-0.093,1.573-0.263,2.341-0.511l1.154-0.373l-6.317-5.716l2.582-6.743l0.205-0.535l1.599-4.175l0.205-0.534l1.773-4.632
		c0.165-0.43,0.123-0.91-0.113-1.306c-0.236-0.396-0.639-0.66-1.096-0.718l-15.541-2.001C100.267,53.304,100.203,53.3,100.139,53.3"
		/>
	<path style="fill:#2F8079;" d="M85.914,55.872c-0.174,0-0.349,0.029-0.516,0.089l-12.066,4.266l9.418,5.42l9.304-3.563
		c1.219-0.467,1.35-2.139,0.219-2.79l-5.585-3.214C86.449,55.942,86.183,55.872,85.914,55.872"/>
	<path style="fill:#7379A0;" d="M290.851,53.002c-0.538,0-1.079,0.087-1.601,0.262l-49.084,16.534
		c-4.094,1.379-4.645,6.944-0.9,9.099l47.364,27.256c1.913,1.101,4.061,1.663,6.223,1.663c1.288,0,2.581-0.2,3.832-0.603
		l45.919-14.823c4.116-1.329,4.732-6.896,1.006-9.093l-50.213-29.6C292.617,53.237,291.737,53.002,290.851,53.002"/>
	<path style="fill:#50667F;" d="M161.866,59.148l-45.613,14.725c-3.546,1.145-7.411,0.738-10.641-1.121L58.528,45.657
		c-3.744-2.155-3.194-7.72,0.9-9.099l46.334-15.608c3.126-1.053,6.555-0.695,9.396,0.98l47.713,28.127
		C166.599,52.252,165.983,57.82,161.866,59.148z"/>
	<path style="fill:#50667F;" d="M342.604,85.953l-46.441,14.992c-3.019,0.974-6.308,0.628-9.058-0.954l-47.84-27.53
		c-3.744-2.155-3.194-7.72,0.9-9.099l45.829-15.438c3.447-1.161,7.228-0.767,10.362,1.08l47.254,27.856
		C347.336,79.057,346.72,84.624,342.604,85.953z"/>

		<ellipse transform="matrix(0.1277 -0.9918 0.9918 0.1277 32.8838 145.5902)" style="fill:#395066;" cx="99.21" cy="54.101" rx="1.746" ry="2.425"/>

		<ellipse transform="matrix(0.1277 -0.9918 0.9918 0.1277 47.5241 151.5797)" style="fill:#395066;" cx="109.935" cy="48.773" rx="1.746" ry="2.425"/>

		<ellipse transform="matrix(0.1277 -0.9918 0.9918 0.1277 62.1967 152.1843)" style="fill:#395066;" cx="117.614" cy="40.734" rx="1.746" ry="2.425"/>

		<ellipse transform="matrix(0.1277 -0.9918 0.9918 0.1277 57.2225 168.9587)" style="fill:#395066;" cx="124.663" cy="51.949" rx="1.746" ry="2.425"/>

		<ellipse transform="matrix(0.1277 -0.9918 0.9918 0.1277 71.2853 184.9181)" style="fill:#395066;" cx="140.768" cy="51.934" rx="1.746" ry="2.425"/>

		<ellipse transform="matrix(0.1277 -0.9918 0.9918 0.1277 34.031 144.5814)" style="fill:#FBB03B;" cx="99.21" cy="52.944" rx="1.746" ry="2.425"/>

		<ellipse transform="matrix(0.1277 -0.9918 0.9918 0.1277 48.6713 150.5709)" style="fill:#F9886C;" cx="109.935" cy="47.616" rx="1.746" ry="2.425"/>

		<ellipse transform="matrix(0.1277 -0.9918 0.9918 0.1277 63.3438 151.1755)" style="fill:#FBB03B;" cx="117.614" cy="39.577" rx="1.746" ry="2.425"/>

		<ellipse transform="matrix(0.1277 -0.9918 0.9918 0.1277 58.3695 167.9498)" style="fill:#F9886C;" cx="124.663" cy="50.792" rx="1.746" ry="2.425"/>

		<ellipse transform="matrix(0.1277 -0.9918 0.9918 0.1277 72.4323 183.9091)" style="fill:#41AFA5;" cx="140.768" cy="50.777" rx="1.746" ry="2.425"/>
	<path style="fill:#395066;" d="M94.433,39.76l-17.39,6.66c-1.176,0.45-2.493,0.343-3.58-0.293l-5.035-2.944
		c-1.139-0.666-0.978-2.359,0.266-2.799l17.999-6.363c1.115-0.394,2.347-0.282,3.372,0.308l4.588,2.64
		C95.783,37.621,95.652,39.294,94.433,39.76z"/>
	<path style="fill:#395066;" d="M274.758,66.64l-17.642,6.757c-1.017,0.389-2.155,0.296-3.095-0.253l-5.268-3.08
		c-1.139-0.666-0.978-2.359,0.266-2.799l18.308-6.472c0.919-0.325,1.934-0.232,2.779,0.254l4.872,2.804
		C276.108,64.5,275.977,66.173,274.758,66.64z"/>

		<ellipse transform="matrix(0.1277 -0.9918 0.9918 0.1277 24.2388 112.3873)" style="fill:#50667F;" cx="76.011" cy="42.414" rx="1.914" ry="2.664"/>
	<path style="fill:#7379A0;" d="M211.439,74.873h-19.631c-0.699,0-1.267-0.801-1.267-1.5s0.567-1.5,1.267-1.5h19.631
		c0.699,0,1.267,0.801,1.267,1.5S212.139,74.873,211.439,74.873z"/>
	<path style="fill:#7379A0;" d="M203.447,100.873H191.83c-0.916,0-1.66-0.801-1.66-1.5s0.743-1.5,1.66-1.5h10.67v-49h-10.67
		c-0.916,0-1.66-0.801-1.66-1.5s0.743-1.5,1.66-1.5h11.617c0.916,0,2.053,0.836,2.053,1.535v51.928
		C205.5,100.036,204.364,100.873,203.447,100.873z"/>
	<polygon style="fill:#395066;" points="278.888,82.436 283.437,73.943 284.471,60.116 296.63,61.681 291.291,77.549
		303.666,86.096 320.227,79.046 319.052,76.285 304.012,82.688 294.855,76.364 300.639,59.172 281.716,56.736 280.493,73.086
		276.244,81.02 278.888,82.436 	"/>
	<polygon style="fill:#395066;" points="277.318,82.178 290.523,89.32 305.79,85.782 312.184,71.517 309.446,70.29 303.662,83.196
		290.952,86.142 278.745,79.539 277.318,82.178 	"/>

		<ellipse transform="matrix(0.1277 -0.9918 0.9918 0.1277 161.9038 345.7995)" style="fill:#395066;" cx="277.537" cy="80.858" rx="1.746" ry="2.425"/>

		<ellipse transform="matrix(0.1277 -0.9918 0.9918 0.1277 173.3582 342.384)" style="fill:#395066;" cx="281.323" cy="72.639" rx="1.746" ry="2.425"/>
	<path style="fill:#395066;" d="M311.038,69.173c1.328,0.171,2.305,1.085,2.182,2.041c-0.123,0.956-1.3,2.171-2.628,2
		c-1.328-0.171-2.305-1.663-2.182-2.619S309.71,69.002,311.038,69.173z"/>

		<ellipse transform="matrix(0.1277 -0.9918 0.9918 0.1277 188.7908 331.1306)" style="fill:#395066;" cx="282.642" cy="58.239" rx="1.746" ry="2.425"/>

		<ellipse transform="matrix(0.1277 -0.9918 0.9918 0.1277 167.0455 364.6898)" style="fill:#395066;" cx="290.847" cy="87.38" rx="1.746" ry="2.425"/>

		<ellipse transform="matrix(0.1277 -0.9918 0.9918 0.1277 179.3871 357.9041)" style="fill:#395066;" cx="293.16" cy="76.971" rx="1.746" ry="2.425"/>

		<ellipse transform="matrix(0.1277 -0.9918 0.9918 0.1277 182.5934 375.4283)" style="fill:#395066;" cx="304.726" cy="83.911" rx="1.746" ry="2.425"/>
	<path style="fill:#395066;" d="M298.588,59.048c1.328,0.171,2.305,1.085,2.182,2.041c-0.123,0.956-1.3,2.171-2.628,2
		s-2.305-1.663-2.182-2.619C296.083,59.514,297.259,58.877,298.588,59.048z"/>

		<ellipse transform="matrix(0.1277 -0.9918 0.9918 0.1277 199.8004 384.5535)" style="fill:#395066;" cx="318.517" cy="78.691" rx="1.746" ry="2.425"/>

		<ellipse transform="matrix(0.1277 -0.9918 0.9918 0.1277 163.5531 345.3632)" style="fill:#FBB03B;" cx="278.116" cy="79.702" rx="1.746" ry="2.425"/>

		<ellipse transform="matrix(0.1277 -0.9918 0.9918 0.1277 174.5053 341.3751)" style="fill:#F9886C;" cx="281.323" cy="71.482" rx="1.746" ry="2.425"/>

		<ellipse transform="matrix(0.1277 -0.9918 0.9918 0.1277 201.9525 369.1127)" style="fill:#F9886C;" cx="310.815" cy="69.747" rx="1.746" ry="2.425"/>

		<ellipse transform="matrix(0.1277 -0.9918 0.9918 0.1277 189.9379 330.1218)" style="fill:#FBB03B;" cx="282.642" cy="57.082" rx="1.746" ry="2.425"/>

		<ellipse transform="matrix(0.1277 -0.9918 0.9918 0.1277 167.7492 363.878)" style="fill:#FBB03B;" cx="290.738" cy="86.574" rx="1.746" ry="2.425"/>

		<ellipse transform="matrix(0.1277 -0.9918 0.9918 0.1277 183.1669 374.9239)" style="fill:#F9886C;" cx="304.726" cy="83.332" rx="1.746" ry="2.425"/>

		<ellipse transform="matrix(0.1277 -0.9918 0.9918 0.1277 200.56 348.4371)" style="fill:#F9886C;" cx="298.365" cy="60.201" rx="1.746" ry="2.425"/>

		<ellipse transform="matrix(0.1277 -0.9918 0.9918 0.1277 200.9476 383.5446)" style="fill:#41AFA5;" cx="318.517" cy="77.535" rx="1.746" ry="2.425"/>

		<ellipse transform="matrix(0.1277 -0.9918 0.9918 0.1277 180.4702 356.7943)" style="fill:#41AFA5;" cx="293.073" cy="75.8" rx="1.746" ry="2.425"/>
	<circle style="fill:#7379A0;" cx="190.913" cy="73.307" r="3.537"/>
	<circle style="fill:#7379A0;" cx="215.927" cy="73.624" r="4.487"/>
	<circle style="fill:#7379A0;" cx="191.546" cy="99.271" r="3.537"/>
	<circle style="fill:#7379A0;" cx="190.913" cy="47.343" r="3.537"/>
</g>
</svg>