<?xml version="1.0" encoding="utf-8"?>
<!-- Generator: Adobe Illustrator 21.0.0, SVG Export Plug-In . SVG Version: 6.00 Build 0)  -->
<svg version="1.1" id="Layer_1" xmlns="http://www.w3.org/2000/svg" xmlns:xlink="http://www.w3.org/1999/xlink" x="0px" y="0px"
	 width="510px" height="120px" viewBox="0 0 510 120" style="enable-background:new 0 0 510 120;" xml:space="preserve">
<style type="text/css">
	.st0{fill:#607D9C;}
	.st1{fill:#F8C8DA;}
	.st2{fill:#AFDEC5;}
	.st3{fill:#AAB7EF;}
	.st4{fill:#FBCEA6;}
</style>
<path class="st0" d="M508.4,33.9c0,0-21-7.9-33.5-19.6l-43.3,11.5c0,0-15.3-16.6-31.6-25.8c-2.4,69-10,93.6-10,93.6
	c18.2,9,38.1,26.4,38.1,26.4l24.1-18.9l27.1-3.8c0,0,14.6,10.1,30.7,12.6C509.9,109.8,504.7,88,508.4,33.9z M413,75.4
	c-0.9-2.8-1.7-5.9-2.4-9.3l4.1-1.1c0.7,3.2,1.5,6.2,2.3,8.9L413,75.4z M423.3,93.8c-2.2-1.8-4.2-4.4-6-7.9l3.6-2.3
	c1.5,2.9,3.2,5,4.9,6.4L423.3,93.8z M486.7,39.7c-2.5-1.4-4.9-2.2-7.2-2.4l0.2-4.7c2.9,0.2,5.9,1.1,8.9,2.9L486.7,39.7z M499.9,52.4
	c-1.9-2.5-3.8-4.7-5.7-6.6l2.8-3.5c2,2,4,4.4,6.1,7L499.9,52.4z"/>
<path class="st1" d="M404.2,53.4c1.3-2.9,3.2-5.5,5.2-7.6l-4.6-5.7l4.9-3.8l4.2,5.3c2.9-2.3,5.2-3.6,5.4-3.7l1.5,2.7l1.5,2.7
	c-0.1,0-2.1,1.1-4.6,3.1l5,6.2l-4.6,3.9l-4.7-5.8c-1.3,1.6-2.5,3.3-3.4,5.2L404.2,53.4z"/>
<path class="st2" d="M139.4,12.4c6.8-7.6,16.8-12.1,27.4-12.4c21.6-0.6,40.5,16.2,42.2,37.2c0.9,9.4-2.1,18.9-8.3,26.5l6.9,6.9
	l-6,5.9l-7-6.9c-6.3,4.8-14.2,7.5-22.3,7.7c-1.5,0.1-3.1,0-4.6-0.1c-19.6-1.7-36.1-17.5-37.7-37.1C129.2,30.2,132.6,20.3,139.4,12.4
	z M138.9,39.2c1.4,16.7,16.4,30,33.5,29.5c8.1-0.1,15.8-3.6,21-9.4c5.2-5.9,7.7-13.5,7-21c-1.3-15.5-14.3-28-29.9-29.4
	c-1.2-0.1-2.4-0.2-3.7-0.1c-8.1,0.1-15.8,3.6-21,9.4C140.7,24,138.1,31.6,138.9,39.2z"/>
<path class="st0" d="M209.7,72.8l-6.1,5.9c0,0-4.7,7.5,31.6,39.8c2.2,2,5.9,1.9,8-0.1c0-0.1,0.1-0.1,0.1-0.2l2.4-2.4l2.4-2.4
	c2.3-2.3,2.5-5.7,0.5-8.1C217.3,68.3,209.7,72.8,209.7,72.8z"/>
<title>home-studio-illustrations</title>
<path class="st1" d="M431.5,25.7c12.8-9.7,43.3-11.5,43.3-11.5l4.4,83c0,0-26.5,6.8-51.2,22.7"/>
<path class="st0" d="M469.1,35.9l2.3,4c-1.9,1.4-3.8,3.4-5.6,6l-3.3-2.9C464.6,40,466.8,37.6,469.1,35.9z"/>
<path class="st0" d="M457.1,52.7l3.8,2.2c-1.1,2.5-2.3,5.4-3.3,8.5l-3.9-1.7C454.7,58.4,455.9,55.4,457.1,52.7z"/>
<path class="st0" d="M449.9,71.5l3.8,2.1c-1.4,3-2.8,5.9-4.4,8.4l-3.5-2.7C447.2,77.1,448.6,74.4,449.9,71.5z"/>
<path class="st0" d="M439.7,87.4l2.8,3.5c-2.7,2.7-5.4,4.4-8,5.3l-1.1-4.6C435.4,91,437.5,89.6,439.7,87.4z"/>
<path class="st3" d="M3.5,107.8c-3.4,1-4.5,4.5-2.6,6.1c3.2,2.7,7-1,10,0.8c3.1,1.9,4.6,5.8,8.4,5.3c3-0.4,1.8-4.7,4.4-4.2
	C29.9,117,25.9,101.4,3.5,107.8z"/>
<path class="st0" d="M38.2,58.3l9,11.8c0,0,13.7-0.8,24-9.3c9.7-8,43.1-42.4,48.6-56.2c0.4-1.1,0.2-2.4-0.6-3.3
	c-0.7-1-1.9-1.5-3-1.3C102,2.5,62,28.3,52.3,36.3C42,44.8,38.2,58.3,38.2,58.3z"/>
<path class="st0" d="M36.1,91.8c5.9-5,9.8-12.9,8.5-19.6l-9-11.8c-8-2.9-21.1,2.4-22.3,14c-0.2,2.4-0.7,4.8-1.4,7.1
	C17.6,86.8,28.9,89.7,36.1,91.8z"/>
<path class="st3" d="M30.2,88.6c-3.7-0.8-2-5.2-5.8-7.3c-3.1-1.7-9.7,3.6-12-1.6c-2.8,11-9.6,16.4-9.6,16.4s24.7,3,33.2-3.9
	c2.3-1.9,4.3-4.2,5.8-6.7C38,84.9,33.5,89.3,30.2,88.6z"/>
<path class="st0" d="M307.4,77.9l-22.7,22.4c-2,2-2.4,9.5-2.4,9.5l0,0L265,119.9l-2.5-2.8l-2.5-2.8l10.6-17.6l0,0c0,0,7.1-0.1,9.1-2
	l22.6-22.4L307.4,77.9z"/>
<path class="st4" d="M311.5,86.9l-17.4-19.4l5.6-5.6l0,0l0,0c1.2,1.4,3.4,1.4,4.7,0.1l54.8-58.6c4.1-4.4,11-4.3,15,0.2l3.2,3.6
	c3.7,4.2,3.4,10.6-0.7,14.4l-59.6,55.2c-1.3,1.2-1.4,3.2-0.2,4.5l0.2,0.2L311.5,86.9z"/>
<g>
	<path class="st0" d="M317.7,31c0.9-7.5-4.9-24.6-16.9-25.6l-3.7,23L317.7,31z"/>
	<path class="st0" d="M377.3,101.9l-53.4-51.2c-4.4-4.4-7.2-10.6-6.6-16.8l-22.9-3.1l0,0l-4.4-0.6c-2-0.5-3.4-2.1-3.7-4.1l-4-26.1
		c-5.1,0.9-7,2.9-11.1,6.3c-12.4,10.2-13.7,27.8-2.7,39.3c6.4,6.8,13.7,7.9,22.7,7.3c6.1-0.4,12.1,1.8,16.2,6.4l50.9,58
		c1.8,2,4.6,3,7.3,2.5c2.6-0.5,5.8-1.5,8.5-3.6c2.6-2.2,4.1-5,5-7.3C379.9,106.5,379.2,103.8,377.3,101.9z"/>
</g>
<path class="st0" d="M180.6,34.9c0,6-10.9,15.5-10.9,15.5s-10.9-9.5-10.9-15.5s4.9-10.9,11-10.9C175.8,24,180.6,28.9,180.6,34.9z"/>
</svg>
