<?xml version="1.0" encoding="UTF-8" standalone="no"?>
<!-- Generator: Adobe Illustrator 21.0.0, SVG Export Plug-In . SVG Version: 6.00 Build 0)  -->

<svg
   xmlns:dc="http://purl.org/dc/elements/1.1/"
   xmlns:cc="http://creativecommons.org/ns#"
   xmlns:rdf="http://www.w3.org/1999/02/22-rdf-syntax-ns#"
   xmlns:svg="http://www.w3.org/2000/svg"
   xmlns="http://www.w3.org/2000/svg"
   xmlns:sodipodi="http://sodipodi.sourceforge.net/DTD/sodipodi-0.dtd"
   xmlns:inkscape="http://www.inkscape.org/namespaces/inkscape"
   version="1.1"
   id="Layer_1"
   x="0px"
   y="0px"
   width="91"
   height="45"
   viewBox="0 0 91 45"
   xml:space="preserve"
   inkscape:version="0.91 r13725"
   sodipodi:docname="home-studio-manual.svg"><metadata
     id="metadata21"><rdf:RDF><cc:Work
         rdf:about=""><dc:format>image/svg+xml</dc:format><dc:type
           rdf:resource="http://purl.org/dc/dcmitype/StillImage" /><dc:title></dc:title></cc:Work></rdf:RDF></metadata><defs
     id="defs19" /><sodipodi:namedview
     pagecolor="#ffffff"
     bordercolor="#666666"
     borderopacity="1"
     objecttolerance="10"
     gridtolerance="10"
     guidetolerance="10"
     inkscape:pageopacity="0"
     inkscape:pageshadow="2"
     inkscape:window-width="2233"
     inkscape:window-height="1200"
     id="namedview17"
     showgrid="false"
     inkscape:snap-bbox="true"
     inkscape:bbox-paths="true"
     inkscape:bbox-nodes="true"
     inkscape:zoom="1"
     inkscape:cx="-280.16033"
     inkscape:cy="-62.854567"
     inkscape:window-x="0"
     inkscape:window-y="0"
     inkscape:window-maximized="0"
     inkscape:current-layer="Layer_1"><inkscape:grid
       type="xygrid"
       id="grid4149" /></sodipodi:namedview><style
     type="text/css"
     id="style3">
	.st0{fill:#C6D2E1;}
	.st1{fill:#FFFFFF;}
	.st2{fill:#B43B71;}
	.st3{fill:#F4F7FB;}
	.st4{fill:#607D9C;}
</style><circle
     style="fill:#c6d2e1"
     id="circle4153"
     r="22.5"
     cy="22.5"
     cx="68.5"
     class="st0" /><circle
     class="st0"
     cx="22.5"
     cy="22.5"
     r="22.5"
     id="circle5"
     style="fill:#c6d2e1" /><polygon
     class="st1"
     points="1.5,37.5 1.5,30.1 25.7,30.4 25.7,39.7 "
     id="polygon7"
     style="fill:#ffffff" /><path
     class="st2"
     d="M 40.1,18.2 20,16.4 c -0.9,-0.1 -1.8,0.2 -2.6,0.7 L 0.5,28.4 c -0.9,0.7 -0.5,2.1 0.6,2.2 l 21.6,1.8 c 1.1,0.1 2.1,0.9 2.3,2.1 0.3,1.6 -1,3.1 -2.7,2.9 L 2,35.5 c -1,-0.1 -1.9,0.7 -1.9,1.7 0,0 0,0 0,0.1 0,0.9 0.7,1.7 1.6,1.7 l 22,1.8 c 0.9,0.1 1.8,-0.2 2.6,-0.7 L 42,28.1 c 0.9,-0.7 1.4,-1.7 1.4,-2.9 l 0,-1.8 0,-1.6 c 0,-1.9 -1.3,-3.4 -3.3,-3.6 z"
     id="path9"
     inkscape:connector-curvature="0"
     style="fill:#b43b71" /><polygon
     class="st3"
     points="26.9,27.4 26.9,16.2 43.4,7.4 43.4,16.2 "
     id="polygon11"
     style="fill:#f4f7fb" /><polygon
     class="st1"
     points="4.8,25 4.8,17.6 27.9,16.2 27.9,27.4 "
     id="polygon13"
     style="fill:#ffffff" /><path
     class="st4"
     d="m 42.6,14.7 -12.4,9.5 c -0.7,0.5 -1.6,0.8 -2.6,0.7 L 7.9,23.3 C 6.8,23.2 5.8,22.4 5.6,21.2 5.3,19.6 6.6,18.1 8.3,18.3 L 27.6,20 c 0.9,0.1 1.8,-0.2 2.6,-0.7 L 44.4,8.4 C 44.8,8.1 44.9,7.7 45,7.3 l 0,0 C 45,6.6 44.5,6 43.7,5.9 L 24.4,4 C 23.2,3.9 21.9,4.2 20.9,5 L 3.3,16.7 c -0.9,0.7 -1.4,1.7 -1.4,2.9 l 0,3.2 0,0.3 c 0,1.8 1.4,3.5 3.3,3.6 l 22.4,1.9 c 0.9,0.1 1.8,-0.2 2.6,-0.7 L 44.4,17 C 44.7,16.7 45,16.3 45,15.9 l 0,0 C 44.9,14.7 43.6,14 42.6,14.7 Z"
     id="path15"
     inkscape:connector-curvature="0"
     style="fill:#607d9c" /><rect
     style="color:#000000;clip-rule:nonzero;display:inline;overflow:visible;visibility:visible;opacity:1;isolation:auto;mix-blend-mode:normal;color-interpolation:sRGB;color-interpolation-filters:linearRGB;solid-color:#000000;solid-opacity:1;fill:#607d9c;fill-opacity:1;fill-rule:nonzero;stroke:none;stroke-width:4;stroke-linecap:round;stroke-linejoin:round;stroke-miterlimit:4;stroke-dasharray:none;stroke-dashoffset:0;stroke-opacity:1;marker:none;color-rendering:auto;image-rendering:auto;shape-rendering:auto;text-rendering:auto;enable-background:accumulate"
     id="rect4151"
     width="26"
     height="45"
     x="56"
     y="0"
     rx="4"
     ry="4" /><rect
     ry="1"
     rx="1"
     y="6"
     x="59"
     height="31"
     width="20"
     id="rect4155"
     style="color:#000000;clip-rule:nonzero;display:inline;overflow:visible;visibility:visible;opacity:1;isolation:auto;mix-blend-mode:normal;color-interpolation:sRGB;color-interpolation-filters:linearRGB;solid-color:#000000;solid-opacity:1;fill:#ffffff;fill-opacity:1;fill-rule:nonzero;stroke:none;stroke-width:4;stroke-linecap:round;stroke-linejoin:round;stroke-miterlimit:4;stroke-dasharray:none;stroke-dashoffset:0;stroke-opacity:1;marker:none;color-rendering:auto;image-rendering:auto;shape-rendering:auto;text-rendering:auto;enable-background:accumulate" /><circle
     style="color:#000000;clip-rule:nonzero;display:inline;overflow:visible;visibility:visible;opacity:1;isolation:auto;mix-blend-mode:normal;color-interpolation:sRGB;color-interpolation-filters:linearRGB;solid-color:#000000;solid-opacity:1;fill:#c6d2e1;fill-opacity:1;fill-rule:nonzero;stroke:none;stroke-width:4;stroke-linecap:round;stroke-linejoin:round;stroke-miterlimit:4;stroke-dasharray:none;stroke-dashoffset:0;stroke-opacity:1;marker:none;color-rendering:auto;image-rendering:auto;shape-rendering:auto;text-rendering:auto;enable-background:accumulate"
     id="path4157"
     cx="70"
     cy="41"
     r="2" /><rect
     style="color:#000000;clip-rule:nonzero;display:inline;overflow:visible;visibility:visible;opacity:1;isolation:auto;mix-blend-mode:normal;color-interpolation:sRGB;color-interpolation-filters:linearRGB;solid-color:#000000;solid-opacity:1;fill:#c6d2e1;fill-opacity:1;fill-rule:nonzero;stroke:none;stroke-width:4;stroke-linecap:round;stroke-linejoin:round;stroke-miterlimit:4;stroke-dasharray:none;stroke-dashoffset:0;stroke-opacity:1;marker:none;color-rendering:auto;image-rendering:auto;shape-rendering:auto;text-rendering:auto;enable-background:accumulate"
     id="rect4159"
     width="14"
     height="7"
     x="62"
     y="12"
     rx="1"
     ry="1" /><rect
     ry="1"
     rx="1"
     y="6"
     x="59"
     height="3"
     width="20"
     id="rect4161"
     style="color:#000000;clip-rule:nonzero;display:inline;overflow:visible;visibility:visible;opacity:1;isolation:auto;mix-blend-mode:normal;color-interpolation:sRGB;color-interpolation-filters:linearRGB;solid-color:#000000;solid-opacity:1;fill:#c6d2e1;fill-opacity:1;fill-rule:nonzero;stroke:none;stroke-width:4;stroke-linecap:round;stroke-linejoin:round;stroke-miterlimit:4;stroke-dasharray:none;stroke-dashoffset:0;stroke-opacity:1;marker:none;color-rendering:auto;image-rendering:auto;shape-rendering:auto;text-rendering:auto;enable-background:accumulate" /><rect
     style="color:#000000;clip-rule:nonzero;display:inline;overflow:visible;visibility:visible;opacity:1;isolation:auto;mix-blend-mode:normal;color-interpolation:sRGB;color-interpolation-filters:linearRGB;solid-color:#000000;solid-opacity:1;fill:#c6d2e1;fill-opacity:1;fill-rule:nonzero;stroke:none;stroke-width:4;stroke-linecap:round;stroke-linejoin:round;stroke-miterlimit:4;stroke-dasharray:none;stroke-dashoffset:0;stroke-opacity:1;marker:none;color-rendering:auto;image-rendering:auto;shape-rendering:auto;text-rendering:auto;enable-background:accumulate"
     id="rect4163"
     width="20"
     height="1"
     x="59"
     y="8"
     rx="0"
     ry="0" /><rect
     ry="1"
     rx="1"
     y="22"
     x="62"
     height="7"
     width="14"
     id="rect4165"
     style="color:#000000;clip-rule:nonzero;display:inline;overflow:visible;visibility:visible;opacity:1;isolation:auto;mix-blend-mode:normal;color-interpolation:sRGB;color-interpolation-filters:linearRGB;solid-color:#000000;solid-opacity:1;fill:#afdec5;fill-opacity:1;fill-rule:nonzero;stroke:none;stroke-width:4;stroke-linecap:round;stroke-linejoin:round;stroke-miterlimit:4;stroke-dasharray:none;stroke-dashoffset:0;stroke-opacity:1;marker:none;color-rendering:auto;image-rendering:auto;shape-rendering:auto;text-rendering:auto;enable-background:accumulate" /><rect
     style="color:#000000;clip-rule:nonzero;display:inline;overflow:visible;visibility:visible;opacity:1;isolation:auto;mix-blend-mode:normal;color-interpolation:sRGB;color-interpolation-filters:linearRGB;solid-color:#000000;solid-opacity:1;fill:#b43b71;fill-opacity:1;fill-rule:nonzero;stroke:none;stroke-width:4;stroke-linecap:round;stroke-linejoin:round;stroke-miterlimit:4;stroke-dasharray:none;stroke-dashoffset:0;stroke-opacity:1;marker:none;color-rendering:auto;image-rendering:auto;shape-rendering:auto;text-rendering:auto;enable-background:accumulate"
     id="rect4167"
     width="14"
     height="5"
     x="62"
     y="32"
     rx="1"
     ry="1" /><rect
     ry="0"
     rx="0"
     y="34"
     x="62"
     height="3"
     width="14"
     id="rect4169"
     style="color:#000000;clip-rule:nonzero;display:inline;overflow:visible;visibility:visible;opacity:1;isolation:auto;mix-blend-mode:normal;color-interpolation:sRGB;color-interpolation-filters:linearRGB;solid-color:#000000;solid-opacity:1;fill:#b43b71;fill-opacity:1;fill-rule:nonzero;stroke:none;stroke-width:4;stroke-linecap:round;stroke-linejoin:round;stroke-miterlimit:4;stroke-dasharray:none;stroke-dashoffset:0;stroke-opacity:1;marker:none;color-rendering:auto;image-rendering:auto;shape-rendering:auto;text-rendering:auto;enable-background:accumulate" /></svg>