<?xml version="1.0" encoding="utf-8"?>
<!-- Generator: Adobe Illustrator 21.0.0, SVG Export Plug-In . SVG Version: 6.00 Build 0)  -->
<svg version="1.1" id="Layer_1" xmlns="http://www.w3.org/2000/svg" xmlns:xlink="http://www.w3.org/1999/xlink" x="0px" y="0px"
	 width="110px" height="110px" viewBox="0 0 110 110" style="enable-background:new 0 0 110 110;" xml:space="preserve">
<style type="text/css">
	.st0{fill:#EFF2FC;}
	.st1{fill:#4264FB;}
	.st2{fill:#F55B5D;}
	.st3{fill:#44C984;}
	.st4{fill:#DEDB51;}
	.st5{fill:#EE5C96;}
	.st6{fill:#2D4660;}
	.st7{fill:#B43B71;}
</style>
<polygon class="st0" points="105.3,9.3 110,7 105.3,4.7 103,0 100.7,4.7 96,7 100.7,9.3 103,14 "/>
<polygon class="st0" points="9.3,95.3 14,93 9.3,90.7 7,86 4.7,90.7 0,93 4.7,95.3 7,100 "/>
<circle class="st1" cx="55" cy="50" r="50"/>
<path class="st0" d="M14.2,54.3c38.6,30,69.1-26.4,36.2-38.8c-15-5.7-14.2,8.7-25.5-6.4C13.7-5.9-18.1,29.2,14.2,54.3z"/>
<ellipse transform="matrix(0.7435 -0.6688 0.6688 0.7435 -7.1504 15.718)" class="st1" cx="16.9" cy="17.2" rx="3.9" ry="3.9"/>
<path class="st2" d="M49,24c-1.8,1.5-3.9,1.2-5.3-0.4s-1.6-4.4,0.8-5.2C49.4,16.8,50.8,22.5,49,24z"/>
<path class="st3" d="M56.2,40.4c2.2,2.4,3.4,6.2,0.6,8.5c-2.7,2.2-5.9,1.8-8.1-0.6c-2.2-2.4-2.6-4.8,0.2-7.6
	C51.4,38.2,54.1,38,56.2,40.4z"/>
<path class="st4" d="M59,27.6c1.4,2.3,0.3,5.4-1.8,6.6c-2.1,1.3-4.9,0.5-6.3-1.8s-0.6-4.9,1.4-6.2C54.4,24.9,57.6,25.3,59,27.6z"/>
<path class="st5" d="M40.7,47.4c2.8,2.2,4.2,6.2,2.7,9.2s-4.7,3.1-8,1.5c-3.2-1.6-3.9-4.9-2.5-7.9C34.5,47.3,37.8,45.2,40.7,47.4z"
	/>
<path class="st6" d="M80.8,98.4l1.7,0.5c0,0-2.4,7-2.5,7.6c-0.4,1.5-2.1,3.7-2.3,3.6s-0.6-2.8-0.2-4.3c0.2-0.8,1.6-7.8,1.6-7.8
	L80.8,98.4z"/>
<path class="st6" d="M59.4,92.6l-1.7-0.5c0,0-1.5,7.3-1.6,7.8c-0.4,1.5,0,4.2,0.2,4.3c0.2,0.1,1.9-2.1,2.3-3.6
	c0.2-0.8,2.5-7.6,2.5-7.6L59.4,92.6z"/>
<rect x="74.5" y="36.3" transform="matrix(0.261 -0.9653 0.9653 0.261 28.3721 113.2077)" class="st6" width="27.2" height="3.6"/>
<polygon class="st6" points="58.4,85.6 74.9,53.3 84.6,51 61.5,94.7 61.4,94.7 54.9,92.9 57,85.2 "/>
<polygon class="st6" points="85.1,92.8 91.9,57.9 84.6,51 77.9,99.2 78,99.2 84.5,100.9 86.6,93.2 "/>
<path class="st7" d="M98.3,38.3c0.4-1.1-0.1-2.3-1.2-2.9c-1.4-0.7-3.7-1.6-7.7-2.7c-3.9-1.1-6.4-1.4-8-1.5c-1.2-0.1-2.2,0.8-2.4,1.9
	l-4.3,20.2c-0.9,3.2,1,6.5,4.2,7.3l5.5,1.5c3.2,0.9,6.5-1,7.3-4.2L98.3,38.3z"/>
<circle class="st0" cx="85.3" cy="48.4" r="2.5"/>
</svg>
