<svg id="svg2" xmlns="http://www.w3.org/2000/svg" xmlns:xlink="http://www.w3.org/1999/xlink" width="2000" height="100" viewBox="0 0 2000 100">
  <defs>
    <linearGradient id="linear-gradient" x1="476.6109" y1="-28.8336" x2="462.3003" y2="-42.9862" gradientTransform="translate(168 114)" gradientUnits="userSpaceOnUse">
      <stop offset="0" stop-color="#3b97b1"/>
      <stop offset="1" stop-color="#3bb2d0"/>
    </linearGradient>
    <clipPath id="clip-path">
      <circle cx="299.0444" cy="49.7665" r="44.7" style="fill: none"/>
    </clipPath>
    <clipPath id="clip-path-3">
      <path d="M310.9443,79h-20.8c-2,0-3.1444-1.4335-3.1444-3.5335v-9.4c0-.6.0444-1.0665,0.6444-1.0665h25.8c0.6,0,1.5557.4665,1.5557,1.0665v9.4C315,77.5665,312.8444,79,310.9443,79Z" style="fill: none"/>
    </clipPath>
    <clipPath id="clip-path-4">
      <circle cx="179.1444" cy="49.6665" r="44.6" style="fill: none"/>
    </clipPath>
    <clipPath id="clip-path-5">
      <circle cx="58.9443" cy="49.6665" r="44.6" style="fill: none"/>
    </clipPath>
    <clipPath id="clip-path-7">
      <path d="M74,71.9665c-1,.8-5.4,6.5-13.4,6.5-8.1.1-12.6-5.8-13.6-6.5V63H74v8.9665Z" style="fill: none"/>
    </clipPath>
    <clipPath id="clip-path-8">
      <path d="M190.9443,79h-20.8c-2,0-3.1444-1.4335-3.1444-3.5335v-9.4c0-.6.0444-1.0665,0.6444-1.0665h25.8c0.6,0,1.5557.4665,1.5557,1.0665v9.4C195,77.5665,192.8444,79,190.9443,79Z" style="fill: none"/>
    </clipPath>
    <clipPath id="clip-path-9">
      <path d="M546.7443,76.4665a17.9678,17.9678,0,0,1-14.7,2.3c-7.8-2.3-10.8-9.3-11.2-10.3l2.6-8.4,25.8,8Z" style="fill: none"/>
    </clipPath>
    <clipPath id="clip-path-10">
      <path d="M1266.3816,76.4665a17.9678,17.9678,0,0,1-14.7,2.3c-7.8-2.3-10.8-9.3-11.2-10.3l2.6-8.4,25.8,8Z" style="fill: none"/>
    </clipPath>
    <clipPath id="clip-path-11">
      <path d="M1378,5a45,45,0,1,1-45,45h0a45,45,0,0,1,45-45" style="fill: none"/>
    </clipPath>
    <clipPath id="clip-path-12">
      <path d="M1500,5a45,45,0,1,1-45,45h0a45,45,0,0,1,45-45" style="fill: none"/>
    </clipPath>
  </defs>
  <title>modal-illustration-sprite</title>
  <path d="M1500,5a45,45,0,1,1-45,45h0a45,45,0,0,1,45-45" style="fill: #56b881"/>
  <path d="M1378,5a45,45,0,1,1-45,45h0a45,45,0,0,1,45-45" style="fill: #3887be"/>
  <rect x="1615" y="24" width="13" height="13" rx="6.2505" ry="6.2505" style="fill: #465a6d"/>
  <circle id="circle4890" cx="540.0444" cy="49.7665" r="44.7" style="fill: #eee"/>
  <path id="path4895" d="M546.9443,26.0665c-14.5-3.9-28.2,4.9-32.9,22.2l-8.1,30.3a44.8347,44.8347,0,0,0,51.6,12.3l7.7-28.9c4.7-17.3-3.8-32-18.3-35.9h0Z" style="fill: #3bb2d0"/>
  <path id="path476-4" d="M1036.4117,82H999.6853C996.7656,82,995,79.4718,995,76.5521V25.3042C995,22.4614,996.7656,20,999.6853,20h27.8136L1044,36.2914v38.34A7.7053,7.7053,0,0,1,1036.4818,82h-0.07Z" style="fill: #dbdbdb"/>
  <circle id="SVGID" cx="660.0444" cy="49.7665" r="44.7" style="fill: #eee"/>
  <path id="path5365" d="M661,25.0665c-15,0-26,12-26,30v31.4c8,5.2,16.4,8,25.5,8a44.5429,44.5429,0,0,0,27.5-9.5v-29.9C688,37.0665,676,25.0665,661,25.0665Z" style="fill: #3bb2d0"/>
  <path id="path476" d="M917.5992,82H880.6777C877.7425,82,876,79.46,876,76.5248v-51.52C876,22.1467,877.7425,20,880.6777,20h27.9614L925,36.4364V74.5937A7.5421,7.5421,0,0,1,917.6693,82h-0.07Z" style="fill: #dbdbdb"/>
  <path id="path482" d="M918,57.8534A6.8784,6.8784,0,0,0,911.3571,51h-0.5407c-0.85-5-4.4027-7.8225-8.8828-7.8225a9.1175,9.1175,0,0,0-7.6469,4.3536,9.728,9.728,0,0,0-1.5448-.1018,8.6774,8.6774,0,0,0-8.7289,8.6256q-0.0005.0838,0.0006,0.1676c0,0.309-.0772,2.1549,0,3.6225,0.0772,1.0814.6952,2.1549,1.6993,2.1549h29.97a2.4176,2.4176,0,0,0,2.24-2.1119L918,57.8533h0Z" style="fill: #f9f9f9"/>
  <g id="rect486">
    <rect x="898" y="52" width="6" height="10" style="fill: #bcbcbc"/>
    <rect x="898" y="52" width="6" height="10" style="fill: #dbdbdb"/>
  </g>
  <path id="path488" d="M894.8274,54.792l5.5614-5.5861a0.8041,0.8041,0,0,1,1.2358.0263l5.5614,5.5467A0.7209,0.7209,0,0,1,906.568,56H895.4452A0.7079,0.7079,0,0,1,894.8274,54.792Z" style="fill: #dbdbdb"/>
  <path id="path4560" d="M1015.513,39A1.3438,1.3438,0,0,0,1014,40.5941v1.46A3.2285,3.2285,0,0,0,1012.5165,42h-0.922A1.35,1.35,0,0,0,1010,43.4369V53.7326c0,0.9988.5957,2.2674,1.5945,2.2674h0.922a1.6228,1.6228,0,0,1,2.9965,0h0.5378a2.0551,2.0551,0,0,0,1.6135-1.1525A1.85,1.85,0,0,0,1019.2778,56h0.5378a2.0551,2.0551,0,0,0,1.6135-1.1525A1.85,1.85,0,0,0,1023.0425,56h0.5378a1.7556,1.7556,0,0,0,1.5367-1.0757,1.6514,1.6514,0,0,0,1.46,1.0757h0.8451c0.922,0,1.578-1.1917,1.578-2.2674V43.2064c0-.9988-0.5791-1.2064-1.578-1.2064h-0.8451A2.6682,2.6682,0,0,0,1025,41.8234V40.5941c0-1.0757-.344-1.5941-1.42-1.5941h-0.5378a2.0551,2.0551,0,0,0-1.6135,1.1525A1.85,1.85,0,0,0,1019.8156,39h-0.5378a2.0551,2.0551,0,0,0-1.6135,1.1525A1.85,1.85,0,0,0,1016.0508,39h-0.5378Z" style="fill: #fcfcfc"/>
  <path id="path4191" d="M1019.7389,69h-0.461c-1.7672,0-3.2779-.9-3.2779-2.5131v-8.99c0-1.6135,1.5875-2.4974,3.2779-2.4974h0.461c1.7672,0,3.2611.8839,3.2611,2.4974v8.99C1023,68.1,1021.5761,69,1019.809,69h-0.07Z" style="fill: #bcbcbc"/>
  <path id="path4193" d="M1026.8843,59h-15.213A1.9626,1.9626,0,0,1,1010,56.96V56.499A1.4934,1.4934,0,0,1,1011.6713,55h15.213c0.9989,0,2.1157.5766,2.1157,1.4986V56.96A2.376,2.376,0,0,1,1026.8843,59Z" style="fill: #bcbcbc"/>
  <path id="path4195" d="M1029.2661,56H1009.52a2.0013,2.0013,0,1,1-.1442-4q0.0721-.0026.1442,0h19.7461a2.0013,2.0013,0,0,1,.1443,4Q1029.3383,56.0026,1029.2661,56Z" style="fill: #bcbcbc"/>
  <path id="line540" d="M650.3443,48.3666l6.9,0.1" style="fill: none"/>
  <path id="path544" d="M635.5444,56.4665a19.6968,19.6968,0,0,0-9.4,4.5c-3.9,3.4-6.3,7.9-6.3,12.5-0.1,8.1,7,17.1,18,18a8.6514,8.6514,0,0,0,1.7.7l2.3278,0.5c3.2,0.7,6.1278-1.4,7.1278-4.6v-0.2c1-3.3-1.4278-6.5-4.6278-7.2l-2.3139-.5a6.1355,6.1355,0,0,0-6.1069,2.3c-5.3-1.4-8.4035-5.8-8.3035-9,0-1.9,1.5982-4.2,3.5982-5.9a8.7989,8.7989,0,0,1,4.1991-2.2l0.0991-8.9h0Z" style="fill: url(#linear-gradient)"/>
  <path id="path528" d="M679.8443,59.0665a15.1863,15.1863,0,0,1-14.7,15,15.34,15.34,0,0,1-15.5-15,1.72,1.72,0,0,1,2.2-1.6,45.9915,45.9915,0,0,0,12.8,2.1,39.9876,39.9876,0,0,0,13-2.1A1.72,1.72,0,0,1,679.8443,59.0665Z" style="fill: #e6e6e6"/>
  <path id="path548" d="M651.5444,63h36.5A5.0464,5.0464,0,0,1,693,67.7858V90H648V67.7858C648,65.164,649.1444,63,651.5444,63Z" style="fill: #3a5a6d"/>
  <path id="path552" d="M689.6444,95h-42.6c-1.6,0-2.0444-1.4335-2.0444-2.9335V89h48v3.2665C693,93.7665,691.2443,95,689.6444,95Z" style="fill: #4a677d"/>
  <path id="path556" d="M665,73V83h2V75.6665l3,4.7,3-4.7V83h2V73h-2.1556a1.71,1.71,0,0,0-1.7.8333l-1.6,2.5166-1.6-2.525a1.7049,1.7049,0,0,0-1.7-.825H665Z" style="fill: #688ba0"/>
  <circle id="SVGID-2" cx="299.0444" cy="49.7665" r="44.7" style="fill: #eee"/>
  <g style="clip-path: url(#clip-path)">
    <path id="path4252" d="M260.9443,99.0665l-7.6-2.4a46.9082,46.9082,0,0,1,30.5-30.6l2.4,7.6a39.4389,39.4389,0,0,0-15.5,9.3,38.312,38.312,0,0,0-9.8,16.1h0Z" style="fill: #3bb2d0"/>
  </g>
  <g style="clip-path: url(#clip-path)">
    <path id="path4260" d="M351.7443,104.7665a35.2246,35.2246,0,0,0-12.2-19.7c-8.3-6.8-18.7-9.6-26-10.7l1.2-7.9c8.3,1.3,20.2,4.4,29.9,12.4a44.5245,44.5245,0,0,1,7.6,7.9,41.2986,41.2986,0,0,1,7.4,16.2l-7.9,1.8h0Z" style="fill: #3bb2d0"/>
  </g>
  <path id="SVGID_9_-1" data-name="SVGID 9 -1" d="M300,25.0665c-15,0-26,12-26,30v31.4c8,5.2,16.4,8,25.5,8a44.5429,44.5429,0,0,0,27.5-9.5v-29.9C327,37.0665,315,25.0665,300,25.0665Z" style="fill: #3bb2d0"/>
  <path id="SVGID-3" d="M310.9443,79h-20.8c-2,0-3.1444-1.5335-3.1444-3.5335v-9.3c0-.6.0444-1.1665,0.6444-1.1665h25.8A1.6553,1.6553,0,0,1,315,66.1665v9.3C315,77.4665,312.8444,79,310.9443,79Z" style="fill: #50667f"/>
  <g style="clip-path: url(#clip-path-3)">
    <path id="path4319" d="M282.9443,76.5665c0.4-2.2,5.4-4,9.1-2.9,3,0.8,3.3,2.9,6.3,3.3,3.2,0.5,4.3-1.8,8.2-2.3,4.2-.6,9.4,1.2,9.8,3.6,0.6,2.8-5.3,7.5-11.3,8.7-10.9,2.1-22.9-6.7-22.1-10.4h0Z" style="fill: #61859b"/>
  </g>
  <path id="path4327" d="M307.1444,70h-3.3c-0.7,0-.8444-0.5335-0.8444-1.3335V65h6v3.6665C309,69.4665,307.8444,70,307.1444,70Z" style="fill: #f2f2f2"/>
  <path id="path4884" d="M298.1444,70h-3.3c-0.7,0-.8444-0.5335-0.8444-1.3335V65h6v3.6665C300,69.4665,298.8444,70,298.1444,70Z" style="fill: #f2f2f2"/>
  <path id="path4331" d="M290.7443,62.5665c-0.4,1.6-1.9,3.7-4,3.7s-3.6-2.2-4-3.7c-0.9-3.1,3.8-7.1,3.8-7.1C286.4443,55.5665,291.5444,59.3666,290.7443,62.5665Z" style="fill: #c4f1f2"/>
  <path id="path4342" d="M552.5444,80.2665l-2.9-7.4c5.2-2,10.3-4.2,15.2-6.6,10.3-4.8,13.5-7.2,15.9-9.2l5,6.2c-3.4,2.8-7.5,5.5-17.6,10.2-5,2.4-10.3,4.7-15.6,6.8h0Z" style="fill: #3bb2d0"/>
  <path id="path4350" d="M515.6444,70.7665c-3.1-4.8-6.2-9.7-9-14.6-5.5-9.6-7.3-14.2-8.5-18.5a55.2539,55.2539,0,0,1-1.6-8.1l7.9-1a57.7884,57.7884,0,0,0,1.4,7c0.8,3,2.1,6.8,7.7,16.6q4.05,7.2,8.7,14.1l-6.6,4.5h0Z" style="fill: #3bb2d0"/>
  <path id="path4903" d="M579.6444,57.8666a2.01,2.01,0,0,1-1.3-.4,2.4588,2.4588,0,0,1-.8116-3.3812l0.0116-.0188,2.8-4.4a2.47,2.47,0,0,1,4.2312,2.55l-0.0312.05-2.8,4.4a2.4667,2.4667,0,0,1-2.1,1.2h0Z" style="fill: #3bb2d0"/>
  <path id="path4901" d="M583.5444,68.0665a2.3544,2.3544,0,0,1-1.8-1.9,2.4776,2.4776,0,0,1,1.9-2.9l5-1.1a2.4515,2.4515,0,1,1,1,4.8l-5,1.1a2.0452,2.0452,0,0,1-1.1,0h0Z" style="fill: #3bb2d0"/>
  <path id="path4402" d="M582.0444,64.0665a2.3976,2.3976,0,0,1-2.2-1.4,2.4816,2.4816,0,0,1,1.1-3.3l12.1-5.9a2.46,2.46,0,0,1,2.2,4.4l-12.1,5.9A1.5477,1.5477,0,0,1,582.0444,64.0665Z" style="fill: #3bb2d0"/>
  <path id="path4404" d="M580.6444,61.3666a2.3976,2.3976,0,0,1-2.2-1.4,2.4816,2.4816,0,0,1,1.1-3.3l10.2-5a2.46,2.46,0,0,1,2.2,4.4l-10.2,5a2.0157,2.0157,0,0,1-1.1.3h0Zm2.8,5.5a2.3976,2.3976,0,0,1-2.2-1.4,2.4816,2.4816,0,0,1,1.1-3.3l9.3-4.5a2.46,2.46,0,0,1,2.2,4.4l-9.3,4.5a2.6071,2.6071,0,0,1-1.1.3h0Z" style="fill: #3bb2d0"/>
  <path id="path4406" d="M578.3444,53.3666a8.5046,8.5046,0,0,0,6.7,14.7,16.2691,16.2691,0,0,1,2.3-1.1l-7.1-14.5C579.6444,52.7665,578.9443,53.0665,578.3444,53.3666Z" style="fill: #3bb2d0"/>
  <path id="path4909" d="M505.2443,31.2665a2.5587,2.5587,0,0,1-2.5-2.6l0.3-5.2a2.502,2.502,0,0,1,5,.2l-0.3,5.2A2.5189,2.5189,0,0,1,505.2443,31.2665Z" style="fill: #3bb2d0"/>
  <path id="path4907" d="M496.1444,37.2665a2.6126,2.6126,0,0,1-2.5-.7l-3.6-3.7a2.4759,2.4759,0,1,1,3.5885-3.4122l0.0115,0.0122,3.6,3.7a2.4165,2.4165,0,0,1-.0126,3.4174q-0.0427.0424-.0874,0.0826a2.0746,2.0746,0,0,1-1,.6h0Z" style="fill: #3bb2d0"/>
  <path id="path4410" d="M499.6444,35.2665a2.6061,2.6061,0,0,1-2.2-1.3l-6.5-11.8a2.506,2.506,0,0,1,4.4-2.4l6.5,11.8a2.5,2.5,0,0,1-.9895,3.3943l-0.0105.0057A2.6626,2.6626,0,0,1,499.6444,35.2665Z" style="fill: #3bb2d0"/>
  <path id="path4412" d="M502.3444,33.7665a2.6061,2.6061,0,0,1-2.2-1.3l-5.5-10a2.506,2.506,0,0,1,4.4-2.4l5.5,10a2.5,2.5,0,0,1-.9895,3.3943l-0.0105.0057A2.6628,2.6628,0,0,1,502.3444,33.7665Zm-5.4,3a2.6061,2.6061,0,0,1-2.2-1.3l-5-9a2.506,2.506,0,0,1,4.4-2.4l5,9a2.5,2.5,0,0,1-.9895,3.3943l-0.0105.0057a2.6626,2.6626,0,0,1-1.2.3h0Z" style="fill: #3bb2d0"/>
  <path id="path4414" d="M507.4443,28.1665a8.4777,8.4777,0,0,1-3.9,9.1,8.6051,8.6051,0,0,1-10-.9c-0.9-1.7-.3-0.5-1.2-2.2l14.1-7.8a16.1911,16.1911,0,0,0,1,1.8h0Z" style="fill: #3bb2d0"/>
  <circle id="SVGID-4" cx="179.1444" cy="49.6665" r="44.6" style="fill: #eee"/>
  <g style="clip-path: url(#clip-path-4)">
    <path id="path4436" d="M141.1444,98.8666l-7.6-2.4a47.0406,47.0406,0,0,1,30.5-30.5l2.4,7.6a38.526,38.526,0,0,0-15.4,9.3A36.8773,36.8773,0,0,0,141.1444,98.8666Z" style="fill: #3bb2d0"/>
  </g>
  <path id="path4476" d="M206.3444,62.6665c1.7,0.1,3,.3,4.5-0.3,3.1-1.4,5.3-5.6,6.6-12.1l7.9,1.5c-1.8,9.3-5.5,15.3-11.1,17.9a19.15,19.15,0,0,1-8,1.1Z" style="fill: #3bb2d0"/>
  <path id="path4491" d="M222.7443,44.5682l-2.9,21.9026a1.01,1.01,0,0,1-1.1.894l-3.9-.67a1.1,1.1,0,0,1-.8-1.2292l2.9-21.9026a1.01,1.01,0,0,1,1.1-.894l3.9,0.67A1.1736,1.1736,0,0,1,222.7443,44.5682Z" style="fill: #50667f"/>
  <circle id="circle4495" cx="221.8444" cy="27.4665" r="18.1" style="fill: #50667f"/>
  <path id="path4497" d="M222.4083,31.0876l-2.481-.43a0.8485,0.8485,0,0,1-.6575-0.8353l0.2149-9.9022a0.8925,0.8925,0,0,1,.9305-0.8528l0.0151,0.0008,4.8674,0.7539a0.82,0.82,0,0,1,.6419,1.1349l-2.696,9.4731a0.6288,0.6288,0,0,1-.8353.6575h0Z" style="fill: #f9886c"/>
  <circle id="circle4499" cx="220.5871" cy="35.2987" r="2.4" transform="translate(173.8734 253.7535) rotate(-87.0213)" style="fill: #f9886c"/>
  <path id="path4503" d="M218.6722,59.9665l-2.1361-.4a5.813,5.813,0,0,1-4.6282-6.7942q0.0388-.2045.0921-0.4058v-0.2c1-3.2,3.7722-5.3,7.0722-4.6l2.2639,0.4c3.2,0.7,5.6639,3.9,4.6639,7.2v0.2A6.3613,6.3613,0,0,1,218.6722,59.9665Z" style="fill: #3bb2d0"/>
  <path id="path5307" d="M180,25.0665c-15,0-26,12-26,30v31.4c8,5.2,16.4,8,25.5,8a44.5429,44.5429,0,0,0,27.5-9.5v-29.9C207,37.0665,195,25.0665,180,25.0665Z" style="fill: #3bb2d0"/>
  <circle id="SVGID-5" cx="58.9443" cy="49.6665" r="44.6" style="fill: #eee"/>
  <g style="clip-path: url(#clip-path-5)">
    <path id="path4514" d="M69.8444,80.8666l-4-6.9a126.3582,126.3582,0,0,0,23.8-17.2,24.6659,24.6659,0,0,0,4.3-5,27.0869,27.0869,0,0,0,4-15.1l8-.1a34.6746,34.6746,0,0,1-5.2,19.6,28.8633,28.8633,0,0,1-5.6,6.5,137.8629,137.8629,0,0,1-25.3,18.2h0Z" style="fill: #3bb2d0"/>
  </g>
  <g style="clip-path: url(#clip-path-5)">
    <path id="path4522" d="M20.9443,98.8666l-7.6-2.4a47.3649,47.3649,0,0,1,11.9-19.4,46.6808,46.6808,0,0,1,18.6-11.2l2.4,7.6A39.1027,39.1027,0,0,0,20.9443,98.8666Z" style="fill: #3bb2d0"/>
  </g>
  <path id="path5307-2" d="M60,25.0665c-15,0-26,12-26,30v31.4c8,5.2,16.4,8,25.5,8a44.5429,44.5429,0,0,0,27.5-9.5v-29.9C87,37.0665,75,25.0665,60,25.0665Z" style="fill: #3bb2d0"/>
  <path id="SVGID-6" d="M74,71.9665c-1,.8-5.4,6.5-13.4,6.5-8.1.1-12.6-5.8-13.6-6.5V63H74v8.9665Z" style="fill: #50667f"/>
  <g style="clip-path: url(#clip-path-7)">
    <ellipse id="ellipse4573" cx="61.0444" cy="80.3665" rx="10" ry="6.9" style="fill: #688ba0"/>
  </g>
  <path id="path4577" d="M94.9443,45.3666a2.5548,2.5548,0,0,1-1.8-1.7l-1.6-4.9a2.53,2.53,0,0,1,4.8-1.6l1.6,4.9a2.6236,2.6236,0,0,1-1.6,3.2,2.2939,2.2939,0,0,1-1.4.1h0Zm10.8,2.3a2.4385,2.4385,0,0,1-1.8173-2.9309q0.0081-.0347.0173-0.0691l1.2-4.9a2.4385,2.4385,0,0,1,2.9309-1.8173q0.0347,0.0081.0691,0.0173a2.4835,2.4835,0,0,1,1.8,3l-1.2,4.9a2.4677,2.4677,0,0,1-2.9881,1.8028l-0.0118-.0029h0Z" style="fill: #3bb2d0"/>
  <path id="path4579" d="M100.9443,46.4665a2.4385,2.4385,0,0,1-1.8173-2.9309q0.0081-.0347.0173-0.0691l3.1-12.6a2.4385,2.4385,0,0,1,2.9309-1.8173q0.0347,0.0081.0691,0.0173a2.4835,2.4835,0,0,1,1.8,3l-3.1,12.6A2.5164,2.5164,0,0,1,100.9443,46.4665Z" style="fill: #3bb2d0"/>
  <path id="path4581" d="M97.9443,45.7665a2.4385,2.4385,0,0,1-1.8173-2.9309q0.0081-.0347.0173-0.0691l2.6-10.7a2.4385,2.4385,0,0,1,2.9309-1.8173q0.0347,0.0081.0691,0.0173a2.4835,2.4835,0,0,1,1.8,3l-2.6,10.7a2.4677,2.4677,0,0,1-2.988,1.803Zm5.9,1.4a2.4385,2.4385,0,0,1-1.8173-2.9309q0.0081-.0347.0173-0.0691l2.4-9.7a2.4385,2.4385,0,0,1,2.9309-1.8173q0.0347,0.0081.0691,0.0173a2.4835,2.4835,0,0,1,1.8,3l-2.4,9.7a2.5164,2.5164,0,0,1-3,1.8h0Z" style="fill: #3bb2d0"/>
  <path id="path4583" d="M92.8444,42.9665a8.5751,8.5751,0,0,0,6.1,7.7,8.4518,8.4518,0,0,0,9.3-3.4c0.5-1.9.1-.6,0.6-2.4l-15.5-3.8c-0.2.6-.3,1.2-0.5,1.9h0Z" style="fill: #3bb2d0"/>
  <circle id="circle5078" cx="654.0444" cy="50.5665" r="2.5" style="fill: #50667f"/>
  <circle id="circle5080" cx="676.0444" cy="50.5665" r="2.5" style="fill: #50667f"/>
  <path id="line337" d="M409.3444,51.3666l6.9,0.1" style="fill: none"/>
  <circle id="SVGID-7" cx="420.0444" cy="49.7665" r="44.7" style="fill: #eee"/>
  <path id="path353" d="M447,89H394V55.0665c0-18,11-30,26-30s27,12,27,30V89Z" style="fill: #3bb2d0"/>
  <path id="path395" d="M388.8722,67.0665a15.7628,15.7628,0,0,0-6.3139,11.7c-0.1,7.7,7.243,16.3,18.543,16.8l0.3715-8c-6.9-.3-10.7864-5.3-10.6864-8.7a8.4146,8.4146,0,0,1,3.2136-5.9v-9a34.7536,34.7536,0,0,0-5.1278,3.1h0Z" style="fill: #3bb2d0"/>
  <path id="path397" d="M455.7722,72.0665c-2.1-4-4.7722-6.6-8.7722-8v9c1,0.8,1.2722,1.9,1.8722,2.9,1.2,1.9,1.6861,4.9.5861,6.8-1.7,2.9-7.457,4.4-13.757,1.7l-3.1285,7.4a23.9078,23.9078,0,0,0,9.5857,2c6.1,0,11.5068-2.4,14.2068-7,3.1-5.2,1.6068-11.8-.5932-14.8h0Z" style="fill: #3bb2d0"/>
  <path id="path365" d="M398,75V68.4665c0-4.7,3.0444-8.4665,7.4444-8.4665h29.2A8.5366,8.5366,0,0,1,443,68.4665V75H398Z" style="fill: #3a5a6d"/>
  <path id="path367" d="M438.2443,94h-36.4a3.7921,3.7921,0,0,1-3.8516-3.7317q-0.0024-.151.0073-0.3018V74h45V89.8665c0,2.4-2.2855,4.1335-4.6856,4.1335h-0.07Z" style="fill: #4a677d"/>
  <path id="path371" d="M425.2443,89h-11.4c-1.3,0-1.8443-.9335-1.8443-2.1334v-6.6c0-1.2.5443-2.2665,1.8443-2.2665h11.4c1.3,0,2.7557,1.0665,2.7557,2.2665v6.6C428,88.0665,426.5444,89,425.2443,89Z" style="fill: #8a8acb"/>
  <circle id="circle375" cx="419.5444" cy="83.0665" r="2" style="fill: #7171a5"/>
  <path id="path389" d="M442.4443,95.3666l-1.9,1.3a6.0736,6.0736,0,0,1-8.4-1.5l-0.2-.2a6.0735,6.0735,0,0,1,1.5-8.4l1.9-1.3a6.0736,6.0736,0,0,1,8.4,1.5l0.2,0.2A6.0571,6.0571,0,0,1,442.4443,95.3666Z" style="fill: #3bb2d0"/>
  <path id="path393" d="M400.8444,97.2665l-2.1-1.1a6.0614,6.0614,0,0,1-2.6-8.1l0.1-.2a6.0614,6.0614,0,0,1,8.1-2.6l2.1,1.1a6.0614,6.0614,0,0,1,2.6,8.1l-0.1.2a6.0025,6.0025,0,0,1-8.077,2.6118Z" style="fill: #3bb2d0"/>
  <circle id="circle4832-6-3" cx="288.9443" cy="50.5665" r="2.5" style="fill: #50667f"/>
  <circle id="circle4878" cx="311.9443" cy="50.5665" r="2.5" style="fill: #50667f"/>
  <circle id="circle4880" cx="169.0444" cy="50.5665" r="2.5" style="fill: #50667f"/>
  <circle id="circle4882" cx="192.0444" cy="50.5665" r="2.5" style="fill: #50667f"/>
  <path id="path4888" d="M190.9443,79h-20.8c-2,0-3.1444-1.5335-3.1444-3.5335v-9.3c0-.6.0444-1.1665,0.6444-1.1665h25.8A1.6553,1.6553,0,0,1,195,66.1665v9.3C195,77.4665,192.8444,79,190.9443,79Z" style="fill: #4a677d"/>
  <g style="clip-path: url(#clip-path-8)">
    <path id="path4898" d="M162.9443,76.5665c0.4-2.2,5.4-4,9.1-2.9,3,0.8,3.3,2.9,6.3,3.3,3.2,0.5,4.3-1.8,8.2-2.3,4.2-.6,9.4,1.2,9.8,3.6,0.6,2.8-5.3,7.5-11.3,8.7-10.9,2.1-22.9-6.7-22.1-10.4h0Z" style="fill: #61859b"/>
  </g>
  <path id="path4902" d="M187.1444,70h-3.3c-0.7,0-.8444-0.5335-0.8444-1.3335V65h6v3.6665C189,69.4665,187.8444,70,187.1444,70Z" style="fill: #f2f2f2"/>
  <path id="path4904" d="M178.1444,70h-3.3c-0.7,0-.8444-0.5335-0.8444-1.3335V65h6v3.6665C180,69.4665,178.8444,70,178.1444,70Z" style="fill: #f2f2f2"/>
  <circle id="circle4956" cx="49.0444" cy="50.5665" r="2.5" style="fill: #50667f"/>
  <circle id="circle4958" cx="71.0444" cy="50.5665" r="2.5" style="fill: #50667f"/>
  <path id="path5150" d="M546.8444,76.1665a18.0166,18.0166,0,0,1-14.7,2.5c-7.8-2.2-10.9-9.2-11.3-10.1l2.5-8.4,25.9,7.6Z" style="fill: #4a677d"/>
  <g style="clip-path: url(#clip-path-9)">
    <path id="ellipse5160" d="M531.6444,70.9665c4.5-.2,7.7,4,7.3,9.4s-4.4,9.9-8.9,10.1-7.7-4-7.3-9.4C523.2443,75.6665,527.2443,71.1665,531.6444,70.9665Z" style="fill: #688ba0"/>
  </g>
  <path id="circle5164" d="M531.3444,49.2665a2.5269,2.5269,0,0,1-3.1,1.7h0a2.5,2.5,0,1,1,1.4-4.8h0A2.527,2.527,0,0,1,531.3444,49.2665Z" style="fill: #4a677d"/>
  <circle id="circle5166" cx="550.5444" cy="54.6665" r="2.5" style="fill: #4a677d"/>
  <circle id="circle4890-2" data-name="circle4890" cx="1259.6816" cy="49.7665" r="44.7" style="fill: #eee"/>
  <path id="path4895-2" data-name="path4895" d="M1266.5815,26.0665c-14.5-3.9-28.2,4.9-32.9,22.2l-8.1,30.3a44.8347,44.8347,0,0,0,51.6,12.3l7.7-28.9c4.7-17.3-3.8-32-18.3-35.9h0Z" style="fill: #3bb2d0"/>
  <path id="path4342-2" data-name="path4342" d="M1272.1816,80.2665l-2.9-7.4c5.2-2,10.3-4.2,15.2-6.6,10.3-4.8,13.5-7.2,15.9-9.2l5,6.2c-3.4,2.8-7.5,5.5-17.6,10.2-5,2.4-10.3,4.7-15.6,6.8h0Z" style="fill: #3bb2d0"/>
  <path id="path4350-2" data-name="path4350" d="M1235.2817,70.7665c-3.1-4.8-6.2-9.7-9-14.6-5.5-9.6-7.3-14.2-8.5-18.5a55.2538,55.2538,0,0,1-1.6-8.1l7.9-1a57.7882,57.7882,0,0,0,1.4,7c0.8,3,2.1,6.8,7.7,16.6q4.05,7.2,8.7,14.1l-6.6,4.5h0Z" style="fill: #3bb2d0"/>
  <path id="path4903-2" data-name="path4903" d="M1299.2817,57.8666a2.01,2.01,0,0,1-1.3-.4,2.4588,2.4588,0,0,1-.8116-3.3812l0.0116-.0188,2.8-4.4a2.47,2.47,0,0,1,4.2312,2.55l-0.0312.05-2.8,4.4a2.4667,2.4667,0,0,1-2.1,1.2h0Z" style="fill: #3bb2d0"/>
  <path id="path4901-2" data-name="path4901" d="M1303.1816,68.0665a2.3544,2.3544,0,0,1-1.8-1.9,2.4776,2.4776,0,0,1,1.9-2.9l5-1.1a2.4515,2.4515,0,1,1,1,4.8l-5,1.1a2.0452,2.0452,0,0,1-1.1,0h0Z" style="fill: #3bb2d0"/>
  <path id="path4402-2" data-name="path4402" d="M1301.6816,64.0665a2.3976,2.3976,0,0,1-2.2-1.4,2.4816,2.4816,0,0,1,1.1-3.3l12.1-5.9a2.46,2.46,0,0,1,2.2,4.4l-12.1,5.9A1.5477,1.5477,0,0,1,1301.6816,64.0665Z" style="fill: #3bb2d0"/>
  <path id="path4404-2" data-name="path4404" d="M1300.2817,61.3666a2.3976,2.3976,0,0,1-2.2-1.4,2.4816,2.4816,0,0,1,1.1-3.3l10.2-5a2.46,2.46,0,0,1,2.2,4.4l-10.2,5a2.0157,2.0157,0,0,1-1.1.3h0Zm2.8,5.5a2.3976,2.3976,0,0,1-2.2-1.4,2.4816,2.4816,0,0,1,1.1-3.3l9.3-4.5a2.46,2.46,0,0,1,2.2,4.4l-9.3,4.5a2.6071,2.6071,0,0,1-1.1.3h0Z" style="fill: #3bb2d0"/>
  <path id="path4406-2" data-name="path4406" d="M1297.9817,53.3666a8.5046,8.5046,0,0,0,6.7,14.7,16.2692,16.2692,0,0,1,2.3-1.1l-7.1-14.5C1299.2817,52.7665,1298.5815,53.0665,1297.9817,53.3666Z" style="fill: #3bb2d0"/>
  <path id="path4909-2" data-name="path4909" d="M1224.8816,31.2665a2.5587,2.5587,0,0,1-2.5-2.6l0.3-5.2a2.502,2.502,0,0,1,5,.2l-0.3,5.2A2.5189,2.5189,0,0,1,1224.8816,31.2665Z" style="fill: #3bb2d0"/>
  <path id="path4907-2" data-name="path4907" d="M1215.7817,37.2665a2.6126,2.6126,0,0,1-2.5-.7l-3.6-3.7a2.4759,2.4759,0,1,1,3.5885-3.4122l0.0115,0.0122,3.6,3.7a2.4165,2.4165,0,0,1-.0126,3.4174q-0.0427.0424-.0874,0.0826a2.0746,2.0746,0,0,1-1,.6h0Z" style="fill: #3bb2d0"/>
  <path id="path4410-2" data-name="path4410" d="M1219.2817,35.2665a2.6061,2.6061,0,0,1-2.2-1.3l-6.5-11.8a2.506,2.506,0,0,1,4.4-2.4l6.5,11.8a2.5,2.5,0,0,1-.9895,3.3943l-0.0105.0057A2.6626,2.6626,0,0,1,1219.2817,35.2665Z" style="fill: #3bb2d0"/>
  <path id="path4412-2" data-name="path4412" d="M1221.9817,33.7665a2.6061,2.6061,0,0,1-2.2-1.3l-5.5-10a2.506,2.506,0,0,1,4.4-2.4l5.5,10a2.5,2.5,0,0,1-.9895,3.3943l-0.0105.0057A2.6628,2.6628,0,0,1,1221.9817,33.7665Zm-5.4,3a2.6061,2.6061,0,0,1-2.2-1.3l-5-9a2.506,2.506,0,0,1,4.4-2.4l5,9a2.5,2.5,0,0,1-.9895,3.3943l-0.0105.0057a2.6626,2.6626,0,0,1-1.2.3h0Z" style="fill: #3bb2d0"/>
  <path id="path4414-2" data-name="path4414" d="M1227.0816,28.1665a8.4777,8.4777,0,0,1-3.9,9.1,8.6051,8.6051,0,0,1-10-.9c-0.9-1.7-.3-0.5-1.2-2.2l14.1-7.8a16.1912,16.1912,0,0,0,1,1.8h0Z" style="fill: #3bb2d0"/>
  <path id="path5150-2" data-name="path5150" d="M1266.4817,76.1665a18.0166,18.0166,0,0,1-14.7,2.5c-7.8-2.2-10.9-9.2-11.3-10.1l2.5-8.4,25.9,7.6Z" style="fill: #4a677d"/>
  <g style="clip-path: url(#clip-path-10)">
    <path id="ellipse5160-2" data-name="ellipse5160" d="M1251.2817,70.9665c4.5-.2,7.7,4,7.3,9.4s-4.4,9.9-8.9,10.1-7.7-4-7.3-9.4C1242.8816,75.6665,1246.8816,71.1665,1251.2817,70.9665Z" style="fill: #688ba0"/>
  </g>
  <path id="circle5164-2" data-name="circle5164" d="M1250.9817,49.2665a2.5269,2.5269,0,0,1-3.1,1.7h0a2.5,2.5,0,1,1,1.4-4.8h0A2.527,2.527,0,0,1,1250.9817,49.2665Z" style="fill: #4a677d"/>
  <circle id="circle5166-2" data-name="circle5166" cx="1270.1816" cy="54.6665" r="2.5" style="fill: #4a677d"/>
  <circle id="circle5247" cx="409.0444" cy="50.5665" r="2.5" style="fill: #4a677d"/>
  <circle id="circle5249" cx="431.0444" cy="50.5665" r="2.5" style="fill: #4a677d"/>
  <path id="path5258" d="M416,80V74.0665S415.5444,72,417.5444,72h4A2.63,2.63,0,0,1,424,74.0665V80" style="fill: none;stroke: #8a8acb;stroke-linecap: round;stroke-linejoin: round;stroke-width: 2px"/>
  <path id="path5260" d="M419,83h2v4h-2V83Z" style="fill: #7171a5"/>
  <path id="rect5437" d="M418.8444,69h1.4A1.8614,1.8614,0,0,1,422,70.3666v4.4c0,0.7-1.0556,1.2334-1.7556,1.2334h-1.4c-0.7,0-.8444-0.5334-0.8444-1.2334v-4.4C418,69.6665,418.0444,69,418.8444,69Z" style="fill: #3a5a6d"/>
  <path id="path4563" d="M1043.634,36L1028,20.2332V36h15.634Z" style="fill: #ccc"/>
  <path id="path4565" d="M1027.499,36L1044,43.2833V36h-16.501Z" style="fill: #bcbcbc"/>
  <path id="path476-4-3" d="M798.4117,82H761.6853C758.7656,82,757,79.4718,757,76.5521V25.3042C757,22.4614,758.7656,20,761.6853,20h27.8136L806,36.2914v38.34A7.7053,7.7053,0,0,1,798.4818,82h-0.07Z" style="fill: #50667f"/>
  <path id="path4563-3" d="M805.634,36L790,20.2332V36h15.634Z" style="fill: #708193"/>
  <path id="path4565-3" d="M789.499,36L806,43.2833V36H789.499Z" style="fill: #223b53"/>
  <path id="path4567" d="M924.86,36L909,19.9067V36h15.86Z" style="fill: #ccc"/>
  <path id="path4569" d="M908.6392,36L925,43.0792V36H908.6392Z" style="fill: #bcbcbc"/>
  <g>
    <path id="path476-4-2" d="M1157.4117,81h-36.7264c-2.92,0-4.6853-2.5282-4.6853-5.4479V24.3042c0-2.8428,1.7656-5.3042,4.6853-5.3042h27.8136L1165,35.2914v38.34A7.7053,7.7053,0,0,1,1157.4818,81h-0.07Z" style="fill: #50667f"/>
    <path id="path4563-2" d="M1164.634,35L1149,19.2332V35h15.634Z" style="fill: #708193"/>
    <path id="path4565-2" d="M1148.499,35L1165,42.2833V35h-16.501Z" style="fill: #223b53"/>
    <rect x="1123.6497" y="39.6416" width="33.92" height="24.2142" rx="3.292" ry="3.292" style="fill: #5b758e"/>
    <circle cx="1149.9089" cy="47.9248" r="3.9731" transform="translate(1.0086 115.8614) rotate(-5.7706)" style="fill: #efeb6f"/>
    <path d="M1126.61,63.8558l7.4163-10.0135a2.8835,2.8835,0,0,1,4.6344,0l7.4163,10.0135H1126.61Z" style="fill: #5ba87a"/>
    <path d="M1132.1711,63.8558l8.2712-11.1681a3.2161,3.2161,0,0,1,5.1687,0l8.2712,11.1681h-21.7112Z" style="fill: #56b881"/>
  </g>
  <path id="path482-2" d="M798.1358,56.8534A6.8784,6.8784,0,0,0,791.493,50h-0.5407c-0.85-5-4.4027-7.8225-8.8828-7.8225a9.1175,9.1175,0,0,0-7.6469,4.3536,9.728,9.728,0,0,0-1.5448-.1018,8.6774,8.6774,0,0,0-8.7289,8.6256q-0.0005.0838,0.0006,0.1676c0,0.309-.0772,2.1549,0,3.6225,0.0772,1.0814.6952,2.1549,1.6993,2.1549h29.97a2.4176,2.4176,0,0,0,2.24-2.1119l0.0772-2.0347h0Z" style="fill: #f9f9f9"/>
  <path id="rect486-2" d="M778,51h6V61h-6V51Z" style="fill: #3887be"/>
  <path id="path488-2" d="M774.9633,53.792l5.5614-5.5861a0.8041,0.8041,0,0,1,1.2358.0263l5.5614,5.5467A0.7209,0.7209,0,0,1,786.7039,55H775.5811A0.7079,0.7079,0,0,1,774.9633,53.792Z" style="fill: #3887be"/>
  <path id="path476-4-4" d="M1758.7542,64h-25.1753c-2.0013,0-3.5789-2.2331-3.5789-4.2344V24.636A3.63,3.63,0,0,1,1733.5789,21h19.0658L1764,32.1675V58.4488c0,2.6861-2.49,5.5512-5.1757,5.5512h-0.07Z" style="fill: #50667f"/>
  <path id="path4563-4" d="M1763.705,32L1753,21.16V32h10.705Z" style="fill: #708193"/>
  <path id="path4565-4" d="M1752.6447,32L1764,36.96V32h-11.3553Z" style="fill: #223b53"/>
  <rect x="1740.184" y="36.5205" width="14.0792" height="3.6069" rx="1.8034" ry="1.8034" style="fill: #fbb03b"/>
  <path d="M1747.489,37.0579h0a1.8033,1.8033,0,0,1,1.8033,1.8033v12.35a1.8034,1.8034,0,0,1-1.8034,1.8034h0a1.8033,1.8033,0,0,1-1.8033-1.8033v-12.35a1.8034,1.8034,0,0,1,1.8034-1.8034Z" style="fill: #fbb03b"/>
  <path id="path476-4-5" d="M1740.7542,78h-25.1753c-2.0013,0-3.5789-2.2331-3.5789-4.2344V38.636A3.63,3.63,0,0,1,1715.5789,35h19.0658L1746,46.1675V72.4488c0,2.6861-2.49,5.5512-5.1757,5.5512h-0.07Z" style="fill: #465a6d"/>
  <path id="path4563-5" d="M1745.705,46L1735,35.16V46h10.705Z" style="fill: #708193"/>
  <path id="path4565-5" d="M1734.6447,46L1746,50.96V46h-11.3553Z" style="fill: #223b53"/>
  <rect x="1716.1543" y="56.498" width="18.2549" height="3.6069" rx="1.8034" ry="1.8034" transform="translate(871.4219 1558.6079) rotate(-62.2902)" style="fill: #56b881"/>
  <path d="M1732.5672,49.174h0a1.8034,1.8034,0,0,1,1.8034,1.8034V65.6255a1.8034,1.8034,0,0,1-1.8034,1.8034h0a1.8033,1.8033,0,0,1-1.8033-1.8033V50.9774a1.8034,1.8034,0,0,1,1.8034-1.8034Z" transform="translate(171.5912 812.3188) rotate(-27.7098)" style="fill: #56b881"/>
  <rect x="1724.0999" y="59.1966" width="9.5198" height="3.6069" rx="1.4829" ry="1.4829" style="fill: #56b881"/>
  <circle cx="1621.0486" cy="51.3112" r="22.6888" style="fill: #50667f"/>
  <circle cx="1621.1051" cy="51.5064" r="18.1623" style="fill: #f4f4f4"/>
  <path d="M1621.1051,36.6956a18.1617,18.1617,0,0,1,18.0824,16.4866c0.0505-.5521.08-1.11,0.08-1.6757a18.1624,18.1624,0,1,0-36.3247,0c0,0.5653.0294,1.1236,0.08,1.6757A18.1617,18.1617,0,0,1,1621.1051,36.6956Z" style="fill: #e2e2e2"/>
  <rect x="1618" y="40" width="5" height="11" rx="2.3439" ry="2.3439" style="fill: #5997c2"/>
  <path d="M1619.898,51.1443h0a2.4,2.4,0,0,1,3.392-.14l7.2241,6.6531a2.4,2.4,0,0,1,.14,3.392h0a2.4,2.4,0,0,1-3.392.14l-7.2241-6.6531A2.4,2.4,0,0,1,1619.898,51.1443Z" style="fill: #5997c2"/>
  <circle cx="1620.2297" cy="51.2822" r="3.7608" style="fill: #69afd6"/>
  <g style="clip-path: url(#clip-path-11)">
    <g>
      <line x1="1343" y1="69.5" x2="1361" y2="52.5" style="fill: none;stroke: #136a91;stroke-miterlimit: 10;stroke-width: 2px"/>
      <line x1="1343.5" y1="52" x2="1360.5" y2="70" style="fill: none;stroke: #136a91;stroke-miterlimit: 10;stroke-width: 2px"/>
      <g>
        <g>
          <rect x="1319" y="52" width="111" height="3" style="fill: #136a91"/>
          <rect x="1319" y="67" width="111" height="3" style="fill: #136a91"/>
          <rect x="1383" y="65" width="57" height="3" transform="translate(1478 -1345) rotate(90)" style="fill: #136a91"/>
          <rect x="1366" y="65" width="57" height="3" transform="translate(1461 -1328) rotate(90)" style="fill: #136a91"/>
          <rect x="1349" y="65" width="57" height="3" transform="translate(1444 -1311) rotate(90)" style="fill: #136a91"/>
          <rect x="1332" y="65" width="57" height="3" transform="translate(1427 -1294) rotate(90)" style="fill: #136a91"/>
          <rect x="1315" y="65" width="57" height="3" transform="translate(1410 -1277) rotate(90)" style="fill: #136a91"/>
        </g>
        <rect x="1342" y="36" width="88" height="3" style="fill: #136a91"/>
      </g>
      <line x1="1395" y1="53.0556" x2="1411" y2="37.9444" style="fill: none;stroke: #136a91;stroke-miterlimit: 10;stroke-width: 2px"/>
      <line x1="1395.4444" y1="37.5" x2="1410.5556" y2="53.5" style="fill: none;stroke: #136a91;stroke-miterlimit: 10;stroke-width: 2px"/>
      <line x1="1394" y1="69.5" x2="1412" y2="52.5" style="fill: none;stroke: #136a91;stroke-miterlimit: 10;stroke-width: 2px"/>
      <line x1="1394.5" y1="52" x2="1411.5" y2="70" style="fill: none;stroke: #136a91;stroke-miterlimit: 10;stroke-width: 2px"/>
    </g>
  </g>
  <g>
    <polygon points="1387.081 74 1395 81 1399 68 1387 53 1387.081 74" style="fill: #344954"/>
    <polygon points="1368.919 74 1361 81 1357 68 1369 53 1368.919 74" style="fill: #344954"/>
    <g>
      <path d="M1385,78a13.25,13.25,0,0,1-14,0V68h14V78Z" style="fill: #344954"/>
      <path d="M1385,78a13.25,13.25,0,0,1-14,0V68h14V78Z" style="fill: #344954"/>
    </g>
    <path d="M1390.3759,34c-5.1483-16.5-12.356-21-12.356-21s-7.2077,4.5-12.356,21,3.2949,40,3.2949,40a21.5258,21.5258,0,0,0,18.1222,0S1395.5242,50.5,1390.3759,34Z" style="fill: #e2e2e2"/>
    <circle cx="1378" cy="41" r="6" style="fill: #3887be"/>
    <polygon points="1373 41 1383 41 1383 37 1378 35 1373 37 1373 41" style="fill: #fff;opacity: 0.5"/>
    <circle cx="1378" cy="41" r="6" style="fill: none;stroke: #344954;stroke-miterlimit: 10;stroke-width: 2px"/>
  </g>
  <g style="clip-path: url(#clip-path-12)">
    <path d="M1503,77c0,10.3333,12.75,7.375,17,19h-39c3.75-11.375,16-8.9167,16-19h6Z" style="fill: #568c6c"/>
    <path d="M1513,104h-26c0-11.875,10.0833-12.8333,13-20C1503.1667,91.125,1513,91.6667,1513,104Z" style="fill: #56b881"/>
  </g>
  <g>
    <polygon points="1509.081 74 1517 81 1521 68 1509 53 1509.081 74" style="fill: #344954"/>
    <polygon points="1490.919 74 1483 81 1479 68 1491 53 1490.919 74" style="fill: #344954"/>
    <g>
      <path d="M1507,78a13.25,13.25,0,0,1-14,0V68h14V78Z" style="fill: #344954"/>
      <path d="M1507,78a13.25,13.25,0,0,1-14,0V68h14V78Z" style="fill: #344954"/>
    </g>
    <path d="M1512.3759,34c-5.1483-16.5-12.356-21-12.356-21s-7.2077,4.5-12.356,21,3.2949,40,3.2949,40a21.5258,21.5258,0,0,0,18.1222,0S1517.5242,50.5,1512.3759,34Z" style="fill: #e2e2e2"/>
    <circle cx="1500" cy="41" r="6" style="fill: #3887be"/>
    <polygon points="1495 41 1505 41 1505 37 1500 35 1495 37 1495 41" style="fill: #fff;opacity: 0.5"/>
    <circle cx="1500" cy="41" r="6" style="fill: none;stroke: #344954;stroke-miterlimit: 10;stroke-width: 2px"/>
  </g>
  <circle cx="1268.1792" cy="12.6217" r="4.32" transform="translate(20.2088 238.4705) rotate(-10.8282)" style="fill: #fbb03b"/>
  <circle cx="1304.3208" cy="18.1792" r="4.32" transform="translate(19.8082 245.3591) rotate(-10.8282)" style="fill: #fbb03b"/>
  <circle cx="1280.6792" cy="25.6792" r="4.32" transform="translate(17.9783 241.0513) rotate(-10.8282)" style="fill: #fbb03b"/>
  <polyline points="1268.375 12.5 1280.68 25.679 1304.321 18.179" style="fill: none;stroke: #fbb03b;stroke-miterlimit: 10;stroke-width: 3px"/>
  <circle cx="1223.18" cy="8.18" r="4.32" style="fill: #fbb03b"/>
  <circle cx="1235.8325" cy="28.6845" r="4.32" style="fill: #fbb03b"/>
  <circle cx="1255.881" cy="25.32" r="4.32" style="fill: #fbb03b"/>
  <circle cx="1250.6074" cy="4.32" r="4.32" style="fill: #fbb03b"/>
  <polygon points="1222.5 7.5 1250.958 3.5 1255.881 25.32 1235.833 28.567 1222.5 7.5" style="fill: none;stroke: #fbb03b;stroke-miterlimit: 10;stroke-width: 3px"/>
  <circle cx="1301.82" cy="40.68" r="4.32" style="fill: #fbb03b"/>
</svg>
