<?xml version="1.0" encoding="utf-8"?>
<!-- Generator: Adobe Illustrator 19.0.1, SVG Export Plug-In . SVG Version: 6.00 Build 0)  -->
<svg version="1.1" xmlns="http://www.w3.org/2000/svg" xmlns:xlink="http://www.w3.org/1999/xlink" x="0px" y="0px"
	 viewBox="143 51 600 100" style="enable-background:new 143 51 600 100;" xml:space="preserve">
<style type="text/css">
	.st0{display:none;}
	.st1{display:inline;fill:#6BFFFF;stroke:#000000;stroke-width:0.972;stroke-miterlimit:10;}
	.st2{fill:#68D193;}
	.st3{fill:#56B881;}
	.st4{fill:#6267A5;}
	.st5{fill:#C7C8E6;}
	.st6{fill:#8689CA;}
	.st7{fill:#5C5F9B;}
	.st8{fill:#43B5D2;}
	.st9{fill:#30AFCE;}
	.st10{fill:#2A99B7;}
	.st11{fill:none;stroke:#2A99B7;stroke-width:3.772;stroke-miterlimit:10;}
	.st12{fill:#297CAA;}
	.st13{fill:#489DCC;}
	.st14{fill:#FCFCFC;}
	.st15{fill:#B3B3B3;}
	.st16{fill:#CCCCCC;}
	.st17{fill:#E6E6E6;}
	.st18{fill:#84A0B6;}
	.st19{fill:#546A79;}
</style>
<g id="Layer_2" class="st0">
	<rect x="143" y="51" class="st1" width="100" height="100"/>
	<rect x="242.7" y="51" class="st1" width="100" height="100"/>
	<rect x="343" y="51" class="st1" width="100" height="100"/>
	<rect x="443" y="51" class="st1" width="100" height="100"/>
	<rect x="542.7" y="51" class="st1" width="100" height="100"/>
	<rect x="643" y="51" class="st1" width="100" height="100"/>
</g>
<g id="Layer_1">
	<path class="st2" d="M290.7,78c-9.6,0-17.3,7.8-17.3,17.3c0,1.5,0.5,3.3,1.5,5.3c0.9-0.9,2-1.5,3.3-1.5c1.7,0,3.3,1.1,4.2,2.8
		c0.9-1.7,2.5-2.8,4.2-2.8s3.3,1.1,4.2,2.8c0.9-1.7,2.5-2.8,4.2-2.8s3.3,1.1,4.2,2.8c0.9-1.7,2.5-2.8,4.2-2.8c1.3,0,2.5,0.6,3.3,1.6
		c0.9-1.9,1.4-3.8,1.4-5.3C308.1,85.8,300.3,78,290.7,78"/>
	<path class="st3" d="M303.3,100.8c-1.8,0-3.2,2-3.2,4.4v0.3c0,0.5-0.6,0.8-1,0.8c-0.5,0-1-0.4-1-0.8v-0.3c0-2.5-1.3-4.4-3-4.4
		c-1.8,0-3,2-3,4.4v0.3c0,0.5-0.6,0.8-1,0.8c-0.5,0-1-0.4-1-0.8v-0.3c0-2.5-1.8-4.4-3.5-4.4c-1.8,0-2.5,2-3.5,4.4v0.3
		c0,0.5-0.1,0.8-0.5,0.8s-0.5-0.4-0.5-0.8v-0.3c0-2.5-1.7-4.4-3.4-4.4c-0.9,0-1.8,0.6-2.5,1.5c0.6,1,1.3,2.1,2,3.1l9,10.7h8.1
		l9-10.7c0.7-0.9,1.4-1.9,1.9-2.9C305.1,101.4,304.3,100.8,303.3,100.8 M288.1,121h5.3c0.8,0,1.7,0.4,1.7,1.2v2.2
		c0,0.8-0.9,1.6-1.7,1.6h-5.3c-0.8,0-1-0.8-1-1.6v-2.2C286.1,121.5,287.3,121,288.1,121"/>
	<path class="st4" d="M598.3,110.5c0,0,2,9.3-6.8,16.9c-0.8,0.7-2.1,0.3-2.3-0.8l-1.6-7.1c-0.2-0.7,0.1-1.4,0.7-1.8L598.3,110.5
		L598.3,110.5z"/>
	<path class="st5" d="M579.5,108.9c-6.7,0.9-6.5,13.7-6.5,13.7s13.1-0.6,13.6-7.2L579.5,108.9L579.5,108.9z"/>
	<path class="st4" d="M582.4,96c0,0-9.4-1.2-16.3,8.3c-0.6,0.9-0.1,2.1,1,2.2l7.2,1c0.7,0.1,1.4-0.3,1.7-0.8L582.4,96L582.4,96z"/>
	<path class="st6" d="M609.1,83.3c-2.4-2.2-6.5-1.6-7.2-4c-14.3,5-22.8,19.8-26,26.7c-1,2.1-0.5,4.6,1.2,6.2l5.8,5.3
		c1.8,1.6,4.4,1.8,6.4,0.6c15.8-10.1,22-20,24.4-27.5c-2.3-0.6-2.7-4.5-4.8-6.5"/>
	<path class="st4" d="M613.6,90.5c1.3-4.3,1.3-7.8,1.1-10c-0.2-1.7-1.6-3-3.3-2.9c-3.4,0.1-6.6,0.7-9.5,1.7c0.8,2.5,2.4,5.1,4.8,7.3
		C608.8,88.5,611.3,89.9,613.6,90.5"/>
	<path class="st7" d="M600.8,96.7c-1.4,1.5-3.7,1.6-5.2,0.3c-1.5-1.4-1.6-3.7-0.3-5.2c1.4-1.5,3.7-1.6,5.2-0.3
		C602,92.9,602.1,95.2,600.8,96.7"/>
	<path class="st4" d="M590.5,105c-1,2.9-4.1,9.5-12.3,13.3c-0.5,0.2-1-0.2-0.9-0.7c0.7-2.7,3.1-9.2,12.3-13.4
		C590.1,104,590.7,104.5,590.5,105"/>
	<g>
		<path class="st8" d="M419.4,91c-0.6,0-1.1,0.5-1,1l1.7,11.5V92C420.1,91.4,419.9,91,419.4,91 M421.8,114.1c0.6,0,1.1-0.5,1-1
			l-1.7-11.5v11.5C421.1,113.7,421.3,114.1,421.8,114.1 M407.1,106.4l1.1-0.2l-2.7-17.5l-1.1,0.2L407.1,106.4z M389,110.1l1.1-0.2
			l-2.7-17.5l-1.1,0.2L389,110.1z"/>
		<path class="st9" d="M357.8,105.9c0,1.9,1.5,3.4,3.4,3.4s3.4-1.5,3.4-3.4c0-1.8-1.5-3.4-3.4-3.4S357.8,104,357.8,105.9"/>
		<path class="st9" d="M392.2,99.8c1.2,1.2,2.9,2,4.9,2c3.3,0,6-2.2,6.4-5l3.6-0.8c4.4-1,8.8,1.8,9.5,6.3L387,110l-20.7,2
			c-1.8-0.6-3.6-1.4-5.3-2.3l-1.7-0.9L392.2,99.8L392.2,99.8z"/>
		<path class="st10" d="M416.1,102.3l0.4,1.4c0.9,5.4-3.1,10.4-8.6,11.4h-12.2l-20.3-1.2c-3.2-0.2-6.3-0.9-9.2-1.9l34.5-6.7l15.4-3
			V102"/>
		<path class="st9" d="M399.8,105l-10.1,11c-1.3,1.4-3.6,0.4-3.6-1.5V108"/>
		<path class="st11" d="M415.3,103.8l4.6-0.7"/>
		<path class="st10" d="M420.3,105.6c1.4-0.2,2.3-1.5,2.1-2.9s-1.5-2.3-2.9-2.1"/>
		<path class="st8" d="M383,93.6l26.8-4.4c0.7-0.1,1.3-0.8,1.3-1.5v-0.1c-1-0.7-1-1.2-1.7-1.1l-26.7,4.4c-0.7,0.1-1.3,0.8-1.2,1.5
			C381.6,93.2,382.3,93.7,383,93.6"/>
	</g>
	<path class="st12" d="M462.8,111.2l-6.1-6.1c-0.6-0.6-0.4-1.6,0.4-1.9l2.6-1.2c0.7-0.3,1.4-0.3,2.1-0.1l12.8,4.6L462.8,111.2
		L462.8,111.2z"/>
	<path class="st13" d="M522.3,91.1c-2.2-2.8-6-3.8-9.4-2.4l-50.1,22.1c-1.9,0.8-1.7,3.6,0.3,4.2l13.3,1.8c0.8,0.1,2.3,0,3.1,0
		c7.1,0,13.5-1.2,20.2-4.1l19.5-8.6c3.9-1.7,5.9-6.1,4.6-10.1"/>
	<path class="st12" d="M523.1,92.9c0-0.7-0.6-1.3-1-1.8l-3.1,1.4c-0.8,0.4-1.2,1.3-0.8,2.1s1.3,1.2,2.1,0.8l3.3-1.5
		c-0.1-0.3-0.5-0.6-0.5-0.9V92.9L523.1,92.9z M507.2,101.3l-17.4,7.6c-0.4,0.2-0.7,0.4-1,0.7l-11.8,13c-0.9,1,0.4,2.4,1.4,1.6
		l29.4-21.7C508.5,102,507.9,100.9,507.2,101.3 M487.6,104.8c0.3,0.7,0,1.6-0.7,1.9c-0.7,0.3-1.6,0-1.9-0.7c-0.3-0.7,0-1.6,0.7-1.9
		C486.4,103.8,487.2,104.1,487.6,104.8 M492.5,102.6c0.3,0.7,0,1.6-0.7,1.9c-0.7,0.3-1.6,0-1.9-0.7s0-1.6,0.7-1.9
		C491.4,101.6,492.2,101.9,492.5,102.6 M497.5,100.5c0.3,0.7,0,1.6-0.7,1.9c-0.7,0.3-1.6,0-1.9-0.7s0-1.6,0.7-1.9
		C496.3,99.4,497.1,99.7,497.5,100.5 M502.4,98.3c0.3,0.7,0,1.6-0.7,1.9c-0.7,0.3-1.6,0-1.9-0.7s0-1.6,0.7-1.9
		C501.3,97.2,502.1,97.6,502.4,98.3 M507.4,96.1c0.3,0.7,0,1.6-0.7,1.9c-0.7,0.3-1.6,0-1.9-0.7c-0.3-0.7,0-1.6,0.7-1.9
		C506.2,95.1,507,95.4,507.4,96.1 M512.3,93.9c0.3,0.7,0,1.6-0.7,1.9c-0.7,0.3-1.6,0-1.9-0.7s0-1.6,0.7-1.9
		C511.2,92.9,512,93.2,512.3,93.9"/>
	<path class="st14" d="M173.1,111.2l4-5.7c0.2-0.3,0.5-0.3,0.7,0l2.7,3.4c0.2,0.2,0.1,0.6-0.2,0.7l-6.6,2.3
		C173.2,112,172.8,111.6,173.1,111.2"/>
	<path class="st15" d="M173,112.1l42.4-14.9c0.5-0.2,0.3-0.9-0.2-0.8l-41.8,4.1l-1,11.2C172.4,111.9,172.7,112.2,173,112.1"/>
	<path class="st14" d="M167,91.5c-0.2-0.3,0-0.7,0.4-0.7l47.8,4.9c0.5,0.1,0.3,1-0.2,1.1l-41.7,3.7"/>
	<path class="st16" d="M173,112.1l9.9-3.5l-5.5-3.1l-5,5.9C172.3,111.8,172.6,112.2,173,112.1"/>
	<path class="st17" d="M214.9,95.7l2.3,0.2c0.3,0,0.4,0.4,0.2,0.5l-1.3,0.9L214.9,95.7z"/>
	<path class="st14" d="M186.1,116.1c0.2,0.2,0.4,0.2,0.6,0.1l29.5-19c0.4-0.3,0.2-0.9-0.3-0.8l-38.4,9.2"/>
	<path class="st18" d="M716.3,100.5c-2.1,3.7-6.8,5-10.6,2.8c-3.7-2.1-5-6.8-2.8-10.6c2.1-3.7,6.8-5,10.6-2.8
		C717.2,92,718.4,96.8,716.3,100.5L716.3,100.5z"/>
	<path class="st19" d="M716.1,92.5c-1.9,0.6-3.2,2.4-4.4,4.6c-0.7,1.2-1.1,2.1-1.3,3.3l2.8,3.2c1.3-0.6,2.3-1.7,3.1-3
		C717.8,97.9,717.6,94.8,716.1,92.5L716.1,92.5z"/>
	<path class="st18" d="M701.8,90.5l-13.2,4.6l-1.9,4.6l-0.5,7.9l-1.9,2.7l-12.4-3.3l-4.3,6.1l2,3.6l5.5-2.5l8.9,4.3l22-10l4.4,5.1
		l2.2,0.5h2.5h2.1h4.1l1.8-3.2V109h-2.8l-0.1-3.2l-1-1.1l-1,2l-2.1,2l-4.4-1l-1.2-4.7l-3-2.7l0.8-2.8L701.8,90.5L701.8,90.5z"/>
	<path class="st19" d="M704.7,99.4l-10.6,2.8l-5.5-7.3l-2.5,4.3l-4.7-0.3l-7.6-5.2l-6.8,3.4l-0.3,4.7l6-0.6l6.7,3.9l6.1,2l-1.2,3
		l-0.6-0.2l3.8,2.2l7.5-4.6l0.2-3.1L704.7,99.4L704.7,99.4z M672.2,106.6l2,3.6l-4.5,6.3l-2-3.6L672.2,106.6z M679.9,84.8l4.1,1.1
		l2.9-3.1l-1.1,4.1l3.1,2.9l-4.1-1.1l-2.9,3.1l1.1-4.1L679.9,84.8L679.9,84.8z M698,118.7l2.4,0.9l1.7-1.9l-0.9,2.4l1.9,1.7
		l-2.4-0.9l-1.7,1.9l0.9-2.4L698,118.7L698,118.7z M707.8,77.3l4.1,1.1l2.9-3.1l-1.1,4.1l3.1,2.9l-4.1-1.1l-2.9,3.1l1.1-4.1
		L707.8,77.3z"/>
</g>
</svg>
