<?xml version="1.0" encoding="utf-8"?>
<!-- Generator: Adobe Illustrator 19.0.1, SVG Export Plug-In . SVG Version: 6.00 Build 0)  -->
<svg version="1.1" xmlns="http://www.w3.org/2000/svg" xmlns:xlink="http://www.w3.org/1999/xlink" x="0px" y="0px"
	 viewBox="-414.5 341 1650.5 120" style="enable-background:new -414.5 341 1650.5 120;" xml:space="preserve">
<style type="text/css">
	.st0{display:none;}
	.st1{display:inline;fill:#D36F6C;}
	.st2{display:inline;fill:#AAC462;}
	.st3{fill:#3D85C2;}
	.st4{fill:#4C647C;}
	.st5{fill:#60B77B;}
	.st6{fill:#F7B005;}
	.st7{fill:none;}
	.st8{fill:#364752;}
	.st9{display:inline;fill:#E5E5E5;}
	.st10{display:inline;fill:#F2F2F2;}
	.st11{fill:#516680;}
	.st12{fill:#F48867;}
	.st13{fill:none;stroke:#60B77B;stroke-width:2;stroke-linecap:round;stroke-miterlimit:10;}
	.st14{fill:none;stroke:#F7B005;stroke-width:2;stroke-linecap:round;stroke-miterlimit:10;}
	.st15{fill:none;stroke:#8889CF;stroke-width:2;stroke-linecap:round;stroke-miterlimit:10;}
	.st16{fill:none;stroke:#F48867;stroke-width:2;stroke-linecap:round;stroke-miterlimit:10;}
	.st17{fill:#3B4D62;}
	.st18{fill:none;stroke:#68809C;stroke-width:2;stroke-linecap:round;stroke-miterlimit:10;}
	.st19{fill:#283840;}
	.st20{fill:none;stroke:#516680;stroke-width:2;stroke-linecap:round;stroke-miterlimit:10;}
	.st21{fill:#4DAEA4;}
	.st22{fill:#F9CF88;}
	.st23{fill:#68809C;}
	.st24{fill:#FFFFFF;}
	.st25{fill:none;stroke:#686DB2;stroke-width:2;stroke-linecap:round;stroke-miterlimit:10;}
	.st26{clip-path:url(#SVGID_2_);}
	.st27{fill:#935617;}
	.st28{fill:#734319;}
	.st29{fill:#5E3909;}
	.st30{fill:#3A2414;}
	.st31{opacity:0.36;}
	.st32{fill:#8889CF;}
	.st33{clip-path:url(#SVGID_4_);}
	.st34{fill:#815842;}
	.st35{fill:#EBCAAB;}
	.st36{fill:#D6B69A;}
	.st37{fill:#CCB29C;}
	.st38{clip-path:url(#SVGID_6_);}
	.st39{fill:#F2D9C6;}
	.st40{opacity:0.52;}
	.st41{fill:#A8A8A8;}
	.st42{fill:#A8A8A8;stroke:#FFFFFF;stroke-width:19;stroke-miterlimit:10;}
	.st43{fill:#B7B7B7;}
	.st44{fill:#7A7A7A;}
	.st45{fill:#FCFCFC;}
	.st46{fill:#999999;}
	.st47{fill:#F9F9F9;}
	.st48{fill:#9B9B9B;}
	.st49{fill:#A3A3A3;}
	.st50{fill:#D9DADB;}
	.st51{fill:#FDFEFF;}
	.st52{fill:#E2E2E2;}
	.st53{fill:#3887BE;}
	.st54{fill:#3F94C4;}
	.st55{fill:#5CC5D6;}
	.st56{fill:#3BB2D0;}
	.st57{fill:#4F667F;}
	.st58{fill:#516F89;}
	.st59{fill:#3F566B;}
	.st60{fill:#40AFA5;}
</style>
<g id="Layer_2_1_" class="st0">
	<rect x="-414" y="341" class="st1" width="150" height="120"/>
	<rect x="-264.4" y="341" class="st2" width="150" height="120"/>
	<rect x="-114.1" y="341" class="st1" width="150" height="120"/>
	<rect x="185.5" y="341" class="st1" width="150" height="120"/>
	<rect x="485.5" y="341" class="st1" width="150" height="120"/>
	<rect x="35.5" y="341" class="st2" width="150" height="120"/>
	<rect x="335.5" y="341" class="st2" width="150" height="120"/>
	<rect x="635.5" y="340" class="st2" width="150" height="120"/>
	<rect x="936" y="341" class="st2" width="150" height="120"/>
</g>
<g id="Layer_1">
	<g>
		<path class="st3" d="M156,439.6c0,0.8-0.6,1.4-1.4,1.4H59.4c-0.8,0-1.4-0.6-1.4-1.4v-79.1c0-0.8,0.6-1.4,1.4-1.4h95.1
			c0.8,0,1.4,0.6,1.4,1.4V439.6z"/>
	</g>
	<g>
		<path class="st4" d="M67,441h-9.4c-1.5,0-2.6-1.1-2.6-2.5V368h12V441z"/>
	</g>
	<g>
		<polygon class="st5" points="56.4,376.7 59.5,375.8 59.4,379 58.3,377.3 		"/>
		<path class="st6" d="M59.8,375.7c0.1-0.1,0.2-0.4,1.8-0.3c1.4,0,1.5,0.2,1.6,0.4c0,0,0,0.1,0.1,0.6c0,0.8,0,0.9,0.1,1
			c0.2,0.3,0.9,0.3,1.4,0.1c0.2-0.1,0.3-0.2,0.4-0.2c0.1,0.1,0,0.5-0.3,0.8c-0.3,0.3-0.8,0.4-1.5,0.4c-0.8,0.1-1.3,0.1-1.5-0.1
			c-0.5-0.5,0.3-1.8-0.2-2.2c-0.5-0.4-1.7,0.3-1.9-0.1C59.6,376,59.7,375.8,59.8,375.7z"/>
		<path class="st7" d="M61.3,377.1c0.9,0,1.6-1.2,1.6-2.7c0-0.5-0.1-1-0.2-1.4l-2.5,3.3C60.5,376.8,60.9,377.1,61.3,377.1z"/>
		<path class="st7" d="M61.3,371.7c-0.9,0-1.6,1.2-1.6,2.7c0,0.2,0,0.3,0,0.5l2.2-2.9C61.8,371.8,61.6,371.7,61.3,371.7z"/>
		<path class="st6" d="M63.4,372l-0.8,1c0.1,0.4,0.2,0.9,0.2,1.4c0,1.5-0.7,2.7-1.6,2.7c-0.5,0-0.9-0.3-1.1-0.9
			c-0.2-0.4-0.3-0.9-0.4-1.4c0-0.2,0-0.3,0-0.5c0-1.5,0.7-2.7,1.6-2.7c0.2,0,0.5,0.1,0.7,0.3l0.5-0.7c-0.4-0.2-0.8-0.3-1.2-0.3
			c-1.6,0-3,1.5-3,3.4s1.3,3.4,3,3.4c1.6,0,3-1.5,3-3.4C64.3,373.5,64,372.6,63.4,372z"/>
		<path class="st5" d="M64.5,369.5l-3.1,0.5l1.2,1l-0.2,0.2l-0.5,0.7l-2.2,2.9c0.1,0.5,0.2,1,0.4,1.4l2.5-3.3l0.8-1l0.2-0.3l1.2,0.9
			L64.5,369.5z"/>
	</g>
	<g>
		<path class="st8" d="M156,368H55v-7.6c0-0.9,0.6-1.4,1.5-1.4h97.5c0.9,0,2.1,0.6,2.1,1.5V368z"/>
	</g>
	<g id="Layer_2" class="st0">
		<rect x="-414.1" y="337.1" class="st9" width="150.3" height="207.8"/>
		<rect x="-113.7" y="336.1" class="st9" width="150.3" height="207.8"/>
		<rect x="-263.7" y="336" class="st10" width="150.3" height="207.8"/>
	</g>
	<g id="Layer_1_1_">
		<path class="st8" d="M-150.6,456h-95.7c-0.9,0-1.6-0.7-1.6-1.6v-92.8c0-0.9,0.7-1.6,1.6-1.6h95.7c0.9,0,1.6,0.7,1.6,1.6v92.8
			C-149,455.3-149.7,456-150.6,456z"/>
		<path class="st11" d="M-149,368.9h-101.5v-7.2c0-0.9,0.7-1.6,1.6-1.6h98.2c0.9,0,1.7,0.8,1.7,1.7L-149,368.9L-149,368.9z"/>
		<circle class="st6" cx="-240.5" cy="364.6" r="1.8"/>
		<circle class="st5" cx="-234.7" cy="364.6" r="1.8"/>
		<circle class="st12" cx="-246.1" cy="364.6" r="1.8"/>
		<line class="st13" x1="-222.4" y1="375.5" x2="-182.4" y2="375.5"/>
		<line class="st14" x1="-222.4" y1="391.5" x2="-212.4" y2="391.5"/>
		<line class="st15" x1="-189.4" y1="391.5" x2="-173.4" y2="391.5"/>
		<line class="st13" x1="-208.4" y1="391.5" x2="-201.4" y2="391.5"/>
		<line class="st14" x1="-197.4" y1="391.5" x2="-194.4" y2="391.5"/>
		<line class="st15" x1="-222.4" y1="385.5" x2="-182.4" y2="385.5"/>
		<line class="st14" x1="-178.4" y1="385.5" x2="-154.4" y2="385.5"/>
		<line class="st14" x1="-222.4" y1="380.5" x2="-200.4" y2="380.5"/>
		<line class="st16" x1="-222.4" y1="402.5" x2="-208.4" y2="402.5"/>
		<line class="st14" x1="-205.4" y1="402.5" x2="-191.4" y2="402.5"/>
		<line class="st15" x1="-188.4" y1="402.5" x2="-181.4" y2="402.5"/>
		<line class="st13" x1="-197.4" y1="407.5" x2="-190.4" y2="407.5"/>
		<line class="st15" x1="-192.4" y1="417.5" x2="-176.4" y2="417.5"/>
		<line class="st14" x1="-222.4" y1="417.5" x2="-202.4" y2="417.5"/>
		<line class="st13" x1="-198.4" y1="417.5" x2="-195.4" y2="417.5"/>
		<line class="st13" x1="-195.4" y1="427.5" x2="-181.4" y2="427.5"/>
		<line class="st14" x1="-222.4" y1="427.5" x2="-205.4" y2="427.5"/>
		<line class="st15" x1="-201.4" y1="427.5" x2="-198.4" y2="427.5"/>
		<line class="st16" x1="-205.4" y1="432.5" x2="-194.4" y2="432.5"/>
		<line class="st15" x1="-222.4" y1="432.5" x2="-209.4" y2="432.5"/>
		<line class="st14" x1="-178.4" y1="427.5" x2="-175.4" y2="427.5"/>
		<line class="st16" x1="-181.4" y1="412.5" x2="-178.4" y2="412.5"/>
		<line class="st15" x1="-222.4" y1="412.5" x2="-184.4" y2="412.5"/>
		<line class="st15" x1="-222.4" y1="407.5" x2="-200.4" y2="407.5"/>
		<line class="st13" x1="-196.4" y1="380.5" x2="-189.4" y2="380.5"/>
		<line class="st16" x1="-185.4" y1="380.5" x2="-159.4" y2="380.5"/>
		<path class="st17" d="M-229.7,456h-18c-1.6,0-2.9-1.3-2.9-2.9v-84.2h20.8L-229.7,456L-229.7,456z"/>
		<line class="st18" x1="-246.4" y1="375.5" x2="-234.4" y2="375.5"/>
		<line class="st18" x1="-246.4" y1="380.5" x2="-234.4" y2="380.5"/>
		<line class="st18" x1="-246.4" y1="385.5" x2="-234.4" y2="385.5"/>
		<line class="st18" x1="-246.4" y1="390.5" x2="-234.4" y2="390.5"/>
		<line class="st18" x1="-246.4" y1="395.5" x2="-234.4" y2="395.5"/>
		<path class="st19" d="M-132,455.8h-28c-1.6,0-2.9-1.3-2.9-2.9v-55.3c0-1.6,1.3-2.9,2.9-2.9h28c1.6,0,2.9,1.3,2.9,2.9v55.3
			C-129,454.4-130.3,455.8-132,455.8z"/>
		<path class="st8" d="M-126.4,455.6h-28.8c-1.6,0-3-1.3-3-3v-55.5c0-1.6,1.3-3,3-3h28.8c1.6,0,3,1.3,3,3v55.5
			C-123.4,454.3-124.8,455.6-126.4,455.6z"/>
		<circle class="st11" cx="-141.5" cy="450.8" r="2.3"/>
		<line class="st20" x1="-145.4" y1="398.5" x2="-138.4" y2="398.5"/>
		<path class="st6" d="M-129.5,445.6h-22.3c-0.9,0-1.7-0.7-1.7-1.7v-40c0-0.9,0.7-1.7,1.7-1.7h22.3c0.9,0,1.7,0.7,1.7,1.7v40
			C-127.8,444.9-128.5,445.6-129.5,445.6z"/>
		<g>
			<path class="st3" d="M-137.4,423.5h-2v-1.6l1.2-1.3l-1.2-1.2v-2.9h2.1h1.5c-1.3-1-3.2-2.6-5.4-2.6c-1.7,0-3.2,0.6-4.4,1.6h2.2v2
				h2v1.9l0.7,0.9l-2.4,2.2h-1.9l0.5,2.4l1.4,2.5c0,0,0,0,0,0c0.6,0.2,1.2,0.3,1.8,0.3c0.7,0,1.3-0.1,2-0.3c0.7-0.2,0.8-0.5,1.8-0.9
				v-0.8L-137.4,423.5L-137.4,423.5z"/>
			<path class="st21" d="M-145,422.5h1.9l2.4-2.2l-0.7-0.9v-1.9h-2v-2h-2.2c-0.1,0-0.2,0.2-0.3,0.3c-1.3,1.2-2.1,3-2.1,5
				c0,3.1,2.1,5.8,5,6.6l-1.4-2.5L-145,422.5z"/>
			<path class="st21" d="M-136.2,425.4c1.1-1.2,1.8-2.9,1.8-4.6c0-1.6-0.5-3.3-1.5-4.3h-1.5h-2.1v2.9l1.2,1.2l-1.2,1.3v1.6h2v2.2
				v0.8C-136.4,426.1-136.5,425.8-136.2,425.4z"/>
		</g>
		<path class="st22" d="M-136.5,435h-9.4c-0.8,0-1.5-0.7-1.5-1.5v-1.3c0-0.8,0.7-1.5,1.5-1.5h9.4c0.8,0,1.5,0.7,1.5,1.5v1.3
			C-135,434.3-135.7,435-136.5,435z"/>
		<path class="st8" d="M13.6,447.5h-105v-66.8c0-4,3.8-7.2,7.8-7.2H6.4c4,0,7.2,3.2,7.2,7.2V447.5z"/>
		<path class="st17" d="M-99.4,446.5h122v7.2c0,1.6-1.4,2.8-3,2.8h-116c-1.6,0-3.1-1.3-3.1-2.8L-99.4,446.5L-99.4,446.5z"/>
		<path class="st23" d="M5.6,446.5h-88v-61c0-1.6,1-3,2.5-3H3c1.6,0,2.6,1.4,2.6,3L5.6,446.5L5.6,446.5z"/>
		<path class="st11" d="M-48.4,446.5h22v2.9c0,0.2,0,0.1-0.2,0.1h-21.5c-0.3,0-0.3,0.1-0.3-0.1V446.5z"/>
		<g>
			<path class="st8" d="M-5.4,437.6c0,0.5-0.4,0.9-0.9,0.9h-64.3c-0.5,0-0.9-0.4-0.9-0.9v-43.3c0-0.5,0.4-0.9,0.9-0.9h64.3
				c0.5,0,0.9,0.4,0.9,0.9V437.6z"/>
			<path class="st11" d="M-5.4,401.5h-66v-7c0-0.7,0.5-1,1.2-1h63.4c0.7,0,1.4,0.3,1.4,1.1V401.5z"/>
			<circle class="st6" cx="-61.9" cy="397.4" r="1.6"/>
			<circle class="st5" cx="-56.6" cy="397.4" r="1.6"/>
			<circle class="st12" cx="-67" cy="397.4" r="1.6"/>
			<path class="st12" d="M-32.4,433.1c0,0.8-0.6,1.4-1.4,1.4h-15.3c-0.8,0-1.4-0.6-1.4-1.4v-3.3c0-0.8,0.6-1.4,1.4-1.4h15.3
				c0.8,0,1.4,0.6,1.4,1.4V433.1z"/>
			<path class="st5" d="M-10.4,433.2c0,0.7-0.6,1.3-1.3,1.3h-15.4c-0.7,0-1.3-0.6-1.3-1.3v-3.4c0-0.7,0.6-1.3,1.3-1.3h15.4
				c0.7,0,1.3,0.6,1.3,1.3V433.2z"/>
			<path class="st23" d="M-9.4,413.6c0,1-0.8,1.8-1.8,1.8h-55.3c-1,0-1.8-0.8-1.8-1.8v-2.3c0-1,0.8-1.8,1.8-1.8h55.3
				c1,0,1.8,0.8,1.8,1.8V413.6z"/>
			<line class="st20" x1="-67.4" y1="419.5" x2="-35.4" y2="419.5"/>
			<line class="st20" x1="-67.4" y1="405.5" x2="-48.4" y2="405.5"/>
			<line class="st20" x1="-36.4" y1="423.5" x2="-22.4" y2="423.5"/>
			<line class="st20" x1="-67.4" y1="423.5" x2="-49.4" y2="423.5"/>
			<line class="st20" x1="-45.4" y1="423.5" x2="-40.4" y2="423.5"/>
		</g>
		<line class="st20" x1="-49.4" y1="378.5" x2="-26.4" y2="378.5"/>
		<circle class="st24" cx="8.7" cy="382.5" r="19.3"/>
		<g>
			<path class="st3" d="M12.1,387.2l-2.2-1.3l-1.4-4.6l1.7-2.3l3.5-2l3.2-1.3c-2-2.4-5-4-8.4-4c-1.9,0-3.7,0.5-5.2,1.3l1.1,2.8
				L1,378.3l-1,1.8l-2.3,0.9c-0.1,0.6-0.2,1.3-0.2,1.9c0,0.9,0.1,1.6,0.3,2.6h3.1l5.6,2.7v3.6l0.4,1.9c0.5,0.1,1,0.1,1.6,0.1
				c1.9,0,4.1-0.5,5.1-1.3v-2.8L12.1,387.2z"/>
			<path class="st3" d="M17.6,383.2v3.4v2.7c1-1.8,2-4,2-6.4c0-1.1-0.1-2.1-0.4-3l-1.6,2L17.6,383.2L17.6,383.2z"/>
			<path class="st5" d="M17.6,389.2v-2.7v-3.4v-1.4l1.5-2c-0.4-1.5-1.2-2.8-2.1-4l-3.3,1.3l-3.5,2l-1.7,2.3l1.4,4.6l2.2,1.3l1.4,2.5
				v2.8C14.6,391.7,16.6,390.6,17.6,389.2z"/>
			<path class="st5" d="M1,378.3l3.3-2.3l-1.1-2.8c-2.9,1.6-5,4.4-5.6,7.8l2.3-0.9L1,378.3z"/>
			<path class="st5" d="M6.6,388.2l-5.6-2.7h-3.1c1,4,4.7,7.6,9.1,8.3l-0.4-1.9V388.2z"/>
		</g>
		<g>
			<path class="st11" d="M4.3,372.9c0,0-0.1,0.4-0.2,1c-0.1,0.7-0.2,1.6-0.3,2.7c0,1.1,0,2.4,0.2,3.7c0,0.3,0.1,0.7,0.2,1l0.1,0.5
				l0.1,0.5c0.2,0.8,0.4,1.4,0.6,2.1l0.4,1c0.1,0.3,0.3,0.6,0.4,1c0.3,0.6,0.6,1.3,1,1.8c0.7,1.2,1.5,2.2,2.2,3
				c0.7,0.9,1.4,1.5,1.8,2c0.5,0.5,0.7,0.7,0.7,0.7s-0.4-0.1-1-0.4c-0.6-0.3-1.4-0.8-2.4-1.5c-0.9-0.7-1.9-1.7-2.8-2.9
				c-0.4-0.6-0.9-1.2-1.2-1.9c-0.2-0.4-0.3-0.7-0.5-1.1L3.3,385c-0.2-0.8-0.5-1.6-0.6-2.3l-0.1-0.5c0-0.3,0-0.4-0.1-0.6
				c0-0.4-0.1-0.8-0.1-1.1c0-1.5,0.1-2.9,0.4-4c0.3-1.1,0.7-2,1-2.7C4.1,373.2,4.3,372.9,4.3,372.9z"/>
		</g>
		<g>
			<path class="st11" d="M4.1,372.9c0,0,0.3,0.2,0.9,0.5c0.5,0.4,1.3,0.9,2.1,1.7c0.8,0.8,1.7,1.8,2.4,3l0.3,0.5l0.3,0.5
				c0.2,0.3,0.3,0.6,0.5,1c0.1,0.4,0.3,0.7,0.5,1.1l0.4,1.1c0.2,0.7,0.4,1.5,0.5,2.2c0.1,0.7,0.2,1.5,0.2,2.2c0.1,0.7,0,1.4,0,2.1
				c0,0.7-0.1,1.3-0.2,1.8c-0.2,1.1-0.4,2-0.7,2.6c-0.2,0.6-0.4,1-0.4,1s0-0.4,0-1c0-0.6,0-1.6-0.1-2.6c0-0.5-0.1-1.1-0.1-1.7
				c-0.1-0.6-0.1-1.3-0.2-1.9c-0.1-0.7-0.2-1.3-0.4-2c-0.1-0.7-0.3-1.4-0.5-2l-0.3-1c-0.1-0.3-0.2-0.6-0.4-1c-0.1-0.3-0.3-0.7-0.4-1
				l-0.2-0.5L8.1,379c-0.6-1.2-1.2-2.3-1.8-3.2c-0.6-0.9-1.1-1.6-1.5-2.2C4.3,373.2,4.1,372.9,4.1,372.9z"/>
		</g>
		<g>
			<path class="st11" d="M4.1,372.9c0,0,0.1,0,0.3-0.1c0.2,0,0.5-0.1,0.9-0.1c0.4,0,0.9-0.1,1.5,0c0.6,0,1.2,0.1,1.9,0.2
				c0.7,0.2,1.5,0.4,2.2,0.7c0.8,0.4,1.5,0.8,2.2,1.4c0.7,0.6,1.4,1.3,2,2.1l0.2,0.3c0,0.1,0.1,0.1,0.1,0.2l0.1,0.1l0.3,0.6
				c0.2,0.4,0.4,0.9,0.6,1.4c0.3,0.9,0.4,1.9,0.5,2.9c0,1-0.1,1.9-0.3,2.8c-0.2,0.9-0.5,1.7-0.8,2.5c-0.2,0.4-0.4,0.7-0.6,1.1
				c-0.2,0.3-0.4,0.6-0.6,0.9c-0.4,0.6-0.9,1.1-1.3,1.5c-0.4,0.4-0.8,0.7-1.1,1c-0.3,0.2-0.6,0.4-0.8,0.5c-0.2,0.1-0.3,0.2-0.3,0.2
				s0.3-0.3,0.8-1c0.2-0.3,0.6-0.7,0.8-1.1c0.3-0.4,0.6-1,0.9-1.6c0.1-0.3,0.3-0.6,0.4-0.9c0.1-0.3,0.3-0.7,0.4-1
				c0.2-0.7,0.4-1.5,0.5-2.3c0.1-0.8,0.1-1.6,0.1-2.4c-0.1-0.8-0.2-1.6-0.5-2.4c-0.1-0.4-0.3-0.7-0.4-1.1l-0.3-0.6l-0.1-0.2
				c0,0,0-0.1-0.1-0.1l-0.2-0.3c-0.5-0.7-1-1.3-1.5-1.9c-1.2-1.1-2.5-1.8-3.7-2.3c-0.6-0.2-1.2-0.4-1.7-0.6c-0.5-0.1-1-0.2-1.4-0.3
				c-0.4-0.1-0.7-0.1-0.9-0.1C4.2,372.9,4.1,372.9,4.1,372.9z"/>
		</g>
		<g>
			<path class="st11" d="M0.9,374.3c0,0-0.8,0.9-1.6,2.7c-0.4,0.9-0.9,2-1.1,3.4c-0.2,1.3-0.2,2.9,0.2,4.4c0.4,1.6,1.3,3.1,2.6,4.5
				c0.6,0.7,1.4,1.3,2.2,1.8c0.8,0.5,1.7,1,2.6,1.2c1.9,0.6,4,0.6,6-0.1c1.9-0.6,3.7-1.9,5-3.6c1.3-1.7,2.1-3.7,2.1-5.8
				c0-0.3,0-0.5,0-0.8c0-0.1,0-0.3,0-0.3l-0.1-0.4l-0.1-0.8l-0.2-0.7c-0.1-0.5-0.4-0.9-0.5-1.4c-0.2-0.4-0.5-0.9-0.8-1.3
				c-1.2-1.6-2.8-2.8-4.5-3.7c-1.7-0.8-3.4-1.3-5.1-1.4c-1.6-0.1-3.2,0.1-4.4,0.6c-1.2,0.5-2.2,1.2-3,1.9c-0.7,0.7-1.2,1.3-1.6,1.7
				c-0.3,0.4-0.5,0.7-0.5,0.7s0.1-0.3,0.4-0.7c0.3-0.5,0.7-1.1,1.4-1.9c0.7-0.7,1.6-1.6,2.9-2.2c1.3-0.6,2.9-1.1,4.7-1.1
				c1.8,0,3.7,0.4,5.6,1.2c1.9,0.8,3.7,2.1,5.2,3.9c0.7,0.9,1.3,1.9,1.7,3.1c0.1,0.3,0.2,0.6,0.3,0.9l0.1,0.8l0.1,0.4
				c0,0.3,0,0.3,0,0.5c0,0.3,0,0.6,0,0.9c-0.1,2.5-1,4.9-2.5,6.9c-1.5,2-3.6,3.5-6,4.2c-2.3,0.7-4.8,0.7-7-0.1
				c-1.1-0.4-2.1-0.9-3-1.5c-0.9-0.6-1.7-1.4-2.4-2.2c-0.7-0.8-1.2-1.7-1.7-2.5c-0.2-0.5-0.4-0.9-0.5-1.3c-0.1-0.2-0.1-0.5-0.2-0.7
				c0-0.2-0.1-0.4-0.1-0.6c-0.4-1.8-0.2-3.5,0.1-4.9c0.4-1.4,0.9-2.5,1.5-3.4c0.5-0.9,1-1.5,1.4-1.9C0.7,374.5,0.9,374.3,0.9,374.3z
				"/>
		</g>
		<g>
			<path class="st11" d="M-2,382.3c0,0,0.2-0.3,0.5-0.7c0.3-0.5,0.9-1.1,1.6-1.8c0.7-0.7,1.6-1.4,2.7-2.1c0.5-0.3,1.1-0.7,1.7-1
				c0.6-0.3,1.2-0.5,1.8-0.8c1.2-0.5,2.5-0.8,3.8-1c1.2-0.2,2.4-0.2,3.4-0.2c1,0,1.8,0.2,2.4,0.3c0.6,0.1,0.9,0.2,0.9,0.2
				s-0.3,0.1-0.9,0.2c-0.6,0.1-1.3,0.2-2.3,0.4c-0.9,0.2-2,0.4-3.1,0.7c-0.6,0.1-1.1,0.3-1.7,0.5c-0.6,0.2-1.2,0.4-1.7,0.6
				c-0.6,0.2-1.1,0.4-1.7,0.7c-0.5,0.2-1.1,0.5-1.6,0.7c-1,0.5-2,1-2.8,1.5c-0.8,0.5-1.5,0.9-2,1.2C-1.7,382.1-2,382.3-2,382.3z"/>
		</g>
		<g>
			<path class="st11" d="M3.4,391.3c0,0,0.1-0.2,0.4-0.6c0.3-0.4,0.7-1,1.2-1.5c0.6-0.6,1.3-1.2,2.1-1.8c0.4-0.3,0.9-0.6,1.4-0.8
				c0.2-0.1,0.5-0.3,0.7-0.4c0.2-0.1,0.5-0.2,0.7-0.3c0.5-0.2,1.1-0.4,1.6-0.5c0.5-0.2,1.1-0.2,1.6-0.3c1-0.2,2-0.2,2.8-0.2
				c0.8,0,1.5,0.2,2,0.3c0.5,0.1,0.7,0.2,0.7,0.2s-1,0.2-2.6,0.6c-0.8,0.2-1.6,0.4-2.5,0.7c-0.9,0.3-1.9,0.6-2.8,1
				c-0.2,0.1-0.5,0.2-0.7,0.3c-0.3,0.1-0.4,0.2-0.7,0.3c-0.4,0.2-0.9,0.4-1.3,0.6c-0.9,0.4-1.6,0.9-2.3,1.3
				C4.3,390.8,3.4,391.3,3.4,391.3z"/>
		</g>
		<g>
			<path class="st11" d="M-0.4,388.1c0,0,0.1-0.3,0.5-0.9c0.3-0.5,0.8-1.3,1.5-2.1c0.7-0.8,1.7-1.7,2.8-2.5c0.3-0.2,0.6-0.4,0.9-0.6
				c0.2-0.1,0.3-0.2,0.5-0.3l0.5-0.2c0.6-0.3,1.3-0.6,2-0.9c0.7-0.3,1.4-0.5,2.1-0.6c0.7-0.2,1.4-0.3,2.1-0.3c1.4-0.1,2.7-0.1,3.7,0
				c1.1,0.1,2,0.4,2.6,0.5c0.6,0.2,0.9,0.3,0.9,0.3s-0.4,0-1,0c-0.6,0-1.5,0.1-2.5,0.2c-0.5,0.1-1.1,0.1-1.7,0.2
				c-0.6,0.1-1.2,0.2-1.8,0.3c-0.6,0.1-1.3,0.3-1.9,0.5c-0.6,0.2-1.3,0.4-1.9,0.6c-0.6,0.2-1.2,0.4-1.9,0.8
				c-0.3,0.1-0.6,0.3-0.9,0.4c-0.3,0.1-0.6,0.3-0.9,0.5c-1.1,0.6-2.1,1.3-2.9,1.9c-0.8,0.6-1.5,1.2-2,1.6
				C-0.1,387.9-0.4,388.1-0.4,388.1z"/>
		</g>
		<circle class="st24" cx="-86.6" cy="383" r="19"/>
		<path class="st3" d="M-83.8,371.4c-1.2-0.3-3.2,1.4-3.7,3.4c-0.5,2.6,1.9,4.9,1.5,5.2c-0.4,0.3-2.4-0.9-2.8-2.7
			c-0.2-1,0.2-1.6-0.1-1.9c-0.6-0.4-2.7,1.1-4.1,3c-0.5,0.7-2.3,3.3-1.4,5.5c0.4,1.1,1.2,1.2,2.5,2.3c2.5,2.1,3.1,5.2,3.1,5.2h2.9
			c0.3,0,0.1-1,0.1-1.6c0-2,2.2-4,3.4-3.7c0.6,0.2,1,0.9,1,1.5c0.1,1.1-1.2,2.2-1.8,2c-0.4-0.2-0.4-1-0.6-1c-0.3,0-0.8,1.1-0.4,1.7
			c0.4,0.6,1.6,0.5,1.9,0.4c2.4-0.3,4.4-3.2,5.1-5.8c0.1-0.5,1.1-4.3-0.8-6.3c-1-1-1.6-0.5-2.8-1.5
			C-83.2,375.1-82.3,371.8-83.8,371.4z"/>
		<polygon class="st3" points="-88.7,392.4 -88.3,394.5 -86.4,394.5 -85.8,392.4 		"/>
		<circle class="st24" cx="-40.4" cy="370.3" r="19.3"/>
		<line class="st14" x1="-43.4" y1="370.5" x2="-36.4" y2="370.5"/>
		<line class="st14" x1="-40.4" y1="367.5" x2="-40.4" y2="374.5"/>
		<line class="st18" x1="-36.4" y1="364.5" x2="-31.4" y2="364.5"/>
		<line class="st18" x1="-34.4" y1="362.5" x2="-34.4" y2="367.5"/>
		<line class="st14" x1="-48.4" y1="364.5" x2="-43.4" y2="364.5"/>
		<line class="st14" x1="-46.4" y1="362.5" x2="-46.4" y2="367.5"/>
		<line class="st20" x1="-36.4" y1="376.5" x2="-31.4" y2="376.5"/>
		<line class="st20" x1="-34.4" y1="374.5" x2="-34.4" y2="379.5"/>
		<line class="st16" x1="-48.4" y1="376.5" x2="-43.4" y2="376.5"/>
		<line class="st16" x1="-46.4" y1="374.5" x2="-46.4" y2="379.5"/>
		<line class="st18" x1="-42.4" y1="361.5" x2="-38.4" y2="361.5"/>
		<line class="st18" x1="-40.4" y1="359.5" x2="-40.4" y2="363.5"/>
		<line class="st25" x1="-42.4" y1="380.5" x2="-38.4" y2="380.5"/>
		<line class="st25" x1="-40.4" y1="378.5" x2="-40.4" y2="382.5"/>
		<line class="st25" x1="-32.4" y1="371.5" x2="-28.4" y2="371.5"/>
		<line class="st25" x1="-30.4" y1="369.5" x2="-30.4" y2="373.5"/>
		<line class="st18" x1="-52.4" y1="371.5" x2="-48.4" y2="371.5"/>
		<line class="st18" x1="-50.4" y1="369.5" x2="-50.4" y2="373.5"/>
		<g>
			<circle class="st6" cx="-381.7" cy="427.8" r="26"/>
		</g>
		<g>
			<g>
				<defs>
					<circle id="SVGID_1_" cx="-380.9" cy="427.8" r="26"/>
				</defs>
				<clipPath id="SVGID_2_">
					<use xlink:href="#SVGID_1_"  style="overflow:visible;"/>
				</clipPath>
				<g class="st26">
					<g>
						<g>
							<rect x="-383.4" y="443.5" class="st27" width="5" height="8"/>
						</g>
					</g>
					<g>
						<g>
							<rect x="-383.4" y="440.5" class="st28" width="5" height="8"/>
						</g>
					</g>
					<g>
						<g>
							<circle class="st27" cx="-397.4" cy="434.2" r="2.9"/>
						</g>
					</g>
					<g>
						<g>
							<circle class="st27" cx="-365.1" cy="433.1" r="2.9"/>
						</g>
					</g>
					<g>
						<g>
							<circle class="st29" cx="-365.3" cy="433.2" r="1.7"/>
						</g>
					</g>
					<g>
						<g>
							<circle class="st29" cx="-397.5" cy="434.2" r="1.7"/>
						</g>
					</g>
					<g>
						<g>
							<ellipse class="st27" cx="-381.4" cy="429.5" rx="16.7" ry="16.2"/>
						</g>
					</g>
					<g>
						<g>
							<circle class="st30" cx="-387.6" cy="434.2" r="1"/>
						</g>
					</g>
					<g>
						<g>
							<circle class="st30" cx="-373.8" cy="434.2" r="1"/>
						</g>
					</g>
					<g class="st31">
						<g>
							<g>
								<path class="st24" d="M-384.8,439.2c0,0,0.1,0.1,0.4,0.1c0.2,0.1,0.6,0.2,1,0.3c0.1,0,0.2,0.1,0.3,0.1
									c0.1,0,0.2,0.1,0.3,0.1c0.1,0,0.2,0.1,0.3,0.1c0.1,0,0.2,0,0.3,0.1c0.2,0,0.5,0.1,0.7,0.1c0.2,0,0.5,0.2,0.7,0.2l0.1,0.2h0
									h0c0,0-0.1-0.2,0-0.2l0,0.1l0,0.1h0.1l0.2-0.2l0.1-0.1l0.1,0l0.2,0c0.1,0,0.1,0,0.2,0c0.1,0,0.1,0,0.2,0
									c0.1,0,0.2,0,0.4-0.1c0.1,0,0.2-0.1,0.3-0.1c0.1,0,0.2-0.1,0.3-0.1c0.2-0.1,0.4-0.1,0.6-0.2c0.2-0.1,0.4-0.1,0.5-0.2
									c0.2-0.1,0.3-0.1,0.4-0.2c0.2-0.1,0.4-0.2,0.4-0.2s0,0,0,0.1c0,0.1-0.1,0.2-0.1,0.3c-0.1,0.2-0.3,0.6-0.7,0.9
									c-0.2,0.2-0.4,0.3-0.6,0.5c-0.1,0.1-0.2,0.1-0.4,0.2c-0.1,0.1-0.3,0.1-0.4,0.2c-0.3,0.1-0.6,0.2-0.9,0.3c-0.1,0-0.2,0-0.2,0
									l-0.1,0l-0.1,0l-0.2,0l-0.1,0l0,0.4l-0.1,0.4h-0.1c-0.3,0-0.6-0.4-1-0.5c-0.2,0-0.3-0.3-0.5-0.3c-0.1,0-0.3-0.2-0.4-0.2
									c-0.1-0.1-0.3-0.2-0.4-0.2c-0.1-0.1-0.2-0.2-0.4-0.2c-0.2-0.1-0.4-0.3-0.6-0.5c-0.3-0.3-0.6-0.6-0.7-0.9
									C-384.7,439.4-384.8,439.2-384.8,439.2z"/>
							</g>
						</g>
					</g>
					<g>
						<g>
							<path class="st30" d="M-381.9,427c5.3-4.5,7.3-11.3,5.7-17.5c-5.8-2.6-12.9-1.8-18.2,2.6s-7.3,11.3-5.7,17.5
								C-394.3,432.3-387.2,431.5-381.9,427z"/>
						</g>
					</g>
					<g>
						<g>
							<path class="st30" d="M-385.3,410c0.4,1.7,1.7,2.9,3.1,3.3c1.1-1,1.6-2.7,1.1-4.4c-0.4-1.7-1.7-2.9-3.1-3.3
								C-385.3,406.6-385.7,408.3-385.3,410z"/>
						</g>
					</g>
					<g>
						<g>
							<path class="st30" d="M-381.7,408.4c-0.8,1.6-0.7,3.3,0.1,4.5c1.5,0,3-0.9,3.8-2.5c0.8-1.6,0.7-3.3-0.1-4.5
								C-379.3,406-380.8,406.9-381.7,408.4z"/>
						</g>
					</g>
					<g>
						<g>
							<path class="st30" d="M-368.9,411.7c-5.1-4.1-11.8-4.6-17.2-2c-1.4,5.8,0.7,12.2,5.8,16.3c5.1,4,11.8,4.6,17.2,2
								C-361.8,422.2-363.8,415.7-368.9,411.7z"/>
						</g>
					</g>
					<g>
						<g>
							<ellipse class="st27" cx="-381" cy="453.5" rx="5.8" ry="2.8"/>
						</g>
					</g>
				</g>
			</g>
		</g>
		<path class="st5" d="M-269,428.1c0,14.3-11.6,25.9-25.9,25.9s-25.9-11.6-25.9-25.9s11.6-25.9,25.9-25.9S-269,413.8-269,428.1"/>
		<g>
			<circle class="st32" cx="-338" cy="382.3" r="26"/>
		</g>
		<path class="st7" d="M-268.9,428c0,14.4-11.6,26-26,26c-14.4,0-26-11.6-26-26s11.6-26,26-26S-268.9,413.6-268.9,428"/>
		<g>
			<g>
				<g>
					<path class="st23" d="M-348.6,434.7c-0.3,0-0.5-0.1-0.6-0.4c-0.2-0.3,0-0.8,0.3-0.9l0.9-0.5c0.3-0.2,0.8,0,0.9,0.3
						c0.2,0.3,0,0.8-0.3,0.9l-0.9,0.5C-348.4,434.6-348.5,434.7-348.6,434.7z"/>
				</g>
			</g>
			<g>
				<g>
					<path class="st23" d="M-352.3,436.5c-0.3,0-0.5-0.1-0.6-0.4c-0.2-0.3,0-0.8,0.3-0.9l1.3-0.6c0.3-0.2,0.8,0,0.9,0.3
						c0.2,0.3,0,0.8-0.3,0.9l-1.3,0.6C-352,436.5-352.1,436.5-352.3,436.5z"/>
				</g>
			</g>
		</g>
		<g>
			<g>
				<g>
					<path class="st23" d="M-337.6,415.3c-0.1,0.2-0.4,0.4-0.6,0.4c-0.4,0-0.7-0.3-0.7-0.7l0-1.1c0-0.4,0.3-0.7,0.7-0.7
						c0.4,0,0.7,0.3,0.7,0.7l0,1.1C-337.5,415.1-337.5,415.2-337.6,415.3z"/>
				</g>
			</g>
			<g>
				<g>
					<path class="st23" d="M-337.6,419.4c-0.1,0.2-0.4,0.4-0.6,0.4c-0.4,0-0.7-0.3-0.7-0.7l0-1.4c0-0.4,0.3-0.7,0.7-0.7
						c0.4,0,0.7,0.3,0.7,0.7l0,1.4C-337.6,419.2-337.6,419.3-337.6,419.4z"/>
				</g>
			</g>
		</g>
		<g>
			<g>
				<g>
					<path class="st23" d="M-327.7,434.8c-0.1,0-0.2,0-0.3-0.1l-1-0.4c-0.4-0.2-0.5-0.6-0.3-0.9c0.2-0.4,0.6-0.5,0.9-0.3l1,0.4
						c0.4,0.2,0.5,0.6,0.3,0.9C-327.2,434.7-327.5,434.8-327.7,434.8z"/>
				</g>
			</g>
			<g>
				<g>
					<path class="st23" d="M-324.4,436.3c-0.1,0-0.2,0-0.3-0.1l-1.1-0.5c-0.4-0.2-0.5-0.6-0.3-0.9c0.2-0.4,0.6-0.5,0.9-0.3l1.1,0.5
						c0.4,0.2,0.5,0.6,0.3,0.9C-323.9,436.2-324.2,436.3-324.4,436.3z"/>
				</g>
			</g>
		</g>
		<g>
			<g>
				<defs>
					<circle id="SVGID_3_" cx="-338" cy="382.3" r="26"/>
				</defs>
				<clipPath id="SVGID_4_">
					<use xlink:href="#SVGID_3_"  style="overflow:visible;"/>
				</clipPath>
				<g class="st33">
					<g>
						<circle class="st34" cx="-350.6" cy="389.5" r="7.7"/>
					</g>
					<g>
						<circle class="st34" cx="-325.8" cy="389.2" r="7.7"/>
					</g>
					<g>
						<circle class="st35" cx="-325.5" cy="387.3" r="2.8"/>
					</g>
					<g>
						<circle class="st36" cx="-325.7" cy="387.4" r="1.6"/>
					</g>
					<g>
						<circle class="st35" cx="-350.9" cy="387.3" r="2.8"/>
					</g>
					<g>
						<circle class="st36" cx="-351.1" cy="387.4" r="1.6"/>
					</g>
					<g>
						<rect x="-339.4" y="396.5" class="st35" width="4" height="10"/>
					</g>
					<g>
						<rect x="-339.4" y="395.5" class="st37" width="4" height="5"/>
					</g>
					<g>
						<path class="st35" d="M-324.8,384c0.2,10.9-6,15.8-13.5,15.8c-7.4,0-13.5-5.8-13.5-15.8c0-7.7,6-12.2,13.5-12.2
							S-325,376.3-324.8,384z"/>
					</g>
					<g>
						<circle class="st8" cx="-344.7" cy="388.1" r="1"/>
					</g>
					<g>
						<circle class="st8" cx="-331.7" cy="388.1" r="1"/>
					</g>
					<g>
						<g>
							<path class="st36" d="M-337.9,395.7c1.4,0,2.5-0.3,2.8-2.3h-5.7C-340.5,395.5-339.3,395.7-337.9,395.7z"/>
						</g>
					</g>
					<g>
						<path class="st34" d="M-343.2,379.7c0.5-0.6,1.3-1.7,1.5-1.7c0,0,1.1,1.7,2.1,2.7c0,0,1.9,3.5,17.4,3.7
							c-0.3-11.8-7.1-18.1-15.8-18.1c-8.9,0-16.1,6.2-16.4,19.2h1.2C-346.4,384.5-344.4,381.3-343.2,379.7z"/>
					</g>
					<g>
						<path class="st34" d="M-341,367.5c0.4,1.5,1.5,2.6,2.8,3c1-0.9,1.4-2.4,1-3.9c-0.4-1.5-1.5-2.6-2.8-3
							C-340.9,364.5-341.4,366-341,367.5z"/>
					</g>
					<g>
						<path class="st34" d="M-337.7,366.1c-0.7,1.4-0.6,3,0.1,4.1c1.3,0,2.7-0.8,3.4-2.2s0.6-3-0.1-4.1
							C-335.6,363.9-337,364.7-337.7,366.1z"/>
					</g>
					<g>
						<ellipse class="st35" cx="-337.9" cy="407.2" rx="5.2" ry="2.5"/>
					</g>
				</g>
			</g>
		</g>
		<g>
			<g>
				<defs>
					<path id="SVGID_5_" d="M-268.9,428c0,14.4-11.6,26-26,26c-14.4,0-26-11.6-26-26s11.6-26,26-26S-268.9,413.6-268.9,428"/>
				</defs>
				<clipPath id="SVGID_6_">
					<use xlink:href="#SVGID_5_"  style="overflow:visible;"/>
				</clipPath>
				<g class="st38">
					<g>
						<rect x="-313" y="427.2" class="st8" width="35.9" height="26.3"/>
					</g>
					<g>
						<circle class="st35" cx="-281.3" cy="431.6" r="2.9"/>
					</g>
					<g>
						<circle class="st36" cx="-281.5" cy="431.7" r="1.7"/>
					</g>
					<g>
						<circle class="st39" cx="-308.1" cy="431.6" r="2.9"/>
					</g>
					<g>
						<circle class="st36" cx="-308.2" cy="431.7" r="1.7"/>
					</g>
					<g>
						<path class="st39" d="M-294.4,455.5c-1.5,0-3-1.2-3-2.7v-10.2c0-1.5,1.5-2.7,3-2.7s3,1.2,3,2.7v10.2
							C-291.4,454.2-292.9,455.5-294.4,455.5z"/>
					</g>
					<g class="st40">
						<rect x="-297.4" y="441.5" class="st37" width="6" height="7"/>
					</g>
					<g>
						<path class="st39" d="M-280.6,428.2c0,8.1-6.4,16.6-14.2,16.6s-14.2-8.5-14.2-16.6c0-8.1,6.4-12.8,14.2-12.8
							S-280.6,420-280.6,428.2z"/>
					</g>
					<g>
						<circle class="st8" cx="-301.1" cy="434.1" r="1"/>
					</g>
					<g>
						<circle class="st8" cx="-287.4" cy="434.1" r="1"/>
					</g>
					<g>
						<path class="st8" d="M-300.5,423.3l1.4,4.2h1l1.1-3.2l1.1,3.2h18.7c0-11-7.7-18.6-17.6-18.6c-9.9,0-17.9,7.6-18.3,18.6h11.1
							L-300.5,423.3z"/>
					</g>
					<g>
						<circle class="st12" cx="-280" cy="434.6" r="1"/>
					</g>
					<g>
						<circle class="st12" cx="-309.1" cy="434.8" r="1"/>
					</g>
					<g>
						<g>
							<path class="st36" d="M-294.4,441.8c1.5,0,2.7-0.4,3-2.4h-6C-297.1,441.5-295.8,441.8-294.4,441.8z"/>
						</g>
					</g>
					<g>
						<ellipse class="st39" cx="-294.6" cy="453.3" rx="5.8" ry="2.8"/>
					</g>
				</g>
			</g>
		</g>
		<g>
			<path class="st3" d="M-334.4,432.5h-2v-2.1l1.3-1.4l-1.3-1.3v-3.3h2h1.6c-1.3-1-3.4-2.7-5.7-2.7c-1.8,0-3.4,0.7-4.7,1.7h1.9v2h3
				v2.3l0.5,1.2l-2.7,2.6h-2l0.5,2.4l1.5,2.5c0,0,0,0,0.1,0c0.6,0.2,1.3,0.2,2,0.2c0.8,0,1.5-0.1,2.2-0.3c0.7-0.2,1-0.6,2-1v-0.8
				L-334.4,432.5L-334.4,432.5z"/>
			<path class="st21" d="M-342.6,431.5h2l2.7-2.6l-0.5-1.2v-2.3h-3v-2h-1.9c-0.1,0-0.2,0.3-0.4,0.4c-1.4,1.3-2.3,3.2-2.3,5.3
				c0,3.3,2.2,6.2,5.3,7l-1.5-2.4L-342.6,431.5z"/>
			<path class="st21" d="M-333.2,434.1c1.2-1.3,1.9-3.1,1.9-5c0-1.7-0.6-3.6-1.6-4.6h-1.6h-2v3.3l1.3,1.3l-1.3,1.4v2.1h2v1.9v0.8
				C-333.4,434.9-333.6,434.5-333.2,434.1z"/>
		</g>
	</g>
	<g>
		<path class="st3" d="M164,450.7c0,1.8-1.5,3.3-3.3,3.3H67.6c-0.9,0-1.6-0.7-1.6-1.6v-78.8c0-0.9,0.7-1.6,1.6-1.6h94.8
			c0.9,0,1.6,0.7,1.6,1.6V450.7z"/>
	</g>
	<g>
		<path class="st8" d="M164,381H63v-7.6c0-0.9,0.6-1.4,1.5-1.4h97.5c0.9,0,2.1,0.6,2.1,1.5V381z"/>
	</g>
	<g>
		<circle class="st6" cx="146.9" cy="376.3" r="1.8"/>
	</g>
	<g>
		<circle class="st5" cx="152.6" cy="376.3" r="1.8"/>
	</g>
	<g>
		<circle class="st12" cx="158.3" cy="376.3" r="1.8"/>
	</g>
	<g>
		<circle class="st6" cx="138.9" cy="363.3" r="1.8"/>
	</g>
	<g>
		<circle class="st5" cx="144.6" cy="363.3" r="1.8"/>
	</g>
	<g>
		<circle class="st12" cx="150.3" cy="363.3" r="1.8"/>
	</g>
	<g>
		<path class="st17" d="M75,454h-9.4c-1.5,0-2.6-1.1-2.6-2.5V381h12V454z"/>
	</g>
	<g>
		<circle class="st23" cx="69.4" cy="397.3" r="1.5"/>
	</g>
	<g>
		<circle class="st23" cx="69.4" cy="391.3" r="1.5"/>
	</g>
	<g>
		<circle class="st23" cx="69.6" cy="404.2" r="1.5"/>
	</g>
	<g>
		<circle class="st23" cx="69.4" cy="410.8" r="1.5"/>
	</g>
	<g>
		<circle class="st23" cx="69.6" cy="417.6" r="1.5"/>
	</g>
	<g>
		<circle class="st23" cx="60.4" cy="383.3" r="1.5"/>
	</g>
	<g>
		<circle class="st23" cx="60.6" cy="390.2" r="1.5"/>
	</g>
	<g>
		<circle class="st23" cx="60.4" cy="396.8" r="1.5"/>
	</g>
	<g>
		<circle class="st23" cx="60.6" cy="403.6" r="1.5"/>
	</g>
	<g>
		<circle class="st23" cx="69.6" cy="424.2" r="1.5"/>
	</g>
	<polygon class="st21" points="164,389 126.6,389 108,408.6 108,429 164,429 	"/>
	<polygon class="st21" points="74.9,427 95,427 95,440.3 111.6,446 127,446 127,454.1 74.8,453.8 	"/>
	<path class="st8" d="M149,429.4c0,0.9-0.7,1.6-1.6,1.6H90.6c-0.9,0-1.6-0.7-1.6-1.6v-32.8c0-0.9,0.7-1.6,1.6-1.6h56.8
		c0.9,0,1.6,0.7,1.6,1.6V429.4z"/>
	<path class="st11" d="M149,398H89v-2.9c0-0.6,0.5-1.1,1.1-1.1h58.3c0.3,0,0.5,0.2,0.5,0.5V398z"/>
	<g>
		<g>
			<path class="st3" d="M105,412h-2v-2l1.2-1.3l-1.2-1.2V405h1.8h1.5c-1.2-2-3.2-2.6-5.3-2.6c-1.7,0-3.2,0.6-4.4,1.6H99v1h2v2.5
				l0.6,1.1l-2.5,2.4h-1.9l0.5,2.2l1.4,2.3c0,0,0,0,0,0c0.6,0.2,1.2,0.2,1.8,0.2c0.7,0,1.5-0.1,2.1-0.3c0.6-0.2,0.9-0.5,1.9-0.9
				v-0.8V412z"/>
		</g>
		<g>
			<path class="st21" d="M97.2,411h1.9l2.5-2.4l-0.6-1.1V405h-2v-1h-2.4c-0.1,0-0.2,0-0.3,0.1c-1.3,1.2-2.1,2.9-2.1,4.8
				c0,3.1,2.1,5.7,4.9,6.5l-1.4-2.2L97.2,411z"/>
		</g>
		<g>
			<path class="st21" d="M106.1,413.4c1.1-1.2,1.7-2.6,1.7-4.4c0-1.6-0.6-3-1.5-4h-1.5H103v2.5l1.2,1.2L103,410v2h2v1.7v0.8
				C105,414.2,105.7,413.8,106.1,413.4z"/>
		</g>
	</g>
	<path class="st6" d="M111,416.4c0,0.9-0.7,1.6-1.6,1.6h-6.9c-0.9,0-1.6-0.7-1.6-1.6v-6.9c0-0.9,0.7-1.6,1.6-1.6h6.9
		c0.9,0,1.6,0.7,1.6,1.6V416.4z"/>
	<path class="st23" d="M143,407.8c0,0.6-0.5,1.2-1.2,1.2h-23.7c-0.6,0-1.2-0.5-1.2-1.2v-3.7c0-0.6,0.5-1.2,1.2-1.2h23.7
		c0.6,0,1.2,0.5,1.2,1.2V407.8z"/>
	<path class="st24" d="M108.5,414h-4.8c-0.3,0-0.5-0.2-0.5-0.5v-0.5c0-0.3,0.2-0.5,0.5-0.5h4.8c0.3,0,0.5,0.2,0.5,0.5v0.5
		C109,413.8,108.8,414,108.5,414z"/>
	<path class="st24" d="M105.4,415.5v-4.1c0-0.3,0.2-0.5,0.5-0.5h0.7c0.3,0,0.5,0.2,0.5,0.5v4.1c0,0.3-0.2,0.5-0.5,0.5h-0.7
		C105.6,416,105.4,415.8,105.4,415.5z"/>
	<path class="st23" d="M143,416.8c0,0.6-0.5,1.2-1.2,1.2h-23.7c-0.6,0-1.2-0.5-1.2-1.2v-3.7c0-0.6,0.5-1.2,1.2-1.2h23.7
		c0.6,0,1.2,0.5,1.2,1.2V416.8z"/>
	<g>
		<path class="st5" d="M143,425.7c0,0.7-0.6,1.3-1.3,1.3h-15.4c-0.7,0-1.3-0.6-1.3-1.3v-3.4c0-0.7,0.6-1.3,1.3-1.3h15.4
			c0.7,0,1.3,0.6,1.3,1.3V425.7z"/>
	</g>
	<g id="layer1" transform="translate(-145.76413,-328.39878)">
		<g id="path256">
			<path class="st41" d="M413.1,673.8c-0.7,0-1.2,0.5-1.2,1.1s0.5,1.1,1.2,1.1s1.2-0.5,1.2-1.1S413.7,673.8,413.1,673.8z
				 M396.3,677.2c-2.1,0-3.9,1.5-3.9,3.7c0,2.2,1.7,3.7,3.9,3.7c1,0,1.9-0.3,2.7-1.1l-1.1-1.1c-0.4,0.4-1,0.7-1.7,0.7
				c-1,0-1.8-0.6-1.9-1.7h5.4v-0.5C399.6,678.6,398.3,677.2,396.3,677.2L396.3,677.2z M403.2,677.2c-1.4,0-2.9,0.7-2.9,2.3
				c0,2.7,3.8,1.6,3.8,3c0,0.6-0.7,0.8-1.2,0.8c-0.8,0-1.2-0.4-1.7-0.9l-1.1,1.1c0.7,0.8,1.7,1.1,2.7,1.1c1.4,0,3.1-0.6,3.1-2.3
				c0-2.8-3.8-1.7-3.8-3c0-0.5,0.6-0.8,1-0.8c0.6,0,1,0.2,1.4,0.7l1.1-1.1C405.1,677.5,404.1,677.2,403.2,677.2L403.2,677.2z
				 M410.7,677.2c-0.9,0-1.7,0.5-2.1,1.3h0v-1.1h-1.8v7.1h1.8v-3.8c0-0.4,0.2-1.8,1.9-1.8c0.3,0,0.5,0,0.8,0.1l0.1-1.7
				C411.1,677.3,410.9,677.2,410.7,677.2L410.7,677.2z M412.2,677.4v7.1h1.8v-7.1H412.2L412.2,677.4z M396.1,678.5
				c1.1,0,1.8,0.6,1.8,1.7h-3.6C394.4,679.2,395,678.5,396.1,678.5L396.1,678.5z"/>
		</g>
	</g>
	<g>
		<path class="st41" d="M272,351.3c-0.7,0-1.2,0.5-1.2,1.1c0,0.6,0.5,1.1,1.2,1.1s1.2-0.5,1.2-1.1S272.7,351.3,272,351.3z"/>
	</g>
	<g>
		<path class="st41" d="M242.7,351.4c-0.7,0-1.2,0.5-1.2,1.1c0,0.6,0.5,1.1,1.2,1.1s1.2-0.5,1.2-1.1
			C243.9,351.9,243.4,351.4,242.7,351.4z"/>
	</g>
	<g>
		<path class="st41" d="M280.5,347.6c1.2,0,2.1,0.4,2.9,1.1c0.1,0.1,0.1,0.2,0,0.3l-0.9,1c-0.1,0.1-0.2,0.1-0.3,0
			c-0.4-0.4-1-0.6-1.6-0.6c-1.4,0-2.4,1.1-2.4,2.5c0,1.3,1,2.4,2.4,2.4c0.6,0,1.2-0.2,1.6-0.6c0.1-0.1,0.2-0.1,0.3,0l0.9,1
			c0.1,0.1,0.1,0.2,0,0.3c-0.8,0.8-1.9,1.2-2.9,1.2c-2.4,0-4.3-1.9-4.3-4.3C276.1,349.6,278.1,347.6,280.5,347.6z"/>
		<path class="st41" d="M288.5,347.6c2.4,0,4.3,1.9,4.3,4.3c0,2.4-1.9,4.3-4.3,4.3c-2.4,0-4.3-1.9-4.3-4.3
			C284.2,349.6,286.1,347.6,288.5,347.6z M288.5,354.4c1.3,0,2.4-1.1,2.4-2.4c0-1.3-1.1-2.4-2.4-2.4c-1.3,0-2.4,1.1-2.4,2.4
			C286.1,353.3,287.2,354.4,288.5,354.4z"/>
		<path class="st41" d="M294.3,347.9c0-0.1,0.1-0.2,0.2-0.2h0.3l4.8,4.6h0V348c0-0.1,0.1-0.2,0.2-0.2h1.4c0.1,0,0.2,0.1,0.2,0.2v8.1
			c0,0.1-0.1,0.2-0.2,0.2h-0.2c0,0-0.1,0-0.2-0.1l-4.8-4.8h0v4.5c0,0.1-0.1,0.2-0.2,0.2h-1.4c-0.1,0-0.2-0.1-0.2-0.2L294.3,347.9z"
			/>
		<path class="st41" d="M303.6,347.9c0-0.1,0.1-0.2,0.2-0.2h0.3l4.8,4.6h0V348c0-0.1,0.1-0.2,0.2-0.2h1.4c0.1,0,0.2,0.1,0.2,0.2v8.1
			c0,0.1-0.1,0.2-0.2,0.2h-0.2c0,0-0.1,0-0.2-0.1l-4.8-4.8h0v4.5c0,0.1-0.1,0.2-0.2,0.2h-1.4c-0.1,0-0.2-0.1-0.2-0.2L303.6,347.9z"
			/>
		<path class="st41" d="M312.9,348c0-0.1,0.1-0.2,0.2-0.2h5c0.1,0,0.2,0.1,0.2,0.2v1.3c0,0.1-0.1,0.2-0.2,0.2h-3.3v1.5h2.7
			c0.1,0,0.2,0.1,0.2,0.2v1.3c0,0.1-0.1,0.2-0.2,0.2h-2.7v1.6h3.3c0.1,0,0.2,0.1,0.2,0.2v1.3c0,0.1-0.1,0.2-0.2,0.2h-5
			c-0.1,0-0.2-0.1-0.2-0.2V348z"/>
		<path class="st41" d="M323.7,347.6c1.2,0,2.1,0.4,2.9,1.1c0.1,0.1,0.1,0.2,0,0.3l-0.9,1c-0.1,0.1-0.2,0.1-0.3,0
			c-0.4-0.4-1-0.6-1.6-0.6c-1.4,0-2.4,1.1-2.4,2.5c0,1.3,1,2.4,2.4,2.4c0.6,0,1.2-0.2,1.6-0.6c0.1-0.1,0.2-0.1,0.3,0l0.9,1
			c0.1,0.1,0.1,0.2,0,0.3c-0.8,0.8-1.9,1.2-2.9,1.2c-2.4,0-4.3-1.9-4.3-4.3C319.4,349.6,321.3,347.6,323.7,347.6z"/>
		<path class="st41" d="M329.1,349.5h-1.7c-0.1,0-0.2-0.1-0.2-0.2V348c0-0.1,0.1-0.2,0.2-0.2h5.3c0.1,0,0.2,0.1,0.2,0.2v1.3
			c0,0.1-0.1,0.2-0.2,0.2h-1.7v6.4c0,0.1-0.1,0.2-0.2,0.2h-1.4c-0.1,0-0.2-0.1-0.2-0.2V349.5z"/>
	</g>
	<g>
		<path class="st41" d="M191.8,347.7c0-0.1,0.1-0.2,0.2-0.2h0.2c0.1,0,0.2,0,0.2,0.1l2.8,5.2h0l2.8-5.2c0-0.1,0.1-0.1,0.2-0.1h0.2
			c0.1,0,0.2,0.1,0.2,0.2l1.4,8.1c0,0.2-0.1,0.3-0.2,0.3h-1.4c-0.1,0-0.2-0.1-0.2-0.2l-0.5-3.7h0l-2,3.9c0,0.1-0.1,0.1-0.2,0.1h-0.2
			c-0.1,0-0.2-0.1-0.2-0.1l-2-3.9h0l-0.5,3.7c0,0.1-0.1,0.2-0.2,0.2h-1.4c-0.1,0-0.3-0.1-0.2-0.3L191.8,347.7z"/>
		<path class="st41" d="M200.5,355.8l3.8-8.1c0-0.1,0.1-0.1,0.2-0.1h0.1c0.1,0,0.2,0.1,0.2,0.1l3.8,8.1c0.1,0.2,0,0.3-0.2,0.3H207
			c-0.2,0-0.3-0.1-0.4-0.3l-0.4-1h-3.3l-0.4,1c-0.1,0.1-0.2,0.3-0.4,0.3h-1.3C200.5,356.1,200.4,355.9,200.5,355.8z M205.4,353.2
			l-0.9-2h0l-0.9,2H205.4z"/>
		<path class="st41" d="M209.5,347.9c0-0.1,0.1-0.2,0.2-0.2h2.9c1.5,0,2.7,1.2,2.7,2.7c0,1.5-1.2,2.7-2.7,2.7h-1.3v2.8
			c0,0.1-0.1,0.2-0.2,0.2h-1.4c-0.1,0-0.2-0.1-0.2-0.2V347.9z M212.5,351.3c0.5,0,1-0.4,1-1c0-0.5-0.4-0.9-1-0.9h-1.1v1.8H212.5z"/>
		<path class="st41" d="M216.6,347.9c0-0.1,0.1-0.2,0.2-0.2h2.8c1.4,0,2.6,1,2.6,2.2c0,0.9-0.8,1.6-1.4,1.9c0.6,0.3,1.6,0.9,1.6,2
			c0,1.3-1.2,2.3-2.6,2.3h-3c-0.1,0-0.2-0.1-0.2-0.2V347.9z M219.4,351.1c0.5,0,0.8-0.4,0.8-0.9c0-0.5-0.4-0.8-0.8-0.8h-0.9v1.7
			H219.4z M219.5,354.4c0.5,0,0.9-0.4,0.9-0.9c0-0.5-0.5-0.8-1-0.8h-1v1.7H219.5z"/>
		<path class="st41" d="M227.6,347.5c2.4,0,4.3,1.9,4.3,4.3c0,2.4-1.9,4.3-4.3,4.3c-2.4,0-4.3-1.9-4.3-4.3
			C223.3,349.5,225.2,347.5,227.6,347.5z M227.6,354.3c1.3,0,2.4-1.1,2.4-2.4c0-1.3-1.1-2.4-2.4-2.4c-1.3,0-2.4,1.1-2.4,2.4
			C225.2,353.2,226.3,354.3,227.6,354.3z"/>
		<path class="st41" d="M235.1,351.8l-2.4-3.8c-0.1-0.2,0-0.3,0.2-0.3h1.8c0.1,0,0.2,0.1,0.2,0.1l1.4,2.2h0l1.4-2.2
			c0,0,0.1-0.1,0.2-0.1h1.8c0.2,0,0.3,0.2,0.2,0.3l-2.4,3.8l2.5,4c0.1,0.2,0,0.3-0.2,0.3H238c-0.1,0-0.2,0-0.2-0.1l-1.6-2.4h0
			l-1.5,2.4c0,0-0.1,0.1-0.2,0.1h-1.7c-0.2,0-0.3-0.2-0.2-0.3L235.1,351.8z"/>
	</g>
	<g id="layer1_1_" transform="translate(-145.76413,-328.39878)">
		<g id="path256_1_">
			<path class="st23" d="M218.8,711.2c-0.2,0-0.4,0.2-0.4,0.4c0,0.2,0.2,0.4,0.4,0.4c0.2,0,0.4-0.2,0.4-0.4
				C219.2,711.3,219,711.2,218.8,711.2z M212.8,712.4c-0.8,0-1.4,0.5-1.4,1.3c0,0.8,0.6,1.3,1.4,1.3c0.4,0,0.7-0.1,1-0.4l-0.4-0.4
				c-0.1,0.2-0.3,0.3-0.6,0.3c-0.4,0-0.6-0.2-0.7-0.6h1.9v-0.2C213.9,712.9,213.5,712.4,212.8,712.4L212.8,712.4z M215.2,712.4
				c-0.5,0-1,0.3-1,0.8c0,1,1.4,0.6,1.4,1.1c0,0.2-0.2,0.3-0.4,0.3c-0.3,0-0.4-0.1-0.6-0.3l-0.4,0.4c0.3,0.3,0.6,0.4,1,0.4
				c0.5,0,1.1-0.2,1.1-0.8c0-1-1.4-0.6-1.4-1.1c0-0.2,0.2-0.3,0.4-0.3c0.2,0,0.4,0.1,0.5,0.3l0.4-0.4
				C215.9,712.5,215.6,712.4,215.2,712.4L215.2,712.4z M217.9,712.4c-0.3,0-0.6,0.2-0.8,0.5h0v-0.4h-0.6v2.5h0.6v-1.4
				c0-0.1,0.1-0.6,0.7-0.6c0.1,0,0.2,0,0.3,0l0-0.6C218.1,712.4,218,712.4,217.9,712.4L217.9,712.4z M218.4,712.4v2.5h0.6v-2.5
				H218.4L218.4,712.4z M212.7,712.9c0.4,0,0.6,0.2,0.6,0.6H212C212.1,713.1,212.3,712.9,212.7,712.9L212.7,712.9z"/>
		</g>
	</g>
	<g>
		<path class="st43" d="M459,438.6c0,0.8-0.6,1.4-1.4,1.4h-95.1c-0.8,0-1.4-0.6-1.4-1.4v-79.1c0-0.8,0.6-1.4,1.4-1.4h95.1
			c0.8,0,1.4,0.6,1.4,1.4V438.6z"/>
	</g>
	<g>
		<path class="st44" d="M370,440h-9.4c-1.5,0-2.6-1.1-2.6-2.5V367h12V440z"/>
	</g>
	<g>
		<polygon class="st41" points="359.4,375.7 362.5,374.8 362.4,378 361.3,376.3 		"/>
		<path class="st45" d="M362.8,374.7c0.1-0.1,0.2-0.4,1.8-0.3c1.4,0,1.5,0.2,1.6,0.4c0,0,0,0.1,0.1,0.6c0,0.8,0,0.9,0.1,1
			c0.2,0.3,0.9,0.3,1.4,0.1c0.2-0.1,0.3-0.2,0.4-0.2c0.1,0.1,0,0.5-0.3,0.8c-0.3,0.3-0.8,0.4-1.5,0.4c-0.8,0.1-1.3,0.1-1.5-0.1
			c-0.5-0.5,0.3-1.8-0.2-2.2c-0.5-0.4-1.7,0.3-1.9-0.1C362.6,375,362.7,374.8,362.8,374.7z"/>
		<path class="st7" d="M364.3,376.1c0.9,0,1.6-1.2,1.6-2.7c0-0.5-0.1-1-0.2-1.4l-2.5,3.3C363.5,375.8,363.9,376.1,364.3,376.1z"/>
		<path class="st7" d="M364.3,370.7c-0.9,0-1.6,1.2-1.6,2.7c0,0.2,0,0.3,0,0.5l2.2-2.9C364.8,370.8,364.6,370.7,364.3,370.7z"/>
		<path class="st45" d="M366.4,371l-0.8,1c0.1,0.4,0.2,0.9,0.2,1.4c0,1.5-0.7,2.7-1.6,2.7c-0.5,0-0.9-0.3-1.1-0.9
			c-0.2-0.4-0.3-0.9-0.4-1.4c0-0.2,0-0.3,0-0.5c0-1.5,0.7-2.7,1.6-2.7c0.2,0,0.5,0.1,0.7,0.3l0.5-0.7c-0.4-0.2-0.8-0.3-1.2-0.3
			c-1.6,0-3,1.5-3,3.4s1.3,3.4,3,3.4c1.6,0,3-1.5,3-3.4C367.3,372.5,367,371.6,366.4,371z"/>
		<path class="st41" d="M367.5,368.5l-3.1,0.5l1.2,1l-0.2,0.2l-0.5,0.7l-2.2,2.9c0.1,0.5,0.2,1,0.4,1.4l2.5-3.3l0.8-1l0.2-0.3
			l1.2,0.9L367.5,368.5z"/>
	</g>
	<g>
		<path class="st46" d="M459,367H358v-7.6c0-0.9,0.6-1.4,1.5-1.4h97.5c0.9,0,2.1,0.6,2.1,1.5V367z"/>
	</g>
	<g>
		<path class="st43" d="M467,449.7c0,1.8-1.5,3.3-3.3,3.3h-93.1c-0.9,0-1.6-0.7-1.6-1.6v-78.8c0-0.9,0.7-1.6,1.6-1.6h94.8
			c0.9,0,1.6,0.7,1.6,1.6V449.7z"/>
	</g>
	<g>
		<path class="st41" d="M467,380H366v-7.6c0-0.9,0.6-1.4,1.5-1.4h97.5c0.9,0,2.1,0.6,2.1,1.5V380z"/>
	</g>
	<g>
		<circle class="st47" cx="449.9" cy="375.3" r="1.8"/>
	</g>
	<g>
		<circle class="st47" cx="455.6" cy="375.3" r="1.8"/>
	</g>
	<g>
		<circle class="st47" cx="461.3" cy="375.3" r="1.8"/>
	</g>
	<g>
		<circle class="st47" cx="441.9" cy="362.3" r="1.8"/>
	</g>
	<g>
		<circle class="st47" cx="447.6" cy="362.3" r="1.8"/>
	</g>
	<g>
		<circle class="st47" cx="453.3" cy="362.3" r="1.8"/>
	</g>
	<g>
		<path class="st48" d="M378,453h-9.4c-1.5,0-2.6-1.1-2.6-2.5V380h12V453z"/>
	</g>
	<g>
		<circle class="st47" cx="372.4" cy="396.3" r="1.5"/>
	</g>
	<g>
		<circle class="st47" cx="372.4" cy="390.3" r="1.5"/>
	</g>
	<g>
		<circle class="st47" cx="372.6" cy="403.2" r="1.5"/>
	</g>
	<g>
		<circle class="st47" cx="372.4" cy="409.8" r="1.5"/>
	</g>
	<g>
		<circle class="st47" cx="372.6" cy="416.6" r="1.5"/>
	</g>
	<g>
		<circle class="st47" cx="363.4" cy="382.3" r="1.5"/>
	</g>
	<g>
		<circle class="st47" cx="363.6" cy="389.2" r="1.5"/>
	</g>
	<g>
		<circle class="st47" cx="363.4" cy="395.8" r="1.5"/>
	</g>
	<g>
		<circle class="st47" cx="363.6" cy="402.6" r="1.5"/>
	</g>
	<g>
		<circle class="st47" cx="372.6" cy="423.2" r="1.5"/>
	</g>
	<polygon class="st49" points="467,388 429.6,388 411,407.6 411,428 467,428 	"/>
	<polygon class="st49" points="377.9,426 398,426 398,439.3 414.6,445 430,445 430,453.1 377.8,452.8 	"/>
	<path class="st44" d="M452,427.5c0,1.4-1.1,2.5-2.5,2.5h-55.1c-1.4,0-2.5-1.1-2.5-2.5v-31.1c0-1.4,1.1-2.5,2.5-2.5h55.1
		c1.4,0,2.5,1.1,2.5,2.5V427.5z"/>
	<g>
		<g>
			<path class="st50" d="M408,411h-2v-2l1.2-1.3l-1.2-1.2V404h1.8h1.5c-1.2-2-3.2-2.6-5.3-2.6c-1.7,0-3.2,0.6-4.4,1.6h2.4v1h2v2.5
				l0.6,1.1l-2.5,2.4h-1.9l0.5,2.2l1.4,2.3c0,0,0,0,0,0c0.6,0.2,1.2,0.2,1.8,0.2c0.7,0,1.5-0.1,2.1-0.3c0.6-0.2,0.9-0.5,1.9-0.9
				v-0.8V411z"/>
		</g>
		<g>
			<path class="st47" d="M400.2,410h1.9l2.5-2.4l-0.6-1.1V404h-2v-1h-2.4c-0.1,0-0.2,0-0.3,0.1c-1.3,1.2-2.1,2.9-2.1,4.8
				c0,3.1,2.1,5.7,4.9,6.5l-1.4-2.2L400.2,410z"/>
		</g>
		<g>
			<path class="st47" d="M409.1,412.4c1.1-1.2,1.7-2.6,1.7-4.4c0-1.6-0.6-3-1.5-4h-1.5H406v2.5l1.2,1.2L406,409v2h2v1.7v0.8
				C408,413.2,408.7,412.8,409.1,412.4z"/>
		</g>
	</g>
	<path class="st43" d="M414,415.4c0,0.9-0.7,1.6-1.6,1.6h-6.9c-0.9,0-1.6-0.7-1.6-1.6v-6.9c0-0.9,0.7-1.6,1.6-1.6h6.9
		c0.9,0,1.6,0.7,1.6,1.6V415.4z"/>
	<path class="st41" d="M446,406.8c0,0.6-0.5,1.2-1.2,1.2h-23.7c-0.6,0-1.2-0.5-1.2-1.2v-3.7c0-0.6,0.5-1.2,1.2-1.2h23.7
		c0.6,0,1.2,0.5,1.2,1.2V406.8z"/>
	<path class="st24" d="M411.5,413h-4.8c-0.3,0-0.5-0.2-0.5-0.5v-0.5c0-0.3,0.2-0.5,0.5-0.5h4.8c0.3,0,0.5,0.2,0.5,0.5v0.5
		C412,412.8,411.8,413,411.5,413z"/>
	<path class="st24" d="M408.4,414.5v-4.1c0-0.3,0.2-0.5,0.5-0.5h0.7c0.3,0,0.5,0.2,0.5,0.5v4.1c0,0.3-0.2,0.5-0.5,0.5h-0.7
		C408.6,415,408.4,414.8,408.4,414.5z"/>
	<path class="st41" d="M446,415.8c0,0.6-0.5,1.2-1.2,1.2h-23.7c-0.6,0-1.2-0.5-1.2-1.2v-3.7c0-0.6,0.5-1.2,1.2-1.2h23.7
		c0.6,0,1.2,0.5,1.2,1.2V415.8z"/>
	<g>
		<path class="st41" d="M446,424.7c0,0.7-0.6,1.3-1.3,1.3h-15.4c-0.7,0-1.3-0.6-1.3-1.3v-3.4c0-0.7,0.6-1.3,1.3-1.3h15.4
			c0.7,0,1.3,0.6,1.3,1.3V424.7z"/>
	</g>
	<g id="layer1_2_" transform="translate(-145.76413,-328.39878)">
		<g id="path256_2_">
			<path class="st51" d="M521.8,710.2c-0.2,0-0.4,0.2-0.4,0.4c0,0.2,0.2,0.4,0.4,0.4c0.2,0,0.4-0.2,0.4-0.4
				C522.2,710.3,522,710.2,521.8,710.2z M515.8,711.4c-0.8,0-1.4,0.5-1.4,1.3c0,0.8,0.6,1.3,1.4,1.3c0.4,0,0.7-0.1,1-0.4l-0.4-0.4
				c-0.1,0.2-0.3,0.3-0.6,0.3c-0.4,0-0.6-0.2-0.7-0.6h1.9v-0.2C516.9,711.9,516.5,711.4,515.8,711.4L515.8,711.4z M518.2,711.4
				c-0.5,0-1,0.3-1,0.8c0,1,1.4,0.6,1.4,1.1c0,0.2-0.2,0.3-0.4,0.3c-0.3,0-0.4-0.1-0.6-0.3l-0.4,0.4c0.3,0.3,0.6,0.4,1,0.4
				c0.5,0,1.1-0.2,1.1-0.8c0-1-1.4-0.6-1.4-1.1c0-0.2,0.2-0.3,0.4-0.3c0.2,0,0.4,0.1,0.5,0.3l0.4-0.4
				C518.9,711.5,518.6,711.4,518.2,711.4L518.2,711.4z M520.9,711.4c-0.3,0-0.6,0.2-0.8,0.5h0v-0.4h-0.6v2.5h0.6v-1.4
				c0-0.1,0.1-0.6,0.7-0.6c0.1,0,0.2,0,0.3,0l0-0.6C521.1,711.4,521,711.4,520.9,711.4L520.9,711.4z M521.4,711.4v2.5h0.6v-2.5
				H521.4L521.4,711.4z M515.7,711.9c0.4,0,0.6,0.2,0.6,0.6H515C515.1,712.1,515.3,711.9,515.7,711.9L515.7,711.9z"/>
		</g>
	</g>
	<g>
		<path class="st52" d="M876,458.7c0,2.4-1.9,4.3-4.3,4.3h-66.4c-2.4,0-4.3-1.9-4.3-4.3v-59.4c0-2.4,1.9-4.3,4.3-4.3h66.4
			c2.4,0,4.3,1.9,4.3,4.3V458.7z"/>
		<path class="st45" d="M861,450.7c0,2.4-1.9,4.3-4.3,4.3h-35.4c-2.4,0-4.3-1.9-4.3-4.3v-36.4c0-2.4,1.9-4.3,4.3-4.3h35.4
			c2.4,0,4.3,1.9,4.3,4.3V450.7z"/>
		<path class="st53" d="M876,406h-75v-7c0-2.4,2.1-4,4.5-4h67.4c2.4,0,3.1,1.6,3.1,3.9V406z"/>
		<path class="st52" d="M854,436.7c0,1.8-1.5,3.3-3.3,3.3h-24.5c-1.8,0-3.3-1.5-3.3-3.3v-4.5c0-1.8,1.5-3.3,3.3-3.3h24.5
			c1.8,0,3.3,1.5,3.3,3.3V436.7z"/>
		<path class="st54" d="M856,448.7c0,1.3-1,2.3-2.3,2.3h-16.4c-1.3,0-2.3-1-2.3-2.3v-3.4c0-1.3,1-2.3,2.3-2.3h16.4
			c1.3,0,2.3,1,2.3,2.3V448.7z"/>
		<circle class="st53" cx="827.7" cy="433.6" r="1.6"/>
		<circle class="st53" cx="832.2" cy="433.6" r="1.6"/>
		<circle class="st53" cx="836.8" cy="433.6" r="1.6"/>
		<circle class="st53" cx="841.3" cy="433.6" r="1.6"/>
		<circle class="st53" cx="846" cy="433.6" r="1.6"/>
		<circle class="st53" cx="850.5" cy="433.6" r="1.6"/>
		<circle class="st55" cx="806.9" cy="399.5" r="1.6"/>
		<circle class="st56" cx="812.5" cy="399.5" r="1.6"/>
		<circle class="st52" cx="827.6" cy="418.1" r="3.1"/>
		<g>
			<path class="st52" d="M827.7,420.2c-2.3,0-4.2,1.8-4.2,3.8h8.3C831.9,422,830,420.2,827.7,420.2z"/>
		</g>
	</g>
	<g>
		<path class="st52" d="M921,475.6c0,2.4-2,4.4-4.4,4.4h-46.2c-2.4,0-4.4-2-4.4-4.4v-96.2c0-2.4,2-4.4,4.4-4.4h46.2
			c2.4,0,4.4,2,4.4,4.4V475.6z"/>
		<rect x="866" y="389" class="st57" width="55" height="75"/>
		<path class="st45" d="M899,383.2c0,0.4-0.3,0.8-0.8,0.8h-14.5c-0.4,0-0.8-0.3-0.8-0.8v-1.5c0-0.4,0.3-0.8,0.8-0.8h14.5
			c0.4,0,0.8,0.3,0.8,0.8V383.2z"/>
		<circle class="st45" cx="901.9" cy="382.5" r="1.4"/>
		<path class="st55" d="M904,417.1c0,1.6-1.3,2.9-2.9,2.9h-15.3c-1.6,0-2.9-1.3-2.9-2.9v-12.3c0-1.6,1.3-2.9,2.9-2.9h15.3
			c1.6,0,2.9,1.3,2.9,2.9V417.1z"/>
		<path class="st57" d="M900,419.6c0,0.8-0.6,1.4-1.4,1.4h-11.2c-0.8,0-1.4-0.6-1.4-1.4v-13.2c0-0.8,0.6-1.4,1.4-1.4h11.2
			c0.8,0,1.4,0.6,1.4,1.4V419.6z"/>
		<path class="st58" d="M915,447.6c0,1.9-1.5,3.4-3.4,3.4h-36.2c-1.9,0-3.4-1.5-3.4-3.4v-6.2c0-1.9,1.5-3.4,3.4-3.4h36.2
			c1.9,0,3.4,1.5,3.4,3.4V447.6z"/>
		<circle class="st53" cx="878.7" cy="444.2" r="2.1"/>
		<circle class="st53" cx="884.4" cy="444.2" r="2.1"/>
		<circle class="st53" cx="890.2" cy="444.2" r="2.1"/>
		<circle class="st53" cx="895.9" cy="444.2" r="2.1"/>
		<circle class="st53" cx="901.9" cy="444.2" r="2.1"/>
		<circle class="st53" cx="907.7" cy="444.2" r="2.1"/>
		<path class="st53" d="M908,425.3c0,1.5-1.2,2.7-2.7,2.7h-24.6c-1.5,0-2.7-1.2-2.7-2.7v-14.6c0-1.5,1.2-2.7,2.7-2.7h24.6
			c1.5,0,2.7,1.2,2.7,2.7V425.3z"/>
		<path class="st55" d="M904,420.5c0,0.8-0.7,1.5-1.5,1.5h-0.1c-0.8,0-1.5-0.7-1.5-1.5v-5.1c0-0.8,0.7-1.5,1.5-1.5h0.1
			c0.8,0,1.5,0.7,1.5,1.5V420.5z"/>
		<path class="st56" d="M889,423.7c0,0.7-0.6,1.3-1.3,1.3h-0.5c-0.7,0-1.3-0.6-1.3-1.3v-10.5c0-0.7,0.6-1.3,1.3-1.3h0.5
			c0.7,0,1.3,0.6,1.3,1.3V423.7z"/>
		<path class="st56" d="M894,418.7c0,0.7-0.6,1.3-1.3,1.3h-10.5c-0.7,0-1.3-0.6-1.3-1.3v-0.5c0-0.7,0.6-1.3,1.3-1.3h10.5
			c0.7,0,1.3,0.6,1.3,1.3V418.7z"/>
		<circle class="st56" cx="887.4" cy="418.5" r="4.5"/>
		<circle class="st55" cx="887.2" cy="418.6" r="2.8"/>
	</g>
	<g>
		<path class="st52" d="M574.1,447h-42.2c-2.1,0-3.9-1.7-3.9-3.9v-82.2c0-2.1,1.7-3.9,3.9-3.9h42.2c2.1,0,3.9,1.7,3.9,3.9v82.2
			C578,445.3,576.3,447,574.1,447z"/>
		<rect x="528" y="370" class="st57" width="50" height="63"/>
		<path class="st45" d="M561,441.7c0,0.7-0.6,1.3-1.3,1.3h-13.5c-0.7,0-1.3-0.6-1.3-1.3v-3.5c0-0.7,0.6-1.3,1.3-1.3h13.5
			c0.7,0,1.3,0.6,1.3,1.3V441.7z"/>
		<path class="st45" d="M559,365.2c0,0.4-0.3,0.8-0.8,0.8h-14.5c-0.4,0-0.8-0.3-0.8-0.8v-1.5c0-0.4,0.3-0.8,0.8-0.8h14.5
			c0.4,0,0.8,0.3,0.8,0.8V365.2z"/>
		<circle class="st45" cx="561.9" cy="364.5" r="1.4"/>
		<path class="st55" d="M564,392.1c0,1.6-1.3,2.9-2.9,2.9h-15.3c-1.6,0-2.9-1.3-2.9-2.9v-12.3c0-1.6,1.3-2.9,2.9-2.9h15.3
			c1.6,0,2.9,1.3,2.9,2.9V392.1z"/>
		<path class="st57" d="M560,394.6c0,0.8-0.6,1.4-1.4,1.4h-11.2c-0.8,0-1.4-0.6-1.4-1.4v-13.2c0-0.8,0.6-1.4,1.4-1.4h11.2
			c0.8,0,1.4,0.6,1.4,1.4V394.6z"/>
		<path class="st58" d="M575,422.6c0,1.9-1.5,3.4-3.4,3.4h-36.2c-1.9,0-3.4-1.5-3.4-3.4v-6.2c0-1.9,1.5-3.4,3.4-3.4h36.2
			c1.9,0,3.4,1.5,3.4,3.4V422.6z"/>
		<circle class="st53" cx="538.7" cy="419.2" r="2.1"/>
		<circle class="st53" cx="544.4" cy="419.2" r="2.1"/>
		<circle class="st53" cx="550.2" cy="419.2" r="2.1"/>
		<circle class="st53" cx="555.9" cy="419.2" r="2.1"/>
		<circle class="st53" cx="561.9" cy="419.2" r="2.1"/>
		<circle class="st53" cx="567.7" cy="419.2" r="2.1"/>
		<path class="st53" d="M568,400.3c0,1.5-1.2,2.7-2.7,2.7h-24.6c-1.5,0-2.7-1.2-2.7-2.7v-14.6c0-1.5,1.2-2.7,2.7-2.7h24.6
			c1.5,0,2.7,1.2,2.7,2.7V400.3z"/>
		<path class="st55" d="M564,395.5c0,0.8-0.7,1.5-1.5,1.5h-0.1c-0.8,0-1.5-0.7-1.5-1.5v-5.1c0-0.8,0.7-1.5,1.5-1.5h0.1
			c0.8,0,1.5,0.7,1.5,1.5V395.5z"/>
		<path class="st56" d="M549,398.7c0,0.7-0.6,1.3-1.3,1.3h-0.5c-0.7,0-1.3-0.6-1.3-1.3v-10.5c0-0.7,0.6-1.3,1.3-1.3h0.5
			c0.7,0,1.3,0.6,1.3,1.3V398.7z"/>
		<path class="st56" d="M554,393.7c0,0.7-0.6,1.3-1.3,1.3h-10.5c-0.7,0-1.3-0.6-1.3-1.3v-0.5c0-0.7,0.6-1.3,1.3-1.3h10.5
			c0.7,0,1.3,0.6,1.3,1.3V393.7z"/>
		<circle class="st56" cx="547.6" cy="393.2" r="4.7"/>
		<circle class="st55" cx="547.5" cy="393.4" r="3"/>
	</g>
	<g>
		<path class="st57" d="M731,440.3c0,2-1.6,3.7-3.7,3.7h-50.7c-2,0-3.7-1.6-3.7-3.7v-74.7c0-2,1.6-3.7,3.7-3.7h50.7
			c2,0,3.7,1.6,3.7,3.7V440.3z"/>
	</g>
	<g>
		<circle class="st59" cx="680.1" cy="426" r="3.8"/>
	</g>
	<g>
		<circle class="st59" cx="680.1" cy="404.6" r="3.8"/>
	</g>
	<g>
		<circle class="st59" cx="680.1" cy="382.7" r="3.8"/>
	</g>
	<g>
		<path class="st58" d="M723,398.8c0,1.7-1.4,3.2-3.2,3.2h-27.7c-1.7,0-3.2-1.4-3.2-3.2v-8.7c0-1.7,1.4-3.2,3.2-3.2h27.7
			c1.7,0,3.2,1.4,3.2,3.2V398.8z"/>
	</g>
	<g>
		<circle class="st54" cx="693.3" cy="395" r="1.7"/>
	</g>
	<g>
		<circle class="st54" cx="698" cy="395" r="1.7"/>
	</g>
	<g>
		<circle class="st54" cx="702.8" cy="395" r="1.7"/>
	</g>
	<g>
		<circle class="st54" cx="707.6" cy="395" r="1.7"/>
	</g>
	<g>
		<circle class="st54" cx="712.6" cy="395" r="1.7"/>
	</g>
	<g>
		<circle class="st54" cx="717.4" cy="395" r="1.7"/>
	</g>
	<g>
		<path class="st54" d="M711,378.5c0,0.8-0.7,1.5-1.5,1.5h-18c-0.8,0-1.5-0.7-1.5-1.5v-6c0-0.8,0.7-1.5,1.5-1.5h18
			c0.8,0,1.5,0.7,1.5,1.5V378.5z"/>
	</g>
	<g>
		<path class="st53" d="M681,426.5c0,1.4-1.1,2.5-2.5,2.5h-10.1c-1.4,0-2.5-1.1-2.5-2.5v-1.1c0-1.4,1.1-2.5,2.5-2.5h10.1
			c1.4,0,2.5,1.1,2.5,2.5V426.5z"/>
	</g>
	<g>
		<path class="st53" d="M681,405.5c0,1.4-1.1,2.5-2.5,2.5h-10.1c-1.4,0-2.5-1.1-2.5-2.5v-1.1c0-1.4,1.1-2.5,2.5-2.5h10.1
			c1.4,0,2.5,1.1,2.5,2.5V405.5z"/>
	</g>
	<g>
		<path class="st53" d="M681,383.5c0,1.4-1.1,2.5-2.5,2.5h-10.1c-1.4,0-2.5-1.1-2.5-2.5v-1.1c0-1.4,1.1-2.5,2.5-2.5h10.1
			c1.4,0,2.5,1.1,2.5,2.5V383.5z"/>
	</g>
	<g>
		<path class="st54" d="M717.7,413h-27.8c-1.1,0-2-0.9-2-2s0.9-2,2-2h27.8c1.1,0,2,0.9,2,2S718.9,413,717.7,413z"/>
	</g>
	<g>
		<path class="st54" d="M720.2,422h-30.3c-1.1,0-2-0.9-2-2s0.9-2,2-2h30.3c1.1,0,2,0.9,2,2S721.3,422,720.2,422z"/>
	</g>
	<g>
		<path class="st54" d="M710,432h-20c-1.1,0-2-0.9-2-2s0.9-2,2-2h20c1.1,0,2,0.9,2,2S711.1,432,710,432z"/>
	</g>
	<g>
		<circle class="st60" cx="589.7" cy="403.4" r="18.8"/>
		<path class="st24" d="M597.8,405.9h-16.6c-1.2,0-2.2-1-2.2-2.2v-0.2c0-1.2,1-2.2,2.2-2.2h16.6c1.2,0,2.2,1,2.2,2.2v0.2
			C600,404.9,599,405.9,597.8,405.9z"/>
		<path class="st24" d="M591.6,412.7c0,1.2-1,2.1-2.2,2.1l0,0c-1.2,0-2.2-1-2.2-2.1v-17c0-1.2,1-2.1,2.2-2.1l0,0
			c1.2,0,2.2,1,2.2,2.1V412.7z"/>
	</g>
	<g>
		<circle class="st60" cx="745.2" cy="403" r="19.2"/>
		<path class="st24" d="M737.5,399.1c0,0,0-0.1,0.1-0.2c0-0.1,0.1-0.2,0.1-0.3c0-0.1,0-0.1,0.1-0.2c0-0.1,0.1-0.2,0.1-0.2
			c0.1-0.2,0.2-0.4,0.3-0.6c0.1-0.2,0.2-0.4,0.4-0.6c0.1-0.2,0.3-0.4,0.4-0.6c0.1-0.1,0.2-0.2,0.3-0.3c0.1-0.1,0.2-0.2,0.3-0.3
			c0.2-0.2,0.4-0.4,0.7-0.6c0.2-0.2,0.5-0.4,0.8-0.6c0.3-0.2,0.6-0.4,0.9-0.5c0.3-0.2,0.6-0.3,0.9-0.4c0.7-0.3,1.4-0.4,2.1-0.6
			c0.7-0.1,1.5-0.1,2.2,0l0.5,0.1l0.1,0l0,0l0.1,0l0,0l0.1,0l0.2,0.1l0.2,0.1c0.1,0,0.2,0.1,0.3,0.1c0.2,0.1,0.4,0.1,0.5,0.2
			c0.6,0.3,1.2,0.7,1.7,1.1c0.5,0.4,0.9,0.9,1.3,1.3c0.4,0.5,0.6,0.9,0.9,1.4c0.1,0.2,0.2,0.5,0.3,0.7c0.1,0.2,0.1,0.4,0.2,0.6
			c0.1,0.4,0.2,0.7,0.2,1c0.1,0.3,0.1,0.5,0.1,0.7c0,0.2,0,0.2,0,0.2s0-0.1-0.1-0.2c0-0.1-0.1-0.4-0.2-0.6c-0.1-0.3-0.2-0.6-0.4-0.9
			c-0.1-0.2-0.2-0.3-0.3-0.5c-0.1-0.2-0.2-0.4-0.4-0.6c-0.3-0.4-0.6-0.8-1-1.1c-0.4-0.3-0.8-0.7-1.3-0.9c-0.5-0.3-1-0.5-1.6-0.6
			c-0.1,0-0.3,0-0.4-0.1c-0.1,0-1.3-0.3-1.3-0.3c-0.6,0-1.1,0.2-1.6,0.4c-0.5,0.2-1,0.4-1.4,0.7c-0.2,0.1-0.4,0.3-0.6,0.5
			c-0.2,0.2-0.4,0.3-0.5,0.5c-0.2,0.2-0.3,0.3-0.4,0.5c-0.1,0.2-0.3,0.3-0.4,0.5c-0.1,0.1-0.1,0.2-0.2,0.2c0,0.1-0.1,0.2-0.1,0.2
			c-0.1,0.2-0.2,0.3-0.2,0.4c-0.1,0.1-0.1,0.3-0.2,0.4c0,0.1-0.1,0.2-0.1,0.3c0,0.1,0,0.1,0,0.1c0,0.1,0,0.1,0,0.2
			c0,0.1,0,0.2-0.1,0.3c0,0.1-0.1,0.2-0.1,0.2c-0.2,1-1.2,1.6-2.2,1.4s-1.6-1.2-1.4-2.2C737.4,399.3,737.5,399.2,737.5,399.1z"/>
		<path class="st24" d="M734.4,402.8l1.5-7c0.2-0.9,1.3-1.3,2-0.6l2.8,2.5l2.6,2.3c0.7,0.6,0.5,1.7-0.4,2l-6.8,2.2
			C735,404.5,734.2,403.7,734.4,402.8z"/>
		<path class="st24" d="M752.7,408.3c0,0,0,0.1-0.1,0.2c0,0.1-0.1,0.2-0.1,0.3c0,0.1,0,0.1-0.1,0.2c0,0.1-0.1,0.2-0.1,0.2
			c-0.1,0.2-0.2,0.4-0.3,0.6c-0.1,0.2-0.2,0.4-0.4,0.6c-0.1,0.2-0.3,0.4-0.4,0.6c-0.1,0.1-0.2,0.2-0.3,0.3c-0.1,0.1-0.2,0.2-0.3,0.3
			c-0.2,0.2-0.4,0.4-0.7,0.6c-0.2,0.2-0.5,0.4-0.8,0.6c-0.3,0.2-0.6,0.4-0.9,0.5c-0.3,0.2-0.6,0.3-0.9,0.4c-0.7,0.3-1.4,0.4-2.1,0.6
			c-0.7,0.1-1.5,0.1-2.2,0l-0.5-0.1l-0.1,0l0,0l-0.1,0l0,0l-0.1,0l-0.2-0.1l-0.2-0.1c-0.1,0-0.2-0.1-0.3-0.1
			c-0.2-0.1-0.4-0.1-0.5-0.2c-0.6-0.3-1.2-0.7-1.7-1.1c-0.5-0.4-0.9-0.9-1.3-1.3c-0.4-0.5-0.6-0.9-0.9-1.4c-0.1-0.2-0.2-0.5-0.3-0.7
			c-0.1-0.2-0.1-0.4-0.2-0.6c-0.1-0.4-0.2-0.7-0.2-1c-0.1-0.3-0.1-0.5-0.1-0.7c0-0.2,0-0.2,0-0.2s0,0.1,0.1,0.2
			c0,0.1,0.1,0.4,0.2,0.6c0.1,0.3,0.2,0.6,0.4,0.9c0.1,0.2,0.2,0.3,0.3,0.5c0.1,0.2,0.2,0.4,0.4,0.6c0.3,0.4,0.6,0.8,1,1.1
			c0.4,0.3,0.8,0.7,1.3,0.9c0.5,0.3,1,0.5,1.6,0.6c0.1,0,0.3,0,0.4,0.1c0.1,0,0.1,0,0.2,0l0.2,0c0,0,2,0,2.5-0.2
			c0.5-0.2,1-0.4,1.4-0.7c0.2-0.1,0.4-0.3,0.6-0.5c0.2-0.2,0.4-0.3,0.5-0.5c0.2-0.2,0.3-0.3,0.4-0.5c0.1-0.2,0.3-0.3,0.4-0.5
			c0.1-0.1,0.1-0.2,0.2-0.2c0-0.1,0.1-0.2,0.1-0.2c0.1-0.2,0.2-0.3,0.2-0.4c0.1-0.1,0.1-0.3,0.2-0.4c0-0.1,0.1-0.2,0.1-0.3
			c0-0.1,0-0.1,0-0.1c0-0.1,0-0.1,0-0.2c0-0.1,0-0.2,0.1-0.3c0-0.1,0.1-0.2,0.1-0.2c0.2-1,1.2-1.6,2.2-1.4c1,0.2,1.6,1.2,1.4,2.2
			C752.7,408.1,752.7,408.2,752.7,408.3z"/>
		<path class="st24" d="M755.8,404.6l-1.5,7c-0.2,0.9-1.3,1.3-2,0.6l-2.8-2.5l-2.6-2.3c-0.7-0.6-0.5-1.7,0.4-2l6.8-2.2
			C755.1,402.9,756,403.7,755.8,404.6z"/>
	</g>
	<g>
		<path class="st57" d="M1028.1,422.3c-0.8,2.2-3.4,3.4-5.6,2.5l-38.2-14.4c-2.2-0.8-3.4-3.4-2.5-5.6l8.7-23.2
			c0.8-2.2,3.4-3.4,5.6-2.5l38.2,14.4c2.2,0.8,3.4,3.4,2.5,5.6L1028.1,422.3z"/>
		<path class="st55" d="M1026,414c-0.5,1.4-2.1,2.2-3.6,1.6l-0.6-0.2c-1.4-0.5-2.2-2.1-1.6-3.6l2.8-7.5c0.5-1.4,2.1-2.2,3.6-1.6
			l0.6,0.2c1.4,0.5,2.2,2.1,1.6,3.6L1026,414z"/>
		<path class="st56" d="M999.7,409.9c-0.4,1.2-1.7,1.8-2.9,1.3l-0.4-0.2c-1.2-0.4-1.8-1.7-1.3-2.9l7.1-19c0.4-1.2,1.7-1.8,2.9-1.3
			l0.4,0.2c1.2,0.4,1.8,1.7,1.3,2.9L999.7,409.9z"/>
		<path class="st56" d="M1012.5,404.1c-0.5,1.2-1.8,1.8-3,1.4l-18.8-7.1c-1.2-0.5-1.8-1.8-1.4-3l0.1-0.3c0.5-1.2,1.8-1.8,3-1.4
			l18.8,7.1c1.2,0.5,1.8,1.8,1.4,3L1012.5,404.1z"/>
		<circle class="st56" cx="1000.9" cy="399.3" r="8.8"/>
		<circle class="st55" cx="1000.6" cy="399.4" r="5.6"/>
	</g>
	<g>
		<path class="st57" d="M1210.1,448.4c0.7,1.9-0.2,4-2.1,4.7l-47.4,18c-1.9,0.7-4-0.2-4.7-2.1l-26.5-69.8c-0.7-1.9,0.2-4,2.1-4.7
			l47.4-18c1.9-0.7,4,0.2,4.7,2.1L1210.1,448.4z"/>
	</g>
	<g>
		<circle class="st59" cx="1157.4" cy="453.1" r="3.8"/>
	</g>
	<g>
		<circle class="st59" cx="1149.9" cy="433" r="3.8"/>
	</g>
	<g>
		<circle class="st59" cx="1142.1" cy="412.5" r="3.8"/>
	</g>
	<g>
		<path class="st58" d="M1187.9,412.4c0.6,1.6-0.2,3.5-1.8,4.1l-25.9,9.8c-1.6,0.6-3.5-0.2-4.1-1.8l-3.1-8.1
			c-0.6-1.6,0.2-3.5,1.8-4.1l25.9-9.8c1.6-0.6,3.5,0.2,4.1,1.8L1187.9,412.4z"/>
	</g>
	<g>
		<circle class="st54" cx="1158.8" cy="419.4" r="1.7"/>
	</g>
	<g>
		<circle class="st54" cx="1163.3" cy="417.7" r="1.7"/>
	</g>
	<g>
		<circle class="st54" cx="1167.7" cy="416" r="1.7"/>
	</g>
	<g>
		<circle class="st54" cx="1172.2" cy="414.3" r="1.7"/>
	</g>
	<g>
		<circle class="st54" cx="1176.9" cy="412.5" r="1.7"/>
	</g>
	<g>
		<circle class="st54" cx="1181.3" cy="410.8" r="1.7"/>
	</g>
	<g>
		<path class="st54" d="M1169.5,397.7c0.3,0.8-0.1,1.7-0.9,1.9l-16.8,6.4c-0.8,0.3-1.7-0.1-1.9-0.9l-2.1-5.6
			c-0.3-0.8,0.1-1.7,0.9-1.9l16.8-6.4c0.8-0.3,1.7,0.1,1.9,0.9L1169.5,397.7z"/>
	</g>
	<g>
		<path class="st53" d="M1158.5,453.2c0.5,1.3-0.2,2.7-1.4,3.2l-9.4,3.6c-1.3,0.5-2.7-0.2-3.2-1.4l-0.4-1c-0.5-1.3,0.2-2.7,1.4-3.2
			l9.4-3.6c1.3-0.5,2.7,0.2,3.2,1.4L1158.5,453.2z"/>
	</g>
	<g>
		<path class="st53" d="M1151.4,434.5c0.5,1.3-0.2,2.7-1.4,3.2l-9.4,3.6c-1.3,0.5-2.7-0.2-3.2-1.4l-0.4-1c-0.5-1.3,0.2-2.7,1.4-3.2
			l9.4-3.6c1.3-0.5,2.7,0.2,3.2,1.4L1151.4,434.5z"/>
	</g>
	<g>
		<path class="st53" d="M1143.6,413.9c0.5,1.3-0.2,2.7-1.4,3.2l-9.4,3.6c-1.3,0.5-2.7-0.2-3.2-1.4l-0.4-1c-0.5-1.3,0.2-2.7,1.4-3.2
			l9.4-3.6c1.3-0.5,2.7,0.2,3.2,1.4L1143.6,413.9z"/>
	</g>
	<g>
		<path class="st54" d="M1188,427.5l-26,9.9c-1.1,0.4-2.2-0.1-2.6-1.1c-0.4-1.1,0.1-2.2,1.2-2.6l26-9.9c1.1-0.4,2.2,0.1,2.6,1.1
			S1189.1,427.1,1188,427.5z"/>
	</g>
	<g>
		<path class="st54" d="M1193.5,435.1l-28.3,10.7c-1.1,0.4-2.2-0.1-2.6-1.1s0.1-2.2,1.2-2.6l28.3-10.7c1.1-0.4,2.2,0.1,2.6,1.1
			C1195.1,433.5,1194.6,434.7,1193.5,435.1z"/>
	</g>
	<g>
		<path class="st54" d="M1187.5,448.1l-18.7,7.1c-1.1,0.4-2.2-0.1-2.6-1.1c-0.4-1.1,0.1-2.2,1.2-2.6l18.7-7.1
			c1.1-0.4,2.2,0.1,2.6,1.1S1188.6,447.7,1187.5,448.1z"/>
	</g>
</g>
</svg>
